<ttFont>
<head>
    <!-- Most of this table will be recalculated by the compiler -->
    <tableVersion value="1.0"/>
    <fontRevision value="2.004"/>
    <checkSumAdjustment value="0xd6cb86f3"/>
    <magicNumber value="0x5f0f3cf5"/>
    <flags value="00000000 00000011"/>
    <unitsPerEm value="1000"/>
    <created value="Thu Oct  8 10:02:47 2009"/>
    <modified value="Thu Oct  8 10:02:47 2009"/>
    <xMin value="-460"/>
    <yMin value="-292"/>
    <xMax value="1446"/>
    <yMax value="1124"/>
    <macStyle value="00000000 00000000"/>
    <lowestRecPPEM value="3"/>
    <fontDirectionHint value="2"/>
    <indexToLocFormat value="0"/>
    <glyphDataFormat value="0"/>
  </head>
          <CharString index="0">
            744 19 rmoveto
            -22 callgsubr
            -16 hhcurveto
            -50 -3 9 24 -8 hvcurveto
            -218 621 rlineto
            22 -8 -4 5 -18 hhcurveto
            -15 -7 -3 -18 -7 hvcurveto
            -201 -575 -26 -72 -37 -10 -31 -3 rlinecurve
            -12 -1 -10 -1 4 -17 rrcurveto
            -10 3 9 -4 6 8 6 3 68 65 24 -3 5 hhcurveto
            5 15 16 callgsubr
            -12 1 -6 hhcurveto
            -22 2 -18 8 -5 21 -5 16 15 40 9 27 17 45 -1 2 13 37 rrcurveto
            257 hlineto
            54 -155 7 -20 5 -22 -62 -1 rlinecurve
            -15 -12 0 -19 174 callsubr
            88 8 -3 11 -6 callgsubr
            -247 245 rmoveto
            -233 hlineto
            117 330 rlineto
            return
          </CharString>
          <CharString index="1">
            573 143 rmoveto
            -69 callsubr
            -1 292 rlineto
            14 0 2 -1 3 vhcurveto
            19 -5 -15 10 -18 hhcurveto
            -32 0 -31 -9 hvcurveto
            1 -275 rlineto
            -20 -23 -78 -68 -60 -15 61 17 -4 vhcurveto
            -15 56 8 69 11 87 3 20 -12 callgsubr
            -97 -6 -140 -13 3 hvcurveto
            -13 3 14 0 6 hhcurveto
            16 0 3 18 hvcurveto
            62 2 20 55 44 hhcurveto
            18 8 -13 -18 4 hvcurveto
            6 -23 -3 -21 -3 -23 -9 -77 -10 -73 14 -55 rrcurveto
            -91 23 73 -29 58 hhcurveto
            23 45 3 58 36 hvcurveto
            -50 28 49 -11 27 hhcurveto
            36 19 22 31 9 hvcurveto
            11 40 -2 60 0 vvcurveto
            return
          </CharString>
          <CharString index="2">
            -32 callgsubr
            -4 -2 -9 -6 hvcurveto
            -11 -11 -38 -45 -30 hhcurveto
            -11 -7 3 20 -19 hvcurveto
            25 -22 -18 19 -30 hhcurveto
            -28 -26 -21 -20 -20 hvcurveto
            -16 -16 -27 -26 3 -11 rrcurveto
            -8 2 7 -6 7 hhcurveto
            6 3 3 5 4 hvcurveto
            8 7 42 51 32 hhcurveto
            12 7 -3 -26 24 hvcurveto
            -16 14 19 -22 31 hhcurveto
            31 30 27 14 13 hvcurveto
            18 17 26 25 -3 11 rrcurveto
            endchar
          </CharString>
          <CharString index="3">
            483 100 rmoveto
            8 -2 -16 13 -8 hhcurveto
            -6 0 -2 -10 -7 hvcurveto
            -66 -38 -73 -25 -56 hhcurveto
            -70 -34 69 45 -11 hvcurveto
            -6 23 -4 43 30 vvcurveto
            58 hlineto
            40 189 0 126 -31 hvcurveto
            50 -13 -54 37 -69 hhcurveto
            -109 -130 -94 -177 44 hvcurveto
            -92 24 75 -88 107 81 callsubr
            -120 254 rmoveto
            -98 25 -156 0 -38 hhcurveto
            -41 hlineto
            124 2 80 33 44 hhcurveto
            36 38 -19 -40 10 hvcurveto
            return
          </CharString>
          <CharString index="4">
            rmoveto
            13 -3 176 callsubr
            -17 -1 hvcurveto
            -65 -2 -20 -52 -43 hhcurveto
            -19 -7 14 18 -4 hvcurveto
            -6 23 2 17 5 42 23 174 rcurveline
            3 22 -12 callgsubr
            -96 -6 -140 -13 3 hvcurveto
            -13 3 14 0 6 hhcurveto
            16 0 3 18 hvcurveto
            52 2 15 65 48 hhcurveto
            18 8 -13 -18 4 hvcurveto
            6 -23 -2 -19 -4 -35 -24 -186 rcurveline
            -2 -10 -2 -18 4 -18 rrcurveto
            -46 12 43 -37 51 hhcurveto
            97 5 141 12 -3 hvcurveto
            return
          </CharString>
          <CharString index="5">
            763 669 rmoveto
            9 -2 -9 5 -6 -13 4 -3 -72 -62 -26 3 -5 hhcurveto
            -5 139 callsubr
            17 -1 0 vvcurveto
            15 -1 14 -3 4 -15 rrcurveto
            0 3 -15 -11 -17 vhcurveto
            -3 -3 1 -2 -2 -4 rrcurveto
            0 0 -3 -6 -7 vhcurveto
            -166 -260 -186 292 -3 4 -5 8 -1 5 rlinecurve
            20 -5 41 1 10 hhcurveto
            11 13 0 19 -5 hvcurveto
            7 -1 -8 7 -10 -36 -39 -3 -38 -89 -9 173 callsubr
            14 0 10 hhcurveto
            53 6 -9 -20 13 hvcurveto
            219 -349 rlineto
            -172 vlineto
            -65 -2 -1 -69 -1 vhcurveto
            -13 64 callsubr
            7 -6 10 64 callgsubr
            58 hlineto
            84 30 -3 6 hhcurveto
            5 75 callgsubr
            -22 callgsubr
            -18 hhcurveto
            -23 -33 0 14 -3 hvcurveto
            226 vlineto
            192 302 45 69 46 4 20 2 rlinecurve
            10 1 11 1 -5 17 rrcurveto
            return
          </CharString>
          <CharString index="6">
            762 262 rmoveto
            6 -1 -8 8 -10 -9 -2 -3 -95 -45 -47 3 -43 hhcurveto
            -8 -14 124 callsubr
            10 hlineto
            47 -2 26 -3 5 -2 3 -13 rlinecurve
            1 -6 2 -99 -4 -16 rrcurveto
            -68 -19 -88 -22 -59 hhcurveto
            -106 -108 67 140 -35 hvcurveto
            -16 62 -12 148 57 107 rrcurveto
            86 47 86 49 86 hhcurveto
            106 72 -86 -103 27 hvcurveto
            6 -26 2 -23 1 -3 rrcurveto
            -13 3 13 0 6 hhcurveto
            13 4 0 20 hvcurveto
            241 vlineto
            14 vlineto
            5 -2 -5 7 -11 hhcurveto
            -4 103 callsubr
            hvcurveto
            -47 -76 rlineto
            65 -60 -65 22 -64 hhcurveto
            -219 -170 -220 -232 59 hvcurveto
            -163 41 141 -110 158 hhcurveto
            47 97 9 67 52 hvcurveto
            -17 11 29 -38 14 hhcurveto
            0 7 0 1 7 vhcurveto
            2 7 -1 118 19 vvcurveto
            37 0 32 3 9 vhcurveto
            13 5 17 1 31 hhcurveto
            11 5 7 12 -3 hvcurveto
            return
          </CharString>
          <CharString index="7">
            711 470 rmoveto
            -16 178 39 callsubr
            -552 hlineto
            -22 -3 0 -18 -1 hvcurveto
            -17 -178 rlineto
            -2 -13 1 -4 0 vvcurveto
            61 callgsubr
            5 hhcurveto
            4 6 0 3 3 hvcurveto
            3 2 -1 2 3 27 rrcurveto
            144 15 26 16 136 hhcurveto
            20 25 0 -2 16 hvcurveto
            3 -14 0 -3 -15 vvcurveto
            -525 vlineto
            -40 -3 -11 -92 vhcurveto
            -13 hlineto
            -19 -12 -59 callgsubr
            -4 1 5 -10 15 38 39 3 40 hhcurveto
            74 hlineto
            40 43 -3 40 hhcurveto
            7 14 18 callsubr
            -17 hhcurveto
            -13 hlineto
            -17 -16 1 1 -18 hvcurveto
            -25 3 -8 2 -3 13 rrcurveto
            -1 6 0 11 0 vvcurveto
            537 vlineto
            31 6 2 7 1 vhcurveto
            2 7 31 0 20 hhcurveto
            99 41 -5 -72 18 hvcurveto
            2 -10 1 -7 1 -9 9 -65 rcurveline
            1 -5 1 -5 rlineto
            0 1 -16 21 18 -1 7 14 -2 vhcurveto
            return
          </CharString>
          <CharString index="8">
            31 -8 -18 16 -24 hhcurveto
            -32 -12 -28 -22 5 hvcurveto
            -15 4 14 -18 26 hhcurveto
            17 4 4 4 5 hvcurveto
            1 -75 -40 -42 -16 -16 -3 -3 -3 -3 1 -3 rrcurveto
            -6 2 6 -6 6 hhcurveto
            13 75 90 92 -23 hvcurveto
            endchar
          </CharString>
          <CharString index="9">
            601 143 rmoveto
            13 -4 176 callsubr
            -17 -1 182 callgsubr
            -43 hhcurveto
            -20 -6 14 18 -5 29 callgsubr
            -14 185 callgsubr
            -65 22 -56 hhcurveto
            -86 -33 -57 -23 -14 hvcurveto
            46 -18 -46 34 -49 hhcurveto
            -35 -19 -19 -35 -12 hvcurveto
            -9 -34 0 -60 1 -5 rrcurveto
            -13 3 14 0 6 hhcurveto
            16 0 3 24 59 5 52 35 28 9 -35 -9 2 hvcurveto
            4 -14 2 -16 -1 -14 rrcurveto
            -292 vlineto
            1 -9 -1 -3 96 callsubr
            -12 18 hhcurveto
            32 0 24 38 hvcurveto
            86 vlineto
            21 -1 2 1 42 vhcurveto
            65 vlineto
            1 16 16 59 24 29 rrcurveto
            27 25 28 14 36 hhcurveto
            39 20 183 callsubr
            15 -58 -14 -114 -6 -50 -3 -18 -2 -16 5 -18 rrcurveto
            -46 11 43 192 callsubr
            7 139 14 -3 hvcurveto
            return
          </CharString>
          <CharString index="10">
            rmoveto
            21 -6 -19 10 -14 hhcurveto
            -15 -10 -13 0 hvcurveto
            -120 -143 -3 -3 -6 -8 2 -7 rlinecurve
            -6 2 12 -15 11 hhcurveto
            4 2 2 5 6 hvcurveto
            140 122 17 14 -1 12 -2 9 rlinecurve
            endchar
          </CharString>
          <CharString index="11">
            519 232 rmoveto
            -10 42 -24 39 -34 29 -34 28 -20 5 -96 23 -4 2 -52 12 -9 2 -45 13 -34 36 -11 44 rrcurveto
            81 -20 62 86 93 hhcurveto
            102 47 -69 -77 20 hvcurveto
            8 -33 0 -20 1 -6 rrcurveto
            -13 4 12 0 7 hhcurveto
            16 0 2 18 hvcurveto
            1 202 rlineto
            3 0 8 -1 3 vhcurveto
            5 -1 -6 7 -10 hhcurveto
            -7 -1 -1 -11 -6 hvcurveto
            -32 -56 rlineto
            58 -55 -62 10 -44 hhcurveto
            -129 -86 -118 -114 29 hvcurveto
            29 -113 99 -25 40 -9 101 -25 rcurveline
            54 -14 36 -31 15 -58 rrcurveto
            -91 23 -63 -94 -96 hhcurveto
            -84 -88 38 101 -25 hvcurveto
            -4 15 -3 24 1 14 rrcurveto
            0 -1 8 -1 3 vhcurveto
            12 -3 -33 callsubr
            return
          </CharString>
          <CharString index="12">
            47 callsubr
            -15 9 rrcurveto
            13 -23 -24 3 -28 hhcurveto
            -44 -39 -21 -35 -5 hvcurveto
            -7 vlineto
            -1 -3 1 -2 1 -3 rrcurveto
            -14 3 127 callsubr
            14 10 9 15 1 hvcurveto
            -1 7 -2 9 -6 7 -8 4 rlinecurve
            11 12 20 160 callgsubr
            19 13 -3 -7 8 hvcurveto
            2 -2 2 -4 2 -5 88 callgsubr
            -1 -7 rrcurveto
            -11 -5 -9 -7 162 callsubr
            -21 -28 1 -33 -1 -18 rcurveline
            1 -3 2 -6 5 -5 5 -1 rlinecurve
            3 hlineto
            5 5 3 6 hvcurveto
            18 vlineto
            27 24 21 39 19 vhcurveto
            17 96 callgsubr
          </CharString>
          <CharString index="13">
            450 -9 rmoveto
            392 vlineto
            -1 14 1 1 -1 4 rrcurveto
            19 -5 -16 10 -17 hhcurveto
            -32 0 -31 -9 hvcurveto
            1 -275 rlineto
            -20 -23 -78 -68 -60 -15 61 17 -4 vhcurveto
            -15 56 8 69 11 87 3 20 -12 callgsubr
            -97 -6 -140 -13 3 hvcurveto
            -13 3 14 0 6 hhcurveto
            16 0 3 18 hvcurveto
            62 2 20 55 44 hhcurveto
            18 8 -13 -18 4 hvcurveto
            6 -23 -3 -21 -3 -23 -9 -77 -10 -73 14 -55 rrcurveto
            -91 23 73 -29 58 hhcurveto
            45 29 22 15 13 hvcurveto
            1 -39 -1 -51 -25 -50 rrcurveto
            -33 -18 -31 -30 -45 hhcurveto
            -26 -28 11 26 -18 hvcurveto
            27 5 12 23 -6 22 rrcurveto
            18 -5 -17 15 -23 hhcurveto
            -16 -33 -11 -50 13 hvcurveto
            -51 13 53 -36 60 hhcurveto
            114 69 105 90 1 hvcurveto
            return
          </CharString>
          <CharString index="14">
            214 166 220 237 -60 hvcurveto
            -87 callsubr
            return
          </CharString>
          <CharString index="15">
            rmoveto
            31 -8 14 callsubr
            8 hvcurveto
            -27 7 24 -15 21 54 callgsubr
            -8 hvcurveto
            221 hmoveto
            31 -7 -29 10 -16 hhcurveto
            -32 2 callgsubr
            22 hhcurveto
            30 58 callgsubr
            return
          </CharString>
          <CharString index="16">
            rmoveto
            439 vlineto
            21 vlineto
            -5 callgsubr
            -20 -13 -15 -20 hvcurveto
            20 -17 -37 34 -52 hhcurveto
            -118 -86 -141 -142 35 hvcurveto
            -100 26 76 -58 73 hhcurveto
            38 33 17 33 30 hvcurveto
            -84 vlineto
            -42 -1 -24 -21 -32 vhcurveto
            -44 -31 -45 0 -18 hhcurveto
            -15 -27 0 8 -29 hvcurveto
            20 14 -5 28 0 vvcurveto
            20 -5 -18 14 -22 hhcurveto
            -26 -20 -21 -33 9 hvcurveto
            -52 13 67 -6 63 hhcurveto
            129 52 73 65 hvcurveto
            -70 207 rmoveto
            -36 -46 -77 -60 -43 -31 44 46 -11 vhcurveto
            -12 44 0 106 10 46 rrcurveto
            63 16 38 36 39 hhcurveto
            63 33 -80 -27 4 hvcurveto
            return
          </CharString>
          <CharString index="17">
            501 473 rmoveto
            1 6 -2 6 -2 7 -7 27 -21 22 -29 1 -39 -1 -21 -33 8 -33 rrcurveto
            -25 7 23 -20 29 hhcurveto
            1 hlineto
            -12 -18 -20 -13 -22 -1 rrcurveto
            27 -35 -42 16 -45 hhcurveto
            -55 -52 -25 -41 -37 hvcurveto
            -39 -42 -21 -56 -59 vvcurveto
            -20 3 -21 4 -19 vhcurveto
            10 -37 18 -35 26 -28 rrcurveto
            -43 39 54 -25 56 hhcurveto
            56 52 24 41 38 hvcurveto
            39 42 20 57 58 vvcurveto
            21 -2 20 -5 20 vhcurveto
            -9 34 -16 32 -24 28 43 11 31 44 -1 51 rrcurveto
            -100 -255 rmoveto
            -60 -7 -46 -25 -38 vhcurveto
            -34 -23 -35 -23 -38 hhcurveto
            -35 -34 21 33 -20 hvcurveto
            -10 15 -8 17 -5 20 -6 26 -3 29 1 34 -1 60 7 46 25 38 rrcurveto
            35 23 36 22 36 hhcurveto
            37 32 -21 -32 22 hvcurveto
            10 -16 7 -17 5 -19 rrcurveto
            6 -26 3 -29 -35 vvcurveto
            return
          </CharString>
          <CharString index="18">
            1036 669 rmoveto
            11 -3 -11 3 -3 -17 16 -3 -78 -66 -26 3 -6 hhcurveto
            -5 -15 0 -19 4 hvcurveto
            -13 4 13 -1 5 hhcurveto
            23 -1 27 -8 7 -26 3 -14 -3 -14 -4 -10 -149 -467 rcurveline
            180 callsubr
            19 -8 25 69 1 rlinecurve
            11 13 0 19 -5 hvcurveto
            4 -1 -5 10 -14 -34 -38 -3 -36 -87 -2 3 -11 hhcurveto
            -5 -14 0 -19 4 hvcurveto
            -11 callgsubr
            13 hhcurveto
            38 5 -7 -13 6 hvcurveto
            18 -57 -148 -463 180 callsubr
            20 -7 24 70 1 rlinecurve
            10 145 callgsubr
            9 -2 -8 5 -8 -35 -38 -3 -36 -88 -1 3 -12 hhcurveto
            -4 -15 -3 callgsubr
            14 hhcurveto
            42 2 -7 -25 8 hvcurveto
            195 -611 rlineto
            -21 7 2 -7 21 hhcurveto
            9 11 0 21 7 hvcurveto
            162 509 160 -504 rlineto
            0 2 -5 1 -3 vhcurveto
            -17 5 10 -1 10 hhcurveto
            12 10 0 22 6 hvcurveto
            179 565 24 77 39 5 19 2 rlinecurve
            12 1 9 1 -4 17 rrcurveto
            return
          </CharString>
          <CharString index="19">
            656 368 rmoveto
            63 -16 -33 10 -15 hhcurveto
            -21 -23 -20 -28 7 hvcurveto
            3 -14 9 -7 8 -6 25 -21 14 -28 7 -27 10 -39 -5 -102 -8 -40 rrcurveto
            -51 -9 -22 -40 -50 hhcurveto
            -72 -17 68 16 -4 hvcurveto
            -7 27 0 14 59 vvcurveto
            101 vlineto
            56 vlineto
            14 0 26 -1 3 vhcurveto
            19 -5 -17 107 callsubr
            0 -31 -9 hvcurveto
            -218 vlineto
            -28 1 -1 5 -24 vhcurveto
            5 -26 -10 -27 -7 -14 rrcurveto
            -24 -12 -16 -11 -24 hhcurveto
            -41 -42 21 66 -17 hvcurveto
            -13 52 9 76 8 64 5 33 1 8 -58 callsubr
            -97 -6 -140 -13 3 hvcurveto
            -13 3 14 0 6 hhcurveto
            16 0 3 18 hvcurveto
            62 2 20 55 44 hhcurveto
            18 8 -13 -18 4 hvcurveto
            6 -23 -3 -21 -3 -23 -15 -118 0 -37 10 -43 rrcurveto
            -111 29 96 -16 50 hhcurveto
            29 36 6 56 24 hvcurveto
            -54 42 65 -8 31 hhcurveto
            60 38 35 82 16 hvcurveto
            15 69 1 138 -14 54 rrcurveto
            return
          </CharString>
          <CharString index="20">
            -96 35 rmoveto
            -191 49 -75 -268 -198 hhcurveto
            -90 -97 67 142 -36 hvcurveto
            -14 54 -17 129 44 111 rrcurveto
            100 38 85 58 86 hhcurveto
            94 97 -67 89 callgsubr
            return
          </CharString>
          <CharString index="21">
            268 143 rmoveto
            13 -4 176 callsubr
            -16 hvcurveto
            -52 -1 -1 -66 -36 hhcurveto
            -28 -9 32 12 -4 hvcurveto
            6 -5 11 12 vvcurveto
            574 vlineto
            15 -66 callgsubr
            3 hvcurveto
            -22 vlineto
            -495 vlineto
            22 callgsubr
            21 30 7 48 13 hvcurveto
            9 36 0 58 -1 4 rrcurveto
            return
          </CharString>
          <CharString index="22">
            546 143 rmoveto
            13 -3 131 callsubr
            -17 0 -4 -17 182 callgsubr
            -44 hhcurveto
            -19 -7 14 18 -4 74 callsubr
            6 53 15 108 -15 185 callgsubr
            -66 22 -55 hhcurveto
            -75 -34 -42 -25 -19 hvcurveto
            306 -66 callgsubr
            3 hvcurveto
            -616 vlineto
            -14 19 -15 21 16 13 11 14 1 vhcurveto
            2 5 -1 103 71 vvcurveto
            22 1 21 -1 22 vhcurveto
            24 22 130 109 146 callgsubr
            vhcurveto
            14 -58 -14 -113 -6 -51 -3 -18 -2 -16 5 -18 rrcurveto
            -46 12 42 192 callsubr
            8 139 14 -4 hvcurveto
            return
          </CharString>
          <CharString index="23">
            hstemhm
            hintmask 11000000
            -96 callgsubr
            return
          </CharString>
          <CharString index="24">
            -34 -4 10 callgsubr
            18 21 2 1 18 hvcurveto
            120 hlineto
            -1 13 32 -2 13 -13 callsubr
            0 -2 7 15 vvcurveto
            257 123 vlineto
            79 40 -44 -44 11 169 callsubr
            -28 -21 vvcurveto
            -29 0 -40 5 -20 vhcurveto
            return
          </CharString>
          <CharString index="25">
            350 144 rmoveto
            12 -3 -14 0 -4 hhcurveto
            -15 0 -3 -13 -2 hvcurveto
            -102 -19 -42 -20 -32 hhcurveto
            -25 -10 22 22 -5 hvcurveto
            -2 7 -4 10 12 vvcurveto
            307 93 vlineto
            17 12 18 callsubr
            -17 hhcurveto
            -85 144 hlineto
            22 vlineto
            23 -7 -21 5 -10 hhcurveto
            -32 0 -30 -9 hvcurveto
            -155 -92 vlineto
            -18 -12 9 callgsubr
            15 hhcurveto
            85 161 callgsubr
            1 -6 3 -10 vhcurveto
            return
          </CharString>
          <CharString index="26">
            588 255 rmoveto
            14 -4 -16 0 -3 hhcurveto
            -15 -1 -2 -23 -2 hvcurveto
            -123 -10 -15 -85 -179 hhcurveto
            -163 hlineto
            394 610 5 9 4 6 -3 11 rlinecurve
            11 -3 -9 0 -16 hhcurveto
            -418 hlineto
            -24 -1 -1 -19 -1 hvcurveto
            -10 -181 rlineto
            -1 -9 159 callsubr
            3 14 0 6 hhcurveto
            14 0 3 20 2 hvcurveto
            111 9 40 60 145 hhcurveto
            154 hlineto
            -396 -612 -8 -11 1 -12 1 -4 rlinecurve
            -11 3 9 0 16 hhcurveto
            435 hlineto
            22 3 0 18 2 hvcurveto
            14 224 rlineto
            1 10 0 3 0 vvcurveto
            return
          </CharString>
          <CharString index="27">
            rmoveto
            -132 144 -4 4 -7 0 -4 -4 rlinecurve
            -132 -144 -7 -10 12 -14 10 8 rlinecurve
            125 99 125 -99 10 -8 14 14 -10 10 rlinecurve
            return
          </CharString>
          <CharString index="28">
            -74 callsubr
            13 0 return
          </CharString>
          <CharString index="29">
            -6 -14 -76 callsubr
            return
          </CharString>
          <CharString index="30">
            -86 callgsubr
            hintmask 00110000
            return
          </CharString>
          <CharString index="31">
            -57 callgsubr
            27 29 0 -15 return
          </CharString>
          <CharString index="32">
            rmoveto
            9 7 -9 16 -11 -5 -129 -55 rcurveline
            -126 55 -12 5 -9 -16 10 -7 rlinecurve
            133 -98 3 -2 5 0 4 2 rlinecurve
            endchar
          </CharString>
          <CharString index="33">
            -60 callgsubr
            3 return
          </CharString>
          <CharString index="34">
            -78 hhcurveto
            -24 -23 4 28 -7 hvcurveto
            37 -10 12 37 52 hhcurveto
            23 26 -4 -28 8 hvcurveto
            44 -2 rmoveto
            42 -11 -43 27 -46 hhcurveto
            -66 -47 -52 -54 13 hvcurveto
            -49 13 47 -21 40 hhcurveto
            64 50 51 56 -14 hvcurveto
            return
          </CharString>
          <CharString index="35">
            -70 callsubr
            hintmask 00110000
            return
          </CharString>
          <CharString index="36">
            -84 callsubr
            hintmask 00110000
            return
          </CharString>
          <CharString index="37">
            89 callsubr
            hintmask 11001000
            -104 callgsubr
            return
          </CharString>
          <CharString index="38">
            13 -3 131 callsubr
            -17 0 -3 -25 1 hvcurveto
            -77 -13 -33 -27 -29 -8 32 12 -3 vhcurveto
            -2 7 -2 10 12 vvcurveto
            return
          </CharString>
          <CharString index="39">
            rmoveto
            9 10 -14 14 -10 -8 -125 -99 rcurveline
            -124 99 -10 8 -14 -14 10 -10 rlinecurve
            132 -144 4 -4 7 0 4 4 rlinecurve
            endchar
          </CharString>
          <CharString index="40">
            894 669 rmoveto
            131 callgsubr
            -15 hhcurveto
            -126 hlineto
            -22 -6 0 -20 -7 hvcurveto
            -216 -572 -214 566 rlineto
            24 -9 0 2 -29 hhcurveto
            -130 hlineto
            -18 -12 60 callsubr
            12 83 callsubr
            -505 vlineto
            -41 -9 -31 -71 -3 vhcurveto
            -6 -13 -1 -18 4 hvcurveto
            -24 callgsubr
            31 34 3 32 79 12 -3 10 hhcurveto
            4 75 callgsubr
            13 -3 -14 1 -5 hhcurveto
            -41 1 -21 11 -8 156 callgsubr
            202 vlineto
            324 vlineto
            227 -598 rlineto
            -18 7 3 -8 18 hhcurveto
            17 4 11 10 4 hvcurveto
            232 611 rlineto
            -332 vlineto
            -224 vlineto
            -37 -5 -6 -67 -15 -12 17 callgsubr
            15 23 2 1 15 hvcurveto
            59 hlineto
            85 26 -3 5 hhcurveto
            6 14 18 callsubr
            -17 hhcurveto
            -32 -24 0 16 -5 177 callsubr
            3 8 64 20 12 0 19 -5 vhcurveto
            return
          </CharString>
          <CharString index="41">
            -24 callgsubr
            hhcurveto
            5 44 2 1 8 hvcurveto
            61 hlineto
            41 callgsubr
            return
          </CharString>
          <CharString index="42">
            483 100 rmoveto
            8 -2 -16 13 -8 hhcurveto
            -6 0 -2 -10 -7 hvcurveto
            -66 -38 -73 -25 -56 hhcurveto
            -54 -45 38 68 -17 hvcurveto
            -12 49 0 90 14 46 rrcurveto
            84 25 58 20 34 hhcurveto
            12 44 -2 -34 27 hvcurveto
            -41 -9 9 -37 96 callsubr
            -17 25 hhcurveto
            25 22 20 40 -11 hvcurveto
            50 -12 -57 36 -71 hhcurveto
            -131 -103 -135 -147 37 hvcurveto
            return
          </CharString>
          <CharString index="43">
            rmoveto
            68 -17 -59 55 -76 hhcurveto
            -118 -39 -126 -35 9 hvcurveto
            77 callsubr
            10 1 9 4 hvcurveto
            101 9 84 19 34 hhcurveto
            57 47 -36 -52 13 hvcurveto
            4 -13 -1 -14 1 -3 rrcurveto
            -10 2 10 -5 6 hhcurveto
            19 -11 44 8 -2 hvcurveto
            endchar
          </CharString>
          <CharString index="44">
            265 rmoveto
            46 -12 -59 115 -124 hhcurveto
            -51 -44 -24 -61 -32 hvcurveto
            296 2 160 2 16 hhcurveto
            42 23 -15 -24 12 hvcurveto
            -43 -5 6 -36 2 -8 rrcurveto
            -20 5 16 -13 23 hhcurveto
            28 19 20 46 -11 hvcurveto
            57 -15 -54 24 -58 hhcurveto
            -80 -83 -47 -103 -55 hvcurveto
            -76 -143 44 -189 4 -16 rrcurveto
            -83 21 56 -105 121 hhcurveto
            139 94 142 144 -36 hvcurveto
            -89 41 rmoveto
            9 -34 4 -119 -15 -50 rrcurveto
            -20 -5 -28 -74 -79 hhcurveto
            -41 -45 26 74 -19 hvcurveto
            -7 27 -18 96 28 77 rrcurveto
            44 16 37 45 59 hhcurveto
            81 21 -81 -11 2 hvcurveto
            endchar
          </CharString>
          <CharString index="45">
            hhcurveto
            6 -26 callsubr
            -17 hhcurveto
            -32 -24 0 16 return
          </CharString>
          <CharString index="46">
            hhcurveto
            88 9 102 15 -4 hvcurveto
            -222 455 rmoveto
            10 -41 2 -73 -44 -39 rrcurveto
            -42 -47 -75 0 -18 hhcurveto
            -117 259 hlineto
            93 callgsubr
            78 hlineto
            90 64 -28 -71 18 hvcurveto
            return
          </CharString>
          <CharString index="47">
            rmoveto
            13 -3 -16 17 -21 85 callsubr
            -4 hvcurveto
            -57 -135 rlineto
            -6 50 callsubr
            8 12 -4 112 callgsubr
            -15 17 -22 85 callsubr
            -4 hvcurveto
            -57 -135 rlineto
            -6 -11 2 -6 0 vvcurveto
            3 -13 23 -5 0 vvcurveto
            4 4 0 12 8 hvcurveto
            80 120 5 6 7 12 -4 13 rlinecurve
            endchar
          </CharString>
          <CharString index="48">
            -20 -77 callsubr
            return
          </CharString>
          <CharString index="49">
            -5 20 rrcurveto
            55 -14 -48 28 -43 hhcurveto
            return
          </CharString>
          <CharString index="50">
            hhcurveto
            -34 -26 -31 -34 9 hvcurveto
            -30 return
          </CharString>
          <CharString index="51">
            -20 -71 callsubr
            return
          </CharString>
          <CharString index="52">
            -9 -62 -22 -11 36 callgsubr
            return
          </CharString>
          <CharString index="53">
            -89 callgsubr
            endchar
          </CharString>
          <CharString index="54">
            hlineto
            22 102 callgsubr
            39 211 1 4 1 8 -1 5 rlinecurve
            return
          </CharString>
          <CharString index="55">
            -10 callsubr
            12 215 -102 callgsubr
          </CharString>
          <CharString index="56">
            1069 -21 28 -7 33 305 33 279 33 -7 28 hstemhm
            hintmask 01110000
            1013 246 rmoveto
            14 -3 -15 0 -5 hhcurveto
            -14 1 -2 -21 -5 hvcurveto
            -139 -26 -18 -65 -159 hhcurveto
            -121 hlineto
            -9 -10 0 2 -10 176 callgsubr
            276 115 vlineto
            75 14 -14 -30 8 hvcurveto
            4 -16 0 -26 -1 -4 rrcurveto
            1 -4 0 -5 -3 vvcurveto
            -15 4 13 0 6 hhcurveto
            16 0 5 15 1 hvcurveto
            220 vlineto
            3 -1 7 -1 3 vhcurveto
            14 -3 176 callsubr
            -21 hvcurveto
            -74 -2 -21 -18 -85 hhcurveto
            -108 244 hlineto
            35 7 0 32 vhcurveto
            123 hlineto
            108 29 -30 -70 18 hvcurveto
            8 -29 1 -15 4 -26 rrcurveto
            -1 -2 2 -5 -3 vvcurveto
            -14 4 15 179 callsubr
            5 19 -3 hvcurveto
            -24 175 rlineto
            28 -4 -8 0 -22 hhcurveto
            -342 hlineto
            -16 -15 0 9 -42 hvcurveto
            hintmask 10001000
            8 -35 -20 4 -28 hhcurveto
            -216 -161 -232 -229 58 hvcurveto
            -158 40 136 -106 143 hhcurveto
            20 17 2 9 41 hvcurveto
            hintmask 01000000
            10 44 17 0 16 hhcurveto
            364 hlineto
            22 1 1 17 4 hvcurveto
            38 211 1 4 1 8 -1 5 rlinecurve
            -471 -57 rmoveto
            hintmask 10001000
            -150 -28 -32 -82 -109 -87 100 128 -32 vhcurveto
            235 -60 127 206 159 hhcurveto
            83 11 -41 -26 6 hvcurveto
            8 -32 3 -31 -31 vvcurveto
            endchar
          </CharString>
          <CharString index="57">
            -11 callgsubr
            16 hhcurveto
            return
          </CharString>
          <CharString index="58">
            -12 -45 callgsubr
            return
          </CharString>
          <CharString index="59">
            86 29 -3 5 -62 callsubr
            return
          </CharString>
          <CharString index="60">
            -70 callgsubr
            -25 246 rmoveto
            21 -2 -17 16 -21 -7 callsubr
            -151 -114 rlineto
            -2 -2 -8 -7 -7 vvcurveto
            1 -6 9 -16 12 -2 rrcurveto
            4 3 1 4 7 hvcurveto
            167 91 rlineto
            20 10 1 11 9 vvcurveto
            endchar
          </CharString>
          <CharString index="61">
            -70 callgsubr
            -26 144 rmoveto
            -6 -10 -16 -11 -2 vhcurveto
            -4 -3 1 4 -7 hvcurveto
            -167 91 rlineto
            -20 10 -1 11 9 vvcurveto
            21 2 17 16 20 hhcurveto
            13 11 -9 0 hvcurveto
            150 -114 3 -2 8 -7 -1 -7 rlinecurve
            endchar
          </CharString>
          <CharString index="62">
            45 callgsubr
            108 100 77 -21 163 -20 callsubr
            hintmask 00111000
            -325 -15 callgsubr
            return
          </CharString>
          <CharString index="63">
            879 73 callsubr
            0 -4 -17 -1 182 callgsubr
            -44 hhcurveto
            -19 -7 14 18 -4 29 callgsubr
            -15 185 callgsubr
            -66 22 -55 hhcurveto
            -71 -43 -38 -52 -25 hvcurveto
            72 -26 -64 18 -47 hhcurveto
            -87 -34 -57 -23 -14 hvcurveto
            46 -18 -46 34 -49 hhcurveto
            -35 -19 -19 -35 -12 hvcurveto
            -9 -34 0 -60 1 -5 rrcurveto
            -13 3 14 0 6 hhcurveto
            16 0 3 24 59 5 52 35 28 9 -35 -9 2 hvcurveto
            4 -14 2 -16 -1 -14 rrcurveto
            -292 vlineto
            1 -9 -1 -3 96 callsubr
            -12 18 hhcurveto
            32 0 24 38 hvcurveto
            86 vlineto
            136 vlineto
            0 20 139 111 38 21 -25 -41 10 vhcurveto
            2 -8 5 -19 -30 vvcurveto
            -1 -251 1 -5 -1 -11 2 -5 rlinecurve
            -16 4 16 -12 17 hhcurveto
            32 0 24 38 hvcurveto
            86 vlineto
            65 vlineto
            65 vlineto
            1 9 11 62 35 39 rrcurveto
            15 15 28 20 41 hhcurveto
            146 callgsubr
            hvcurveto
            14 -58 -14 -113 -6 -51 -2 -18 -2 -16 4 -18 rrcurveto
            -46 12 43 -37 51 hhcurveto
            96 8 139 14 -4 hvcurveto
            return
          </CharString>
          <CharString index="64">
            583 -204 28 10 84 72 28 34 62 284 33 245 28 hstem
            524 164 rmoveto
            -13 48 -41 36 -22 19 -21 17 -33 27 -6 24 -5 21 16 24 19 25 50 67 10 76 -10 41 rrcurveto
            61 -16 -65 54 -102 hhcurveto
            -110 -70 -35 -140 8 hvcurveto
            6 -98 rlineto
            -71 hlineto
            -18 -12 60 callsubr
            11 0 17 hhcurveto
            66 hlineto
            22 -356 rlineto
            -131 8 -2 -87 -51 hhcurveto
            -16 -11 9 3 -3 hvcurveto
            30 8 2 26 -4 14 rrcurveto
            29 -7 -26 5 -11 hhcurveto
            -25 -21 -20 -37 9 hvcurveto
            -37 9 39 -28 41 hhcurveto
            62 28 65 17 6 hvcurveto
            20 57 -9 146 0 vvcurveto
            -27 449 rlineto
            85 -6 1 61 113 hhcurveto
            80 22 -67 -15 3 hvcurveto
            7 -25 -4 -68 -2 -11 -5 -43 -4 -6 -27 -32 -29 -33 -3 -26 10 -40 13 -51 28 -25 17 -15 35 -30 6 -22 2 -8 rrcurveto
            -25 6 -4 -116 -72 hhcurveto
            -14 -38 3 30 -24 hvcurveto
            25 9 -7 26 0 vvcurveto
            26 -6 -26 2 -3 hhcurveto
            -14 -24 -10 -38 10 hvcurveto
            -51 13 61 -25 54 hhcurveto
            106 59 98 76 -19 hvcurveto
            endchar
          </CharString>
          <CharString index="65">
            27 29 36 -9 hvcurveto
            return
          </CharString>
          <CharString index="66">
            -20 hstemhm
            hintmask 11100000
            -107 callsubr
            hintmask 00011000
            -28 callgsubr
            return
          </CharString>
          <CharString index="67">
            0 19 -4 hvcurveto
            return
          </CharString>
          <CharString index="68">
            -44 callgsubr
            -1 3 13 vvcurveto
            return
          </CharString>
          <CharString index="69">
            608 -89 callgsubr
            return
          </CharString>
          <CharString index="70">
            rmoveto
            35 -9 -31 11 -18 -57 callsubr
            7 28 -16 23 hhcurveto
            33 -42 callsubr
            return
          </CharString>
          <CharString index="71">
            hstemhm
            hintmask 11100000
            -104 callsubr
            hintmask 00010000
            return
          </CharString>
          <CharString index="72">
            3 -7 hhcurveto
            -5 -16 30 callsubr
            4 14 -1 5 hhcurveto
            32 -1 30 -6 8 -33 rrcurveto
            2 -9 return
          </CharString>
          <CharString index="73">
            755 97 callgsubr
            40 39 34 34 24 rrcurveto
            -1 68 8 -2 10 hhcurveto
            5 -26 callsubr
            -16 hhcurveto
            -50 -3 9 24 -8 hvcurveto
            -218 621 rlineto
            22 -8 -4 5 -18 hhcurveto
            -15 -7 -3 -18 -7 hvcurveto
            -201 -575 -26 -72 -37 -10 -31 -3 rlinecurve
            -12 -1 -10 -1 4 -17 rrcurveto
            -10 3 9 -4 6 8 6 3 68 65 24 -3 5 hhcurveto
            5 15 16 callgsubr
            -12 1 -6 hhcurveto
            -22 2 -18 8 -5 21 -5 16 15 40 9 27 17 45 -1 2 13 37 rrcurveto
            257 hlineto
            54 -155 7 -20 5 -22 -62 -1 rlinecurve
            -15 -12 -59 callgsubr
            -4 1 5 -10 13 hhcurveto
            30 33 2 1 31 hvcurveto
            -47 -33 -35 -39 2 -52 rrcurveto
            -46 1 49 -44 65 hhcurveto
            50 71 callgsubr
            -258 379 rmoveto
            -233 hlineto
            117 330 rlineto
            return
          </CharString>
          <CharString index="74">
            -13 0 -6 hhcurveto
            -14 -2 -1 -19 -1 hvcurveto
            1 -197 rlineto
            -13 -1 79 callgsubr
            -11 3 8 -2 7 hhcurveto
            8 1 3 9 5 hvcurveto
            32 57 return
          </CharString>
          <CharString index="75">
            538 -115 rmoveto
            2 12 -16 5 -4 -10 rrcurveto
            -36 -16 -28 173 callgsubr
            32 29 35 24 rrcurveto
            -4 12 13 -4 13 hhcurveto
            37 19 22 31 9 hvcurveto
            11 40 -2 60 0 vvcurveto
            21 callgsubr
            10 -19 15 -16 20 -13 -47 -33 -43 -46 2 -52 rrcurveto
            -46 2 48 -44 65 53 callsubr
            -201 248 61 callsubr
            return
          </CharString>
          <CharString index="76">
            hhcurveto
            -18 callsubr
            return
          </CharString>
          <CharString index="77">
            rmoveto
            46 callsubr
            22 -5 0 vvcurveto
            4 5 91 callgsubr
            167 hmoveto
            46 callsubr
            23 -5 0 vvcurveto
            4 4 91 callgsubr
            endchar
          </CharString>
          <CharString index="78">
            5 hvcurveto
            -50 callsubr
            return
          </CharString>
          <CharString index="79">
            53 callsubr
            2 12 -16 5 -4 -10 rrcurveto
            -36 -15 -29 -20 -32 hhcurveto
            -37 -52 23 46 return
          </CharString>
          <CharString index="80">
            hlineto
            -1 12 35 -2 12 hhcurveto
            7 -42 callgsubr
            return
          </CharString>
          <CharString index="81">
            -42 callgsubr
            -22 callgsubr
            return
          </CharString>
          <CharString index="82">
            74 callgsubr
            598 46 vstem
            690 342 rmoveto
            188 -155 153 -190 -192 -153 -153 -188 -189 155 -153 190 192 154 153 189 -1 vhcurveto
            -46 hmoveto
            -164 -133 -132 -166 -165 -134 132 164 163 132 132 167 164 134 -132 -163 1 vhcurveto
            return
          </CharString>
          <CharString index="83">
            556 -47 callgsubr
            return
          </CharString>
          <CharString index="84">
            527 rmoveto
            73 -18 -75 65 -101 hhcurveto
            -130 -79 -103 -83 21 hvcurveto
            -34 9 30 -33 41 hhcurveto
            45 36 37 47 -12 hvcurveto
            25 -6 -23 29 -12 hhcurveto
            -7 -7 -7 -7 2 hvcurveto
            0 1 -4 7 -8 vhcurveto
            8 -9 6 -9 3 -10 rrcurveto
            -33 8 -29 -23 -25 hhcurveto
            -19 -11 16 20 -5 hvcurveto
            73 -19 70 88 102 hhcurveto
            51 50 -27 -63 16 hvcurveto
            -19 5 33 -177 -172 hhcurveto
            -29 hlineto
            -16 -11 0 -20 5 hvcurveto
            -13 3 11 0 18 hhcurveto
            33 hlineto
            32 55 -12 -74 19 hvcurveto
            -92 23 -24 -133 -134 hhcurveto
            -48 -63 26 69 -21 hvcurveto
            44 4 -4 37 -2 9 rrcurveto
            16 -4 -16 17 -25 hhcurveto
            -45 4 -49 -27 7 hvcurveto
            -69 17 70 -61 93 hhcurveto
            129 116 95 127 -32 hvcurveto
            -21 81 -63 36 -29 13 92 34 41 88 -19 74 rrcurveto
            endchar
          </CharString>
          <CharString index="85">
            736 0 33 -30 30 279 30 308 181 callsubr
            hintmask 01011000
            647 532 rmoveto
            82 -21 -90 69 -121 hhcurveto
            -317 hlineto
            -17 -12 -76 callsubr
            1 hvcurveto
            1 -6 1 -9 -6 vvcurveto
            -535 vlineto
            -40 -3 39 callgsubr
            -1 -2 7 15 hvcurveto
            241 172 vlineto
            141 113 107 113 -29 hvcurveto
            -97 23 rmoveto
            8 -30 5 -84 -28 -40 rrcurveto
            -54 -38 -69 -5 -37 hhcurveto
            -141 273 hlineto
            35 6 0 31 vhcurveto
            104 hlineto
            74 67 -23 -72 18 hvcurveto
            endchar
          </CharString>
          <CharString index="86">
            27 callgsubr
            -8 hhcurveto
            return
          </CharString>
          <CharString index="87">
            -20 hstemhm
            hintmask 11000000
            -106 callsubr
            return
          </CharString>
          <CharString index="88">
            -367 7 callsubr
            return
          </CharString>
          <CharString index="89">
            -28 -8 32 12 -3 hvcurveto
            -2 return
          </CharString>
          <CharString index="90">
            65 rmoveto
            83 -21 -68 77 -97 hhcurveto
            -54 -38 -19 -24 -28 hvcurveto
            -1 193 rlineto
            -13 43 31 0 15 hhcurveto
            91 53 45 22 23 hvcurveto
            16 14 5 5 -3 10 rrcurveto
            8 -2 -6 5 -7 hhcurveto
            -4 -1 -1 -4 -7 hvcurveto
            -21 -52 -45 -6 -35 hhcurveto
            -45 -44 9 18 -43 hvcurveto
            5 -8 -2 0 -3 hhcurveto
            -9 0 -9 -10 hvcurveto
            -304 vlineto
            -4 -1 -7 1 -4 vhcurveto
            -5 2 6 -9 12 hhcurveto
            8 1 1 16 12 hvcurveto
            8 6 39 53 79 hhcurveto
            59 28 -57 -36 9 hvcurveto
            9 -37 5 -100 -19 -53 rrcurveto
            -76 -26 -58 -23 -41 hhcurveto
            -63 -54 45 66 -18 hvcurveto
            47 1 0 36 -3 15 rrcurveto
            24 -7 -20 11 -20 hhcurveto
            -53 11 -63 -23 6 hvcurveto
            -74 19 68 -68 95 hhcurveto
            136 109 130 150 -38 hvcurveto
            endchar
          </CharString>
          <CharString index="91">
            456 rmoveto
            20 -5 -19 24 -35 hhcurveto
            -24 -7 -7 -7 -7 hvcurveto
            -1 76 31 59 46 44 6 6 2 3 -1 135 callgsubr
            -100 43 callgsubr
            return
          </CharString>
          <CharString index="92">
            9 rmoveto
            10 -2 -14 8 -7 hhcurveto
            -7 -8 -3 -1 -6 hvcurveto
            -4 -23 -24 -1 -25 hhcurveto
            178 vlineto
            6 0 7 -2 6 vhcurveto
            18 -4 -18 10 -14 hhcurveto
            -33 -2 -27 -26 2 hvcurveto
            -161 vlineto
            0 -62 15 -39 4 vhcurveto
            -30 3 -47 1 0 vvcurveto
            106 84 95 128 -8 155 rrcurveto
            3 vlineto
            16 -5 -17 14 -16 hhcurveto
            -29 -6 -25 -28 2 hvcurveto
            -8 -146 -72 -138 -117 -69 -10 -6 -23 -4 5 -17 rrcurveto
            -8 2 9 -9 9 hhcurveto
            9 8 7 3 7 hvcurveto
            6 17 24 1 22 hhcurveto
            16 hlineto
            56 48 -14 -8 53 hvcurveto
            -122 vlineto
            -11 -1 -14 3 -13 vhcurveto
            -17 4 17 -13 16 hhcurveto
            27 6 21 23 hvcurveto
            -1 135 rlineto
            0 16 -1 8 43 54 7 17 -4 vhcurveto
            endchar
          </CharString>
          <CharString index="93">
            vhcurveto
            -66 callsubr
            return
          </CharString>
          <CharString index="94">
            -62 callsubr
            -4 hvcurveto
            return
          </CharString>
          <CharString index="95">
            806 0 29 callsubr
            -20 return
          </CharString>
          <CharString index="96">
            hstemhm
            hintmask 11100000
            -107 callsubr
            hintmask 00010000
            return
          </CharString>
          <CharString index="97">
            rmoveto
            -4 1 20 -70 -73 callsubr
            return
          </CharString>
          <CharString index="98">
            -24 callsubr
            152 callgsubr
            vstemhm
            -106 callgsubr
            return
          </CharString>
          <CharString index="99">
            1 0 1 0 vhcurveto
            -19 81 -32 78 -43 71 43 71 32 77 19 81 rrcurveto
            1 0 1 0 vhcurveto
            6 -4 4 -6 vhcurveto
            -2 hlineto
            -4 -4 -2 -4 -1 hvcurveto
            -30 -86 -48 -78 -64 -64 rrcurveto
            -2 -2 -1 -3 -2 vvcurveto
            -3 1 -3 2 -1 vhcurveto
            64 -65 48 -78 30 -85 rrcurveto
            -4 1 4 -3 4 hhcurveto
            2 hlineto
            6 4 4 6 hvcurveto
            return
          </CharString>
          <CharString index="100">
            hhcurveto
            -13 -10 -9 0 hvcurveto
            return
          </CharString>
          <CharString index="101">
            -8 2 8 -6 return
          </CharString>
          <CharString index="102">
            287 rmoveto
            122 -31 -72 62 -89 hhcurveto
            -135 -106 -130 -155 39 hvcurveto
            -58 15 63 -103 116 hhcurveto
            67 39 43 42 21 hvcurveto
            -247 3 -113 -48 -56 hhcurveto
            -21 -45 4 31 -22 hvcurveto
            42 6 -6 35 -2 8 rrcurveto
            20 -5 -16 13 -22 hhcurveto
            -31 -16 -22 -43 10 hvcurveto
            -62 16 66 -20 58 hhcurveto
            89 74 59 98 48 hvcurveto
            63 134 -32 176 -9 35 rrcurveto
            -85 -133 rmoveto
            -48 -15 -37 -53 -64 hhcurveto
            -61 -31 44 49 -12 hvcurveto
            -9 33 -8 125 23 60 rrcurveto
            19 8 31 62 74 hhcurveto
            52 34 -44 -53 14 hvcurveto
            0 26 -108 -25 -86 vhcurveto
            endchar
          </CharString>
          <CharString index="103">
            -91 callsubr
            endchar
          </CharString>
          <CharString index="104">
            478 272 rmoveto
            104 -26 -88 65 -91 hhcurveto
            -130 -104 -135 -147 37 hvcurveto
            24 -93 68 -56 73 -16 -39 -31 -31 -40 2 -44 75 callsubr
            -1 hvcurveto
            -2 145 callsubr
            18 15 rcurveline
            6 hlineto
            135 99 138 144 -36 hvcurveto
            -85 35 rmoveto
            8 -32 10 -97 -25 -68 rrcurveto
            -55 -18 -45 -37 -49 hhcurveto
            -39 -54 26 80 -20 hvcurveto
            -11 45 -3 94 19 55 rrcurveto
            72 25 54 23 34 hhcurveto
            49 47 -36 -70 18 hvcurveto
            return
          </CharString>
          <CharString index="105">
            hstem
            429 652 -103 callgsubr
            return
          </CharString>
          <CharString index="106">
            -39 -21 -35 -6 hvcurveto
            -7 vlineto
            -3 0 -2 1 -3 vhcurveto
            37 callgsubr
            return
          </CharString>
          <CharString index="107">
            -6 80 -120 rcurveline
            -12 8 67 callgsubr
            0 22 5 4 13 vhcurveto
            return
          </CharString>
          <CharString index="108">
            -44 callgsubr
            -2 3 13 vvcurveto
            return
          </CharString>
          <CharString index="109">
            19 rmoveto
            15 -4 -18 -1 -13 hhcurveto
            -55 -28 4 14 -4 hvcurveto
            -3 12 1 10 10 vvcurveto
            359 vlineto
            12 -1 -5 17 -12 hhcurveto
            -6 -4 -3 -3 -5 hvcurveto
            -27 -38 -56 -10 -52 hhcurveto
            -9 hlineto
            -12 -6 -7 -11 3 hvcurveto
            -10 3 8 -5 12 hhcurveto
            10 hlineto
            34 30 6 6 32 hvcurveto
            1 -305 rlineto
            -49 0 -20 -93 vhcurveto
            -11 hlineto
            -13 -11 -2 -17 4 hvcurveto
            hintmask 10000000
            77 callsubr
            hintmask 01000000
            26 58 3 55 hhcurveto
            hintmask 10000000
            57 66 -3 25 hhcurveto
            13 7 5 14 -3 hvcurveto
            endchar
          </CharString>
          <CharString index="110">
            628 rmoveto
            47 callgsubr
            6 19 -22 34 182 callsubr
            7 hvcurveto
            1 -36 -8 -75 -68 -66 -7 -8 -3 -2 2 82 callgsubr
            17 102 116 123 -31 hvcurveto
            196 hmoveto
            35 -9 -21 31 -40 hhcurveto
            -39 -20 -35 -32 8 hvcurveto
            -22 6 20 -22 33 hhcurveto
            25 7 8 6 6 hvcurveto
            1 -36 -7 -75 -69 -66 -7 -8 -2 -2 1 82 callgsubr
            18 102 116 123 -31 hvcurveto
            endchar
          </CharString>
          <CharString index="111">
            217 540 -92 callsubr
            return
          </CharString>
          <CharString index="112">
            7 callsubr
            endchar
          </CharString>
          <CharString index="113">
            8 11 18 -6 22 rrcurveto
            29 -7 -26 5 -11 hhcurveto
            -29 -16 -24 -31 7 hvcurveto
            return
          </CharString>
          <CharString index="114">
            124 -92 callsubr
            return
          </CharString>
          <CharString index="115">
            225 rmoveto
            66 -12 68 -42 50 vhcurveto
            44 -38 -60 18 -58 hhcurveto
            -60 -59 -18 -44 -38 hvcurveto
            -43 -50 -10 -68 -66 vvcurveto
            -66 10 -68 43 -50 vhcurveto
            -44 38 59 -18 60 hhcurveto
            58 60 18 44 38 hvcurveto
            42 50 12 68 66 vvcurveto
            -84 hmoveto
            -56 -4 -58 -28 -49 vhcurveto
            -34 -20 -36 -21 -38 hhcurveto
            -40 -35 21 34 -20 hvcurveto
            -28 49 -3 58 56 vvcurveto
            56 3 58 28 49 vhcurveto
            34 20 35 21 40 hhcurveto
            38 36 -21 -34 20 hvcurveto
            28 -49 4 -58 -56 vvcurveto
            endchar
          </CharString>
          <CharString index="116">
            -55 callsubr
            -50 callsubr
            return
          </CharString>
          <CharString index="117">
            500 21 callsubr
            return
          </CharString>
          <CharString index="118">
            143 rmoveto
            -81 callgsubr
            return
          </CharString>
          <CharString index="119">
            6 -8 hhcurveto
            -4 -4 76 callsubr
            -38 -45 -31 55 callsubr
            return
          </CharString>
          <CharString index="120">
            488 rmoveto
            32 -8 -37 145 -148 hhcurveto
            -86 -66 -52 -106 -34 hvcurveto
            -29 -94 3 -177 21 -82 rrcurveto
            -41 10 39 -134 144 hhcurveto
            99 62 71 87 26 hvcurveto
            29 98 -4 171 -21 82 rrcurveto
            -80 52 rmoveto
            20 -78 -2 -292 -20 -66 rrcurveto
            -78 -24 -50 -19 -35 hhcurveto
            -49 -46 34 65 -16 hvcurveto
            -23 89 8 243 3 30 rrcurveto
            40 3 9 129 110 hhcurveto
            43 51 -28 -69 18 hvcurveto
            endchar
          </CharString>
          <CharString index="121">
            -29 107 callsubr
            -22 -28 -30 return
          </CharString>
          <CharString index="122">
            -86 callgsubr
            hintmask 00100000
            return
          </CharString>
          <CharString index="123">
            rmoveto
            2 12 -15 5 -5 -10 rrcurveto
            -36 -15 -28 -20 -33 hhcurveto
            -36 -53 23 46 -1 hvcurveto
            return
          </CharString>
          <CharString index="124">
            -24 callsubr
            hstemhm
            -96 callgsubr
            return
          </CharString>
          <CharString index="125">
            0 19 -5 hvcurveto
            14 -3 -12 0 return
          </CharString>
          <CharString index="126">
            -68 callgsubr
            2 hvcurveto
            1 -5 return
          </CharString>
          <CharString index="127">
            33 304 33 277 33 return
          </CharString>
          <CharString index="128">
            -10 23 callgsubr
            return
          </CharString>
          <CharString index="129">
            806 -21 115 callgsubr
            return
          </CharString>
          <CharString index="130">
            rmoveto
            115 callsubr
            return
          </CharString>
          <CharString index="131">
            hvcurveto
            -754 402 rmoveto
            hintmask 10101000
            -119 30 -52 -129 -65 hhcurveto
            -39 -23 48 32 -8 hvcurveto
            68 -17 0 199 92 hhcurveto
            37 31 -42 -57 14 hvcurveto
            425 -402 52 callsubr
            hintmask 01000000
            69 -18 1 199 91 hhcurveto
            47 27 -64 -34 9 hvcurveto
            endchar
          </CharString>
          <CharString index="132">
            rmoveto
            31 -8 33 callsubr
            return
          </CharString>
          <CharString index="133">
            -2 2 -4 1 -5 rrcurveto
            return
          </CharString>
          <CharString index="134">
            -22 callgsubr
            -18 hhcurveto
            -32 -28 150 callsubr
            22 vlineto
            536 vlineto
            34 3 9 69 21 11 0 19 -5 vhcurveto
            0 -4 14 -15 -12 -33 -2 -1 -12 vhcurveto
            -64 hlineto
            -93 -26 3 -7 hhcurveto
            -7 -13 -3 callgsubr
            19 hhcurveto
            26 34 0 -15 4 hvcurveto
            -18 vlineto
            -540 vlineto
            -37 return
          </CharString>
          <CharString index="135">
            67 callsubr
            -15 -17 -13 -4 hvcurveto
            -3 -13 return
          </CharString>
          <CharString index="136">
            87 callsubr
            450 return
          </CharString>
          <CharString index="137">
            -59 callgsubr
            -13 return
          </CharString>
          <CharString index="138">
            500 -204 28 176 28 385 28 return
          </CharString>
          <CharString index="139">
            -117 30 -51 -132 -67 hhcurveto
            -49 -19 74 5 -1 hvcurveto
            return
          </CharString>
          <CharString index="140">
            -29 10 -16 hhcurveto
            return
          </CharString>
          <CharString index="141">
            528 -204 28 38 82 46 -43 callgsubr
            return
          </CharString>
          <CharString index="142">
            28 -7 33 295 28 294 33 return
          </CharString>
          <CharString index="143">
            rmoveto
            67 -17 -47 64 -63 hhcurveto
            -99 69 callgsubr
            98 56 147 125 -32 hvcurveto
            return
          </CharString>
          <CharString index="144">
            -6 rrcurveto
            26 callgsubr
            return
          </CharString>
          <CharString index="145">
            hhcurveto
            134 85 129 124 -32 hvcurveto
            return
          </CharString>
          <CharString index="146">
            -3 14 rlineto
            14 -3 122 callsubr
            return
          </CharString>
          <CharString index="147">
            -15 -79 callsubr
            return
          </CharString>
          <CharString index="148">
            hhcurveto
            -5 -15 -59 callgsubr
            return
          </CharString>
          <CharString index="149">
            -200 111 return
          </CharString>
          <CharString index="150">
            -9 callgsubr
            -18 hhcurveto
            return
          </CharString>
          <CharString index="151">
            rmoveto
            6 callgsubr
            return
          </CharString>
          <CharString index="152">
            806 107 callgsubr
            return
          </CharString>
          <CharString index="153">
            13 -3 -16 17 -21 85 callsubr
            -5 hvcurveto
            -57 -135 rlineto
            -5 -11 2 -6 0 vvcurveto
            3 -13 return
          </CharString>
          <CharString index="154">
            rmoveto
            4 0 5 66 callgsubr
            16 -11 15 return
          </CharString>
          <CharString index="155">
            hlineto
            23 102 callgsubr
            return
          </CharString>
          <CharString index="156">
            81 184 callsubr
            hstemhm
            return
          </CharString>
          <CharString index="157">
            -11 2 -6 0 vvcurveto
            3 -13 23 -5 0 vvcurveto
            4 4 135 callsubr
            return
          </CharString>
          <CharString index="158">
            hlineto
            -17 -12 0 -18 4 146 callsubr
            20 hhcurveto
            31 24 0 -16 5 hvcurveto
            -22 vlineto
            -533 vlineto
            -34 -3 -55 callsubr
            -24 callgsubr
            return
          </CharString>
          <CharString index="159">
            rmoveto
            32 callsubr
            return
          </CharString>
          <CharString index="160">
            hhcurveto
            51 71 callgsubr
            return
          </CharString>
          <CharString index="161">
            840 -21 63 callsubr
            return
          </CharString>
          <CharString index="162">
            hhcurveto
            -11 -7 3 20 -18 hvcurveto
            25 return
          </CharString>
          <CharString index="163">
            -36 vhcurveto
            -93 24 69 -64 76 hhcurveto
            117 89 142 149 -38 hvcurveto
            -83 -162 rmoveto
            -66 -15 -39 -35 -37 hhcurveto
            -48 -32 50 48 -12 hvcurveto
            -10 39 0 43 return
          </CharString>
          <CharString index="164">
            39 32 -35 hvcurveto
            16 -19 -22 21 -39 hhcurveto
            -95 -72 -131 89 callgsubr
            -91 23 return
          </CharString>
          <CharString index="165">
            rmoveto
            8 -2 -8 return
          </CharString>
          <CharString index="166">
            hstem
            749 250 rmoveto
            23 -6 -26 0 -14 hhcurveto
            -586 hlineto
            -15 -24 114 callgsubr
            5 21 0 14 hhcurveto
            595 hlineto
            14 22 0 23 -6 hvcurveto
            return
          </CharString>
          <CharString index="167">
            -60 callgsubr
            4 return
          </CharString>
          <CharString index="168">
            rmoveto
            -35 1 -47 -80 -59 hhcurveto
            -48 -28 51 40 -10 hvcurveto
            -12 47 -1 118 14 46 rrcurveto
            73 22 40 20 28 hhcurveto
            64 32 -85 -10 3 hvcurveto
            -14 vlineto
            return
          </CharString>
          <CharString index="169">
            928 vlineto
            14 0 22 -23 -23 0 -22 -14 vhcurveto
            -928 vlineto
            -14 0 -22 23 return
          </CharString>
          <CharString index="170">
            33 231 33 395 33 return
          </CharString>
          <CharString index="171">
            -13 0 -19 170 callgsubr
            return
          </CharString>
          <CharString index="172">
            -15 4 10 0 return
          </CharString>
          <CharString index="173">
            -19 2 -15 4 -24 7 rrcurveto
            6 -22 -27 6 -18 hhcurveto
            -41 0 -37 0 -8 4 -30 37 15 25 4 8 24 hvcurveto
            26 7 19 4 16 2 -1 return
          </CharString>
          <CharString index="174">
            12 -20 hhcurveto
            -21 return
          </CharString>
          <CharString index="175">
            23 callsubr
            -15 hhcurveto
            -144 88 callsubr
            -22 -29 callsubr
            144 hlineto
            18 14 0 22 -6 hvcurveto
            endchar
          </CharString>
          <CharString index="176">
            137 callsubr
            29 17 24 31 -8 hvcurveto
            return
          </CharString>
          <CharString index="177" raw="1">
            7f3c0a0b   
          </CharString>
          <CharString index="178">
            hhcurveto
            -16 0 -4 return
          </CharString>
          <CharString index="179">
            101 callsubr
            209 45 hstem
            75 70 vstem
            421 281 rmoveto
            108 -27 -80 52 -67 hhcurveto
            -47 -31 -27 -24 -24 hvcurveto
            return
          </CharString>
          <CharString index="180">
            143 rmoveto
            13 -3 131 callsubr
            -16 return
          </CharString>
          <CharString index="181">
            hvcurveto
            -6 23 3 21 2 20 return
          </CharString>
          <CharString index="182">
            rrcurveto
            -46 2 49 -44 64 -28 callsubr
            return
          </CharString>
          <CharString index="183">
            -2 -9 -7 hvcurveto
            -11 -10 return
          </CharString>
          <CharString index="184">
            -6 callsubr
            7 hhcurveto
            return
          </CharString>
          <CharString index="185">
            135 rlineto
            11 -4 return
          </CharString>
          <CharString index="186">
            hvcurveto
            14 -3 -13 0 -13 hhcurveto
            -28 -21 0 14 -4 hvcurveto
            -1 5 0 27 16 vvcurveto
            145 vlineto
            -38 32 37 -18 38 hhcurveto
            return
          </CharString>
          <CharString index="187">
            hvcurveto
            3 26 callsubr
            return
          </CharString>
          <CharString index="188">
            hhcurveto
            146 58 96 14 -4 hvcurveto
            return
          </CharString>
          <CharString index="189">
            33 617 33 return
          </CharString>
          <CharString index="190">
            177 callgsubr
            3 hvcurveto
            2 -6 0 -2 -14 vvcurveto
            return
          </CharString>
          <CharString index="191">
            166 callgsubr
            617 33 return
          </CharString>
          <CharString index="192">
            hhcurveto
            -20 -5 -12 -11 return
          </CharString>
          <CharString index="193">
            -9 callgsubr
            -19 -57 callsubr
            7 28 12 callgsubr
            endchar
          </CharString>
          <CharString index="194">
            33 198 33 return
          </CharString>
          <CharString index="195">
            hlineto
            -18 -12 0 return
          </CharString>
          <CharString index="196">
            hstemhm
            166 84 return
          </CharString>
          <CharString index="197">
            806 -200 111 89 29 callsubr
            -20 return
          </CharString>
          <CharString index="198">
            33 306 33 278 181 callsubr
            304 84 return
          </CharString>
          <CharString index="199">
            -24 150 callsubr
            return
          </CharString>
          <CharString index="200">
            -14 3 13 0 return
          </CharString>
          <CharString index="201">
            -24 callsubr
            209 45 return
          </CharString>
          <CharString index="202">
            84 callsubr
            hstemhm
            return
          </CharString>
          <CharString index="203">
            1 -3 rrcurveto
            -16 4 16 return
          </CharString>
          <CharString index="204">
            389 111 194 -20 hstem
            return
          </CharString>
          <CharString index="205">
            28 50 81 151 72 41 28 return
          </CharString>
          <CharString index="206">
            778 -21 33 659 33 return
          </CharString>
          <CharString index="207">
            151 callsubr
            194 -20 return
          </CharString>
          <CharString index="208">
            500 -47 callgsubr
            return
          </CharString>
          <CharString index="209" raw="1">
            1b909a8b 9e0b  
          </CharString>
          <CharString index="210">
            -5 0 -11 -6 return
          </CharString>
          <CharString index="211">
            563 224 rmoveto
            84 -68 68 -84 -84 -68 -68 -84 -84 68 -68 84 84 68 68 84 vhcurveto
            return
          </CharString>
          <CharString index="212">
            792 -21 35 callsubr
            return
          </CharString>
          <CharString index="213">
            444 -10 69 30 69 214 69 return
          </CharString>
          <CharString index="214">
            10 -16 hhcurveto
            -32 return
          </CharString>
          <CharString index="215">
            hlineto
            -3 -3 0 -1 -2 hvcurveto
            -15 -4 2 -28 4 -14 rrcurveto
            -11 3 9 -5 12 hhcurveto
            return
          </CharString>
          <CharString index="216">
            833 159 callgsubr
            33 661 31 return
          </CharString>
          <CharString index="217">
            24 callgsubr
            63 82 callsubr
            return
          </CharString>
          <CharString index="218">
            hlineto
            -3 -3 0 -1 -3 hvcurveto
            return
          </CharString>
          <CharString index="219">
            hvcurveto
            1 103 callsubr
            vvcurveto
            return
          </CharString>
          <CharString index="220">
            667 0 36 614 33 return
          </CharString>
          <CharString index="221">
            -9 -1 -3 1 -3 return
          </CharString>
          <CharString index="222">
            14 -4 -14 0 return
          </CharString>
          <CharString index="223">
            -20 5 18 -14 22 hhcurveto
            26 18 23 26 -7 hvcurveto
            -6 23 -17 9 -18 2 return
          </CharString>
          <CharString index="224">
            rmoveto
            8 -5 30 -37 -15 -25 -4 -8 -24 vhcurveto
            -27 -7 -18 -4 -16 -2 1 return
          </CharString>
          <CharString index="225">
            11 12 vvcurveto
            574 vlineto
            15 vlineto
            return
          </CharString>
          <CharString index="226">
            1 4 -6 hvcurveto
            -168 91 rlineto
            return
          </CharString>
          <CharString index="227">
            30 210 28 392 26 hstem
            return
          </CharString>
          <CharString index="228">
            4 rrcurveto
            11 13 19 7 return
          </CharString>
          <CharString index="229">
            -14 0 -15 hhcurveto
            return
          </CharString>
          <CharString index="230">
            958 0 33 279 33 305 33 return
          </CharString>
          <CharString index="231">
            -79 callsubr
            16 hhcurveto
            return
          </CharString>
          <CharString index="232">
            -21 193 -20 hstem
            return
          </CharString>
          <CharString index="233">
            184 callsubr
            hstem
            return
          </CharString>
          <CharString index="234">
            13 -8 13 hhcurveto
            return
          </CharString>
          <CharString index="235">
            -173 -21 178 33 -17 33 2 33 597 -20 hstemhm
            hintmask 00100000
            return
          </CharString>
          <CharString index="236">
            hlineto
            -4 -4 -3 -5 -1 hvcurveto
            -3 -10 rlineto
            -6 -2 5 -6 7 hhcurveto
            return
          </CharString>
          <CharString index="237">
            -28 -38 10 hvcurveto
            -30 7 26 -15 25 hhcurveto
            32 28 29 37 -9 hvcurveto
            return
          </CharString>
          <CharString index="238">
            -14 0 -5 hhcurveto
            return
          </CharString>
          <CharString index="239">
            2 10 22 7 11 50 74 rcurveline
            10 15 19 18 -5 21 rrcurveto
            return
          </CharString>
          <CharString index="240">
            hlineto
            23 -1 28 19 -4 hvcurveto
            211 vmoveto
            11 -3 -11 6 -16 return
          </CharString>
          <CharString index="241">
            0 31 vhcurveto
            117 hlineto
            98 96 -57 -127 32 hvcurveto
            endchar
          </CharString>
          <CharString index="242">
            0 12 8 hvcurveto
            80 120 4 6 return
          </CharString>
          <CharString index="243">
            -24 callsubr
            71 42 return
          </CharString>
          <CharString index="244">
            rrcurveto
            -29 7 26 -5 11 hhcurveto
            return
          </CharString>
          <CharString index="245">
            24 callgsubr
            42 return
          </CharString>
          <CharString index="246">
            -15 -59 callgsubr
            3 -13 return
          </CharString>
          <CharString index="247">
            583 -10 191 callgsubr
            return
          </CharString>
          <CharString index="248">
            81 -21 163 -20 hstemhm
            return
          </CharString>
          <CharString index="249">
            82 -21 193 -20 hstemhm
            return
          </CharString>
          <CharString index="250">
            114 callgsubr
            6 return
          </CharString>
          <CharString index="251">
            42 callsubr
            79 28 return
          </CharString>
          <CharString index="252">
            28 16 23 21 19 return
          </CharString>
          <CharString index="253">
            hvcurveto
            65 callsubr
            return
          </CharString>
          <CharString index="254">
            -6 rrcurveto
            -8 2 return
          </CharString>
          <CharString index="255">
            42 callsubr
            79 165 callgsubr
            hstemhm
            hintmask 01110000
            return
          </CharString>
          <CharString index="256">
            -1 1 -5 rlinecurve
            -12 3 13 -11 13 hhcurveto
            14 2 8 12 return
          </CharString>
          <CharString index="257">
            0 16 -6 hvcurveto
            return
          </CharString>
          <CharString index="258">
            28 380 33 return
          </CharString>
          <CharString index="259">
            -19 73 -54 -21 269 28 167 28 hstemhm
            hintmask 10110000
            return
          </CharString>
          <CharString index="260">
            hhcurveto
            -43 -16 -38 -29 7 hvcurveto
            -20 5 19 -24 35 hhcurveto
            return
          </CharString>
          <CharString index="261">
            -31 callsubr
            6 -2 11 12 vvcurveto
            return
          </CharString>
          <CharString index="262">
            49 callsubr
            hintmask 11100000
            return
          </CharString>
          <CharString index="263">
            33 610 33 hstemhm
            346 84 return
          </CharString>
          <CharString index="264">
            -21 33 662 30 return
          </CharString>
          <CharString index="265">
            -3 vlineto
            2 -6 5 return
          </CharString>
          <CharString index="266">
            162 callgsubr
            -14 return
          </CharString>
          <CharString index="267">
            hvcurveto
            -16 14 20 -22 return
          </CharString>
          <CharString index="268">
            9 7 7 9 return
          </CharString>
          <CharString index="269">
            -6 vhcurveto
            -30 -22 return
          </CharString>
          <CharString index="270">
            111 callgsubr
            hstemhm
            return
          </CharString>
          <CharString index="271">
            -8 hlineto
            -17 -12 -59 callgsubr
            0 3 -14 16 return
          </CharString>
          <CharString index="272">
            -1 -11 -1 4 -17 rrcurveto
            return
          </CharString>
          <CharString index="273">
            12 -3 -11 0 -8 hhcurveto
            return
          </CharString>
          <CharString index="274">
            79 callgsubr
            -14 4 return
          </CharString>
          <CharString index="275">
            hstemhm
            168 80 return
          </CharString>
          <CharString index="276">
            hvcurveto
            4 -15 0 return
          </CharString>
          <CharString index="277">
            -21 163 98 callgsubr
            return
          </CharString>
          <CharString index="278">
            46 306 -20 hstem
            394 46 vstem
            748 return
          </CharString>
          <CharString index="279">
            -21 74 1 28 254 28 273 28 hstem
            return
          </CharString>
          <CharString index="280">
            3 -9 41 callsubr
            -14 3 return
          </CharString>
          <CharString index="281">
            5 hvcurveto
            -4 1 5 -10 13 36 39 3 37 return
          </CharString>
          <CharString index="282">
            611 157 callsubr
            return
          </CharString>
          <CharString index="283">
            -14 0 -5 71 callsubr
            return
          </CharString>
          <CharString index="284">
            hvcurveto
            23 vlineto
            532 vlineto
            38 return
          </CharString>
          <CharString index="285">
            722 -47 callgsubr
            return
          </CharString>
          <CharString index="286">
            0 3 hhcurveto
            17 1 return
          </CharString>
          <CharString index="287">
            -158 495 -6 return
          </CharString>
          <CharString index="288">
            33 89 callsubr
            return
          </CharString>
          <CharString index="289">
            hhcurveto
            24 7 8 6 return
          </CharString>
          <CharString index="290">
            -28 -38 9 hvcurveto
            return
          </CharString>
          <CharString index="291">
            -21 195 -20 return
          </CharString>
          <CharString index="292">
            113 callgsubr
            278 33 return
          </CharString>
          <CharString index="293">
            vlineto
            -14 0 -22 23 23 0 22 14 vhcurveto
            return
          </CharString>
          <CharString index="294">
            vlineto
            16 0 33 -35 -35 0 -33 -16 vhcurveto
            return
          </CharString>
          <CharString index="295">
            837 -43 -21 628 -20 hstem
            747 return
          </CharString>
          <CharString index="296">
            -43 callgsubr
            209 45 hstemhm
            75 70 return
          </CharString>
          <CharString index="297">
            100 callsubr
            hstemhm
            103 70 return
          </CharString>
          <CharString index="298">
            102 111 hstemhm
            return
          </CharString>
          <CharString index="299">
            -37 52 hhcurveto
            96 return
          </CharString>
        <CharString name=".notdef">
          280 endchar
        </CharString>
        <CharString name="A">
          -12 callsubr
          hstem
          -107 callsubr
          endchar
        </CharString>
        <CharString name="AE">
          123 callsubr
          hstem
          -80 callgsubr
          endchar
        </CharString>
        <CharString name="AE.dup">
          123 callsubr
          hstem
          -80 callgsubr
          endchar
        </CharString>
        <CharString name="AEacute">
          123 callsubr
          82 -21 163 -20 hstemhm
          hintmask 11100000
          -80 callgsubr
          hintmask 00011000
          185 264 -102 callgsubr
        </CharString>
        <CharString name="Aacute">
          -12 callsubr
          71 -21 163 -20 hstemhm
          hintmask 11100000
          -107 callsubr
          hintmask 00011000
          171 276 -102 callgsubr
        </CharString>
        <CharString name="Abreve">
          -12 callsubr
          50 42 133 -41 callsubr
          endchar
        </CharString>
        <CharString name="Abreveacute">
          -12 callsubr
          50 42 316 -41 callsubr
          -40 160 rmoveto
          21 -1 -18 16 -21 -7 callsubr
          -150 -114 -3 -2 -8 -7 1 -7 rlinecurve
          -6 9 -16 12 -2 vhcurveto
          167 callgsubr
          167 91 rlineto
          20 10 1 11 9 vvcurveto
          endchar
        </CharString>
        <CharString name="Abrevedotbelow">
          90 callsubr
          50 151 callgsubr
          hstemhm
          hintmask 01111100
          -107 callsubr
          -28 callgsubr
          hintmask 10000000
          -96 -1040 rmoveto
          86 callsubr
        </CharString>
        <CharString name="Abrevegrave">
          -12 callsubr
          50 42 133 -41 callsubr
          -41 58 rmoveto
          -6 -9 -16 -12 -2 vhcurveto
          -4 -3 119 callsubr
          -20 10 -1 11 9 vvcurveto
          21 2 17 16 20 hhcurveto
          13 11 -9 0 hvcurveto
          150 -114 3 -2 9 -7 -2 -7 rlinecurve
          endchar
        </CharString>
        <CharString name="Abrevehookabove">
          -12 callsubr
          50 42 338 -41 callsubr
          -54 150 47 callsubr
          -15 9 rrcurveto
          13 -23 -24 3 -28 hhcurveto
          -44 -39 -21 -35 -5 hvcurveto
          -1 -7 rlineto
          -3 1 -2 -3 vvcurveto
          37 callgsubr
          -1 5 0 vvcurveto
          -3 9 -5 7 -9 121 callsubr
          23 hhcurveto
          1 hlineto
          19 13 -3 -7 8 hvcurveto
          2 -1 callgsubr
          1 -3 1 -6 6 -5 5 -1 rlinecurve
          55 callgsubr
          1 27 24 21 38 19 rlinecurve
          18 96 callgsubr
        </CharString>
        <CharString name="Abrevetilde">
          -12 callsubr
          50 42 173 41 26 41 hstemhm
          hintmask 11100000
          -107 callsubr
          hintmask 00011100
          -28 callgsubr
          15 148 rmoveto
          8 -2 -8 12 callsubr
          -22 -18 19 -31 hhcurveto
          -27 -26 -21 -20 -20 hvcurveto
          -17 -16 -26 -26 2 117 callgsubr
          32 hhcurveto
          12 7 -3 -26 23 160 callsubr
          31 hhcurveto
          31 30 27 14 12 hvcurveto
          18 17 26 25 -2 11 rrcurveto
          endchar
        </CharString>
        <CharString name="Acaron">
          -12 callsubr
          hstemhm
          -107 callsubr
          160 240 -75 callsubr
        </CharString>
        <CharString name="Acircumflex">
          -12 callsubr
          hstemhm
          -107 callsubr
          159 159 rmoveto
          -94 callgsubr
          endchar
        </CharString>
        <CharString name="Acircumflexacute">
          -12 callsubr
          342 -20 -11 callsubr
          159 159 -21 callgsubr
        </CharString>
        <CharString name="Acircumflexdotbelow">
          90 callsubr
          hstemhm
          hintmask 01110000
          -107 callsubr
          159 159 rmoveto
          -94 callgsubr
          hintmask 10000000
          -82 -888 rmoveto
          86 callsubr
        </CharString>
        <CharString name="Acircumflexgrave">
          -12 callsubr
          hstemhm
          -107 callsubr
          159 159 -46 callgsubr
        </CharString>
        <CharString name="Acircumflexhookabove">
          -12 callsubr
          364 -20 -11 callsubr
          159 159 -74 callgsubr
        </CharString>
        <CharString name="Acircumflextilde">
          -12 callsubr
          199 41 26 41 hstemhm
          hintmask 11100000
          -107 callsubr
          hintmask 00011000
          159 159 -61 callgsubr
        </CharString>
        <CharString name="Adblgrave">
          -12 callsubr
          71 -21 193 -20 hstemhm
          hintmask 11100000
          -107 callsubr
          hintmask 00011000
          124 168 -78 callgsubr
        </CharString>
        <CharString name="Adieresis">
          -12 callsubr
          40 100 -11 callsubr
          -39 199 -75 callgsubr
        </CharString>
        <CharString name="Adotbelow">
          90 callsubr
          hstemhm
          hintmask 01110000
          -107 callsubr
          hintmask 10000000
          77 -729 rmoveto
          86 callsubr
        </CharString>
        <CharString name="Agrave">
          -12 callsubr
          71 -21 163 -20 hstemhm
          hintmask 11100000
          -107 callsubr
          hintmask 00011000
          96 174 -79 callgsubr
        </CharString>
        <CharString name="Ahookabove">
          -12 callsubr
          83 -21 205 -20 hstemhm
          hintmask 11100000
          -107 callsubr
          hintmask 00011000
          119 298 -95 callsubr
        </CharString>
        <CharString name="Alpha">
          -12 callsubr
          hstem
          -107 callsubr
          endchar
        </CharString>
        <CharString name="Amacron">
          -12 callsubr
          60 36 -11 callsubr
          202 182 -87 callgsubr
        </CharString>
        <CharString name="Aogonek">
          806 -211 47 164 87 callsubr
          hstem
          -34 callsubr
          endchar
        </CharString>
        <CharString name="Aogonekacute">
          806 -211 47 164 87 callsubr
          501 -21 163 -20 hstemhm
          hintmask 11100000
          -34 callsubr
          hintmask 00011000
          171 276 -102 callgsubr
        </CharString>
        <CharString name="Aring">
          806 0 29 callsubr
          35 106 35 hstemhm
          hintmask 11100000
          -107 callsubr
          hintmask 00110000
          78 229 -10 callsubr
          endchar
        </CharString>
        <CharString name="Aringacute">
          806 0 29 callsubr
          35 106 35 183 -20 hstemhm
          hintmask 11100000
          -107 callsubr
          hintmask 00111000
          78 229 -52 callsubr
        </CharString>
        <CharString name="Atilde">
          -12 callsubr
          40 41 26 41 hstemhm
          hintmask 11100000
          -107 callsubr
          hintmask 00011000
          189 234 -105 callsubr
        </CharString>
        <CharString name="B">
          764 0 33 308 28 281 33 hstem
          170 76 vstem
          675 217 rmoveto
          -19 74 -75 56 -92 10 99 20 83 75 -23 93 rrcurveto
          79 -20 -88 59 -111 hhcurveto
          -328 hlineto
          -18 -49 callgsubr
          0 -2 -14 vvcurveto
          -537 73 callgsubr
          350 hlineto
          149 95 114 103 -26 hvcurveto
          -115 330 rmoveto
          -81 21 -62 -97 -123 hhcurveto
          -150 246 hlineto
          93 callgsubr
          138 hlineto
          109 25 -91 -12 3 hvcurveto
          23 -321 rmoveto
          -99 25 -70 -94 -113 hhcurveto
          -147 1 callsubr
          279 192 vlineto
          111 30 -100 -15 4 hvcurveto
          endchar
        </CharString>
        <CharString name="Beta">
          764 0 33 308 28 281 33 hstem
          170 76 vstem
          675 217 rmoveto
          -19 74 -75 56 -92 10 99 20 83 75 -23 93 rrcurveto
          79 -20 -88 59 -111 hhcurveto
          -328 hlineto
          -18 -49 callgsubr
          0 -2 -14 vvcurveto
          -537 73 callgsubr
          350 hlineto
          149 95 114 103 -26 hvcurveto
          -115 330 rmoveto
          -81 21 -62 -97 -123 hhcurveto
          -150 246 hlineto
          93 callgsubr
          138 hlineto
          109 25 -91 -12 3 hvcurveto
          23 -321 rmoveto
          -99 25 -70 -94 -113 hhcurveto
          -147 1 callsubr
          279 192 vlineto
          111 30 -100 -15 4 hvcurveto
          endchar
        </CharString>
        <CharString name="C">
          99 callsubr
          hstem
          -76 callgsubr
          -169 43 145 -104 150 hhcurveto
          32 callgsubr
          endchar
        </CharString>
        <CharString name="Cacute">
          99 callsubr
          61 -21 163 -20 hstemhm
          hintmask 11000000
          -76 callgsubr
          -169 43 145 -104 150 hhcurveto
          32 callgsubr
          hintmask 00110000
          -116 630 -102 callgsubr
        </CharString>
        <CharString name="Ccaron">
          99 callsubr
          hstemhm
          -76 callgsubr
          -169 43 145 -104 150 hhcurveto
          32 callgsubr
          -127 594 -75 callsubr
        </CharString>
        <CharString name="Ccedilla">
          99 callsubr
          hstem
          -76 callgsubr
          35 -138 104 -95 118 -30 rrcurveto
          -45 -50 callgsubr
          -10 39 -45 15 -24 4 rrcurveto
          25 6 vlineto
          32 callgsubr
          endchar
        </CharString>
        <CharString name="Ccircumflex">
          99 callsubr
          hstemhm
          -76 callgsubr
          -169 43 145 -104 150 hhcurveto
          32 callgsubr
          -128 513 rmoveto
          -94 callgsubr
          endchar
        </CharString>
        <CharString name="Cdotaccent">
          99 callsubr
          52 111 hstemhm
          hintmask 11000000
          -76 callgsubr
          -169 43 145 -104 150 hhcurveto
          32 callgsubr
          hintmask 00100000
          -211 581 -37 callsubr
          endchar
        </CharString>
        <CharString name="Chi">
          -48 callgsubr
        </CharString>
        <CharString name="D">
          819 107 callgsubr
          hstem
          168 80 vstem
          59 callgsubr
          -6 0 -2 -14 vvcurveto
          -537 73 callgsubr
          323 hlineto
          201 151 206 226 -57 hvcurveto
          -93 34 rmoveto
          15 -57 11 -149 -40 -92 rrcurveto
          -81 -35 -77 -54 -100 hhcurveto
          -124 1 callsubr
          553 vlineto
          35 8 134 callsubr
        </CharString>
        <CharString name="Dcaron">
          819 107 callgsubr
          168 callsubr
          vstemhm
          59 callgsubr
          -6 0 -2 -14 vvcurveto
          -537 73 callgsubr
          323 hlineto
          201 151 206 226 -57 hvcurveto
          -93 34 rmoveto
          15 -57 11 -149 -40 -92 rrcurveto
          -81 -35 -77 -54 -100 hhcurveto
          -124 1 callsubr
          553 vlineto
          93 callgsubr
          117 hlineto
          98 96 -57 -127 32 hvcurveto
          -147 368 -75 callsubr
        </CharString>
        <CharString name="Dcroat">
          819 0 33 293 32 292 147 callgsubr
          vstem
          59 callgsubr
          -22 rlineto
          -255 -96 vlineto
          -8 -8 -7 -9 hvcurveto
          -9 -1 9 -7 8 hhcurveto
          94 -250 hlineto
          -34 -2 9 callsubr
          323 hlineto
          201 151 206 226 -57 hvcurveto
          -93 34 rmoveto
          15 -57 11 -149 -40 -92 rrcurveto
          -81 -35 -77 -54 -100 hhcurveto
          -124 hlineto
          -9 -10 0 2 -11 hvcurveto
          27 vlineto
          264 160 vlineto
          161 callsubr
          9 -7 7 -9 hvcurveto
          -160 257 hlineto
          35 6 134 callsubr
        </CharString>
        <CharString name="Ddotbelow">
          819 95 callsubr
          168 80 hintmask 01110000
          59 callgsubr
          -6 0 -2 -14 vvcurveto
          -537 73 callgsubr
          323 hlineto
          201 151 206 226 -57 hvcurveto
          -93 34 rmoveto
          15 -57 11 -149 -40 -92 rrcurveto
          -81 -35 -77 -54 -100 hhcurveto
          -124 1 callsubr
          553 vlineto
          93 callgsubr
          117 hlineto
          98 96 -57 -127 32 hvcurveto
          hintmask 10000000
          -230 -601 rmoveto
          86 callsubr
        </CharString>
        <CharString name="Delta">
          889 0 71 643 -20 hstem
          811 12 rmoveto
          0 -1 4 -4 9 vhcurveto
          -328 664 rlineto
          20 -10 -6 5 -19 hhcurveto
          -12 -10 -1 -17 -8 hvcurveto
          -332 -674 rlineto
          -6 -10 1 -4 0 vvcurveto
          -8 2 6 0 16 hhcurveto
          688 hlineto
          14 12 0 12 -3 hvcurveto
          -120 59 rmoveto
          -544 hlineto
          272 550 rlineto
          endchar
        </CharString>
        <CharString name="Dlinebelow">
          819 -162 36 126 82 callsubr
          168 callsubr
          hintmask 01110000
          59 callgsubr
          -6 0 -2 -14 vvcurveto
          -537 73 callgsubr
          323 hlineto
          201 151 206 226 -57 hvcurveto
          -93 34 rmoveto
          15 -57 11 -149 -40 -92 rrcurveto
          -81 -35 -77 -54 -100 hhcurveto
          -124 1 callsubr
          553 vlineto
          93 callgsubr
          117 hlineto
          98 96 -57 -127 32 hvcurveto
          hintmask 10000000
          -105 -606 -87 callgsubr
        </CharString>
        <CharString name="E">
          14 callgsubr
          hstem
          167 84 vstem
          -107 callgsubr
          509 -53 callsubr
          endchar
        </CharString>
        <CharString name="Eacute">
          14 callgsubr
          85 -21 163 -20 128 callgsubr
          hintmask 11100100
          -107 callgsubr
          509 -53 callsubr
          hintmask 00011000
          -162 624 -102 callgsubr
        </CharString>
        <CharString name="Ebreve">
          14 callgsubr
          64 151 callgsubr
          128 callgsubr
          hintmask 11100100
          -107 callgsubr
          509 -53 callsubr
          hintmask 00011000
          -160 659 -103 callgsubr
          endchar
        </CharString>
        <CharString name="Ecaron">
          14 callgsubr
          128 callgsubr
          vstemhm
          -107 callgsubr
          509 -53 callsubr
          -173 588 -75 callsubr
        </CharString>
        <CharString name="Ecircumflex">
          14 callgsubr
          128 callgsubr
          vstemhm
          -107 callgsubr
          509 -53 callsubr
          -174 507 rmoveto
          -94 callgsubr
          endchar
        </CharString>
        <CharString name="Ecircumflexacute">
          14 callgsubr
          356 -20 128 callgsubr
          hintmask 11101000
          -107 callgsubr
          509 -53 callsubr
          hintmask 00010000
          -174 507 -21 callgsubr
        </CharString>
        <CharString name="Ecircumflexdotbelow">
          736 -200 111 89 20 callsubr
          128 callgsubr
          hintmask 01111000
          -107 callgsubr
          509 -53 callsubr
          -174 507 rmoveto
          -94 callgsubr
          hintmask 10000000
          -82 -888 rmoveto
          86 callsubr
        </CharString>
        <CharString name="Ecircumflexgrave">
          14 callgsubr
          128 callgsubr
          vstemhm
          -107 callgsubr
          509 -53 callsubr
          -174 507 -46 callgsubr
        </CharString>
        <CharString name="Ecircumflexhookabove">
          14 callgsubr
          378 -20 128 callgsubr
          hintmask 11101000
          -107 callgsubr
          509 -53 callsubr
          hintmask 00010000
          -174 507 -74 callgsubr
        </CharString>
        <CharString name="Ecircumflextilde">
          14 callgsubr
          213 41 26 41 128 callgsubr
          hintmask 11100100
          -107 callgsubr
          509 -53 callsubr
          hintmask 00011000
          -174 507 -61 callgsubr
        </CharString>
        <CharString name="Edblgrave">
          14 callgsubr
          85 -21 193 -20 128 callgsubr
          hintmask 11100100
          -107 callgsubr
          509 -53 callsubr
          hintmask 00011000
          -181 516 -78 callgsubr
        </CharString>
        <CharString name="Edieresis">
          14 callgsubr
          54 100 128 callgsubr
          hintmask 11101000
          -107 callgsubr
          509 -53 callsubr
          hintmask 00010000
          -372 547 -75 callgsubr
        </CharString>
        <CharString name="Edotaccent">
          14 callgsubr
          76 111 128 callgsubr
          hintmask 11101000
          -107 callgsubr
          509 -53 callsubr
          hintmask 00010000
          -257 575 -37 callsubr
          endchar
        </CharString>
        <CharString name="Edotbelow">
          736 -200 111 89 20 callsubr
          128 callgsubr
          hintmask 01111000
          -107 callgsubr
          509 -53 callsubr
          hintmask 10000000
          -256 -381 rmoveto
          86 callsubr
        </CharString>
        <CharString name="Egrave">
          14 callgsubr
          85 -21 163 -20 128 callgsubr
          hintmask 11100100
          -107 callgsubr
          509 -53 callsubr
          hintmask 00011000
          -237 522 -79 callgsubr
        </CharString>
        <CharString name="Ehookabove">
          14 callgsubr
          97 -21 205 -20 128 callgsubr
          hintmask 11100100
          -107 callgsubr
          509 -53 callsubr
          hintmask 00011000
          -214 646 -95 callsubr
        </CharString>
        <CharString name="Emacron">
          14 callgsubr
          74 36 128 callgsubr
          hintmask 11101000
          -107 callgsubr
          509 -53 callsubr
          hintmask 00010000
          -131 530 -87 callgsubr
        </CharString>
        <CharString name="Eng">
          806 166 84 vstem
          771 342 rmoveto
          193 -139 169 -188 -77 -70 -34 -54 -47 vhcurveto
          67 vlineto
          -2 -13 -14 -1 -14 -93 -26 3 -7 hhcurveto
          -7 -13 -3 callgsubr
          19 hhcurveto
          26 34 0 -15 3 hvcurveto
          1 -4 0 -10 -4 vvcurveto
          -540 vlineto
          -37 -3 -7 -70 -18 -12 36 callgsubr
          -4 1 6 -10 13 hhcurveto
          16 25 2 1 16 hvcurveto
          130 -27 callsubr
          14 -4 -12 0 -18 hhcurveto
          -32 -28 0 16 -4 hvcurveto
          -2 6 0 2 14 vvcurveto
          480 vlineto
          69 37 73 46 84 hhcurveto
          149 83 -160 -164 -134 -4 -150 -92 -34 hvcurveto
          22 -1 -19 17 -22 hhcurveto
          -23 -20 -19 -23 -23 20 -19 23 160 73 183 180 hvcurveto
          endchar
        </CharString>
        <CharString name="Eogonek">
          736 -211 47 164 20 callsubr
          hstem
          167 84 vstem
          -107 callgsubr
          387 hlineto
          -48 -27 -33 -42 2 -52 75 callsubr
          -2 hvcurveto
          -1 40 39 31 35 24 rrcurveto
          81 -53 callsubr
          endchar
        </CharString>
        <CharString name="Eogonekacute">
          736 -211 47 164 20 callsubr
          85 -21 163 -20 128 callgsubr
          hintmask 11110010
          -107 callgsubr
          387 hlineto
          -48 -27 -33 -42 2 -52 75 callsubr
          -2 hvcurveto
          -1 40 39 31 35 24 rrcurveto
          81 -53 callsubr
          hintmask 00001100
          -162 624 -102 callgsubr
        </CharString>
        <CharString name="Epsilon">
          14 callgsubr
          hstem
          167 84 vstem
          -107 callgsubr
          509 -53 callsubr
          endchar
        </CharString>
        <CharString name="Ereversed">
          14 callgsubr
          hstem
          500 84 vstem
          679 14 rmoveto
          19 4 -11 0 -22 hhcurveto
          -62 -4 9 34 hvcurveto
          533 vlineto
          7 0 8 2 7 vhcurveto
          16 4 24 0 31 hhcurveto
          20 10 0 15 4 hvcurveto
          18 4 -12 0 -17 hhcurveto
          -494 hlineto
          -16 -13 0 -14 -3 hvcurveto
          -3 -14 -24 -175 rlineto
          -17 -2 -1 -7 17 hhcurveto
          7 13 0 16 4 hvcurveto
          1 5 0 5 1 5 2 19 3 19 5 20 rrcurveto
          78 20 36 27 113 hhcurveto
          142 hlineto
          32 7 0 -36 hvcurveto
          -1 -241 rlineto
          -91 hlineto
          -80 -20 16 76 -1 hvcurveto
          21 0 4 -16 -6 -13 0 -15 -4 vhcurveto
          -1 -3 1 -2 -1 -13 rrcurveto
          -213 vlineto
          -16 1 -5 15 5 14 0 14 4 vhcurveto
          1 3 0 5 -1 6 rrcurveto
          4 1 25 4 18 vhcurveto
          26 7 11 16 72 hhcurveto
          98 -275 hlineto
          -13 -1 -3 -1 -11 vhcurveto
          -2 -10 -10 0 -9 hhcurveto
          -144 hlineto
          -164 -22 65 139 -26 hvcurveto
          21 -5 1 2 -14 hhcurveto
          -5 -14 0 -14 -4 hvcurveto
          -1 -5 1 -8 1 -4 39 -211 rcurveline
          -17 3 1 -1 22 hhcurveto
          509 hlineto
          16 12 0 14 4 hvcurveto
          endchar
        </CharString>
        <CharString name="Eta">
          185 callsubr
          hstem
          166 84 304 84 vstem
          -100 callgsubr
          endchar
        </CharString>
        <CharString name="Eth">
          819 0 33 293 32 292 147 callgsubr
          vstem
          59 callgsubr
          -22 rlineto
          -255 -96 vlineto
          -8 -8 -7 -9 hvcurveto
          -9 -1 9 -7 8 hhcurveto
          94 -250 hlineto
          -34 -2 9 callsubr
          323 hlineto
          201 151 206 226 -57 hvcurveto
          -93 34 rmoveto
          15 -57 11 -149 -40 -92 rrcurveto
          -81 -35 -77 -54 -100 hhcurveto
          -124 hlineto
          -9 -10 0 2 -11 hvcurveto
          27 vlineto
          264 160 vlineto
          161 callsubr
          9 -7 7 -9 hvcurveto
          -160 257 hlineto
          35 6 134 callsubr
        </CharString>
        <CharString name="Etilde">
          14 callgsubr
          54 41 26 41 128 callgsubr
          hintmask 11100100
          -107 callgsubr
          509 -53 callsubr
          hintmask 00011000
          -144 582 -105 callsubr
        </CharString>
        <CharString name="Euro">
          627 -22 30 263 30 82 30 262 30 hstem
          112 102 vstem
          571 540 rmoveto
          155 vlineto
          6 -4 4 -6 vhcurveto
          -3 hlineto
          -3 -3 -1 -2 -1 hvcurveto
          -39 -42 rlineto
          28 -30 -39 17 -43 hhcurveto
          -81 -73 -43 -64 -51 hvcurveto
          -42 -54 -25 -64 -11 -67 rrcurveto
          -50 129 callsubr
          49 hlineto
          -1 -14 -1 -14 -13 vvcurveto
          -14 1 -14 1 -13 vhcurveto
          -47 129 callsubr
          52 hlineto
          11 -68 25 -64 42 -54 rrcurveto
          -63 51 73 -44 81 hhcurveto
          43 39 17 28 30 hvcurveto
          39 -42 rlineto
          -2 1 3 -1 3 hhcurveto
          3 hlineto
          6 4 4 6 hvcurveto
          155 vlineto
          6 -4 4 -6 vhcurveto
          -10 hlineto
          -5 -4 -4 -5 -1 hvcurveto
          -73 -8 -52 -63 -71 hhcurveto
          -63 -52 41 54 -32 hvcurveto
          -31 51 -12 57 -4 60 rrcurveto
          256 129 callgsubr
          -260 hlineto
          -1 41 1 41 rlineto
          289 129 callgsubr
          -291 hlineto
          4 59 12 58 31 51 rrcurveto
          53 32 52 41 63 hhcurveto
          71 52 -62 -74 8 hvcurveto
          -5 1 4 -4 5 hhcurveto
          10 hlineto
          6 4 4 6 hvcurveto
          endchar
        </CharString>
        <CharString name="F">
          708 0 33 291 33 290 33 hstem
          167 84 vstem
          637 477 rmoveto
          -24 175 39 callsubr
          -481 hlineto
          -17 -12 0 -18 4 146 callsubr
          20 hhcurveto
          31 24 0 -16 4 hvcurveto
          2 -7 0 -8 -7 vvcurveto
          -533 vlineto
          -34 -4 -55 callsubr
          -24 callgsubr
          19 23 3 20 hhcurveto
          62 hlineto
          90 44 -3 3 hhcurveto
          6 16 51 callgsubr
          -4 14 rrcurveto
          -1 4 0 2 15 vvcurveto
          -1 251 rlineto
          95 hlineto
          69 13 -14 -27 7 hvcurveto
          3 -13 1 -21 -13 vvcurveto
          -1 -12 159 callsubr
          4 16 0 3 hhcurveto
          12 5 1 20 hvcurveto
          217 118 callgsubr
          -4 -15 0 -4 hhcurveto
          -16 0 -5 -16 hvcurveto
          -76 -1 -14 -20 -84 hhcurveto
          -88 hlineto
          -1 254 rlineto
          36 7 0 32 vhcurveto
          134 hlineto
          110 34 -28 -75 19 hvcurveto
          3 -12 5 -27 2 -12 1 -6 1 -13 49 callgsubr
          12 0 8 hhcurveto
          17 -1 7 17 -2 hvcurveto
          endchar
        </CharString>
        <CharString name="G">
          54 callsubr
          hstem
          -101 callsubr
          endchar
        </CharString>
        <CharString name="Gacute">
          54 callsubr
          61 -21 163 -20 hstemhm
          hintmask 11100000
          -101 callsubr
          hintmask 00011000
          -193 608 -102 callgsubr
        </CharString>
        <CharString name="Gamma">
          681 0 33 614 147 callgsubr
          vstem
          609 477 rmoveto
          -24 175 -2 14 rlineto
          131 callgsubr
          -15 hhcurveto
          -454 51 callsubr
          19 23 3 20 hhcurveto
          62 hlineto
          90 44 -3 3 hhcurveto
          6 16 51 callgsubr
          -6 14 rrcurveto
          21 vlineto
          538 vlineto
          36 7 0 32 vhcurveto
          115 hlineto
          113 25 -34 -66 16 hvcurveto
          6 -22 1 -5 4 -27 rrcurveto
          -6 1 -12 2 -6 vhcurveto
          -16 4 12 0 7 hhcurveto
          17 0 7 17 -3 hvcurveto
          endchar
        </CharString>
        <CharString name="Gbreve">
          54 callsubr
          40 151 callgsubr
          hstemhm
          hintmask 11100000
          -101 callsubr
          hintmask 00011000
          -191 643 -103 callgsubr
          endchar
        </CharString>
        <CharString name="Gcaron">
          54 callsubr
          hstemhm
          -101 callsubr
          -204 572 -75 callsubr
        </CharString>
        <CharString name="Gcedilla">
          840 138 callsubr
          63 callsubr
          hstem
          -101 callsubr
          -299 -372 rmoveto
          -99 callsubr
        </CharString>
        <CharString name="Gcircumflex">
          54 callsubr
          hstemhm
          -101 callsubr
          -205 491 rmoveto
          -94 callgsubr
          endchar
        </CharString>
        <CharString name="Gcommaaccent">
          840 138 callsubr
          63 callsubr
          hstemhm
          hintmask 00111000
          -101 callsubr
          hintmask 11000000
          -299 -372 rmoveto
          -99 callsubr
        </CharString>
        <CharString name="Gdotaccent">
          54 callsubr
          52 111 hstemhm
          hintmask 11100000
          -101 callsubr
          hintmask 00010000
          -288 559 -37 callsubr
          endchar
        </CharString>
        <CharString name="H">
          185 callsubr
          hstem
          166 84 304 84 vstem
          -100 callgsubr
          endchar
        </CharString>
        <CharString name="H_uni0303">
          174 callgsubr
          41 26 41 89 callsubr
          304 84 hintmask 11100110
          -100 callgsubr
          hintmask 00011000
          -163 159 -105 callsubr
        </CharString>
        <CharString name="Hbar">
          113 callgsubr
          125 32 121 147 callgsubr
          304 84 vstem
          733 669 rmoveto
          0 callgsubr
          40 callsubr
          18 hhcurveto
          27 28 0 -15 5 hvcurveto
          -21 vlineto
          -85 -304 78 vlineto
          -90 callgsubr
          -84 -76 vlineto
          -8 -8 -8 -8 -9 8 -7 8 hvcurveto
          76 -421 hlineto
          -34 -3 -9 -62 -22 -11 0 -19 4 -14 callsubr
          -4 hvcurveto
          14 -4 -12 0 -17 hhcurveto
          -32 92 callsubr
          22 vlineto
          268 304 -263 vlineto
          -71 -43 rlineto
          -15 -13 0 -19 5 hvcurveto
          -66 callsubr
          -5 hvcurveto
          14 -3 -12 0 -18 hhcurveto
          -31 92 callsubr
          23 vlineto
          425 77 vlineto
          161 callsubr
          8 -7 8 -9 hvcurveto
          -77 75 hlineto
          38 4 8 64 20 12 0 19 -5 vhcurveto
          -178 -297 rmoveto
          -304 125 304 hlineto
          endchar
        </CharString>
        <CharString name="Hbrevebelow">
          806 -231 151 callgsubr
          76 91 callsubr
          hintmask 00111110
          -100 callgsubr
          hintmask 11000010
          -179 -739 -103 callgsubr
          endchar
        </CharString>
        <CharString name="Hcircumflex">
          806 0 91 callsubr
          vstemhm
          -100 callgsubr
          -193 84 rmoveto
          -94 callgsubr
          endchar
        </CharString>
        <CharString name="Hdieresis">
          174 callgsubr
          100 89 callsubr
          304 84 hintmask 11101100
          -100 callgsubr
          hintmask 00010000
          -391 5 callsubr
        </CharString>
        <CharString name="Hdotbelow">
          806 -200 111 89 91 callsubr
          hintmask 01111100
          -100 callgsubr
          hintmask 10000000
          -275 -804 rmoveto
          86 callsubr
        </CharString>
        <CharString name="I">
          46 callgsubr
          hstem
          166 84 vstem
          -104 callgsubr
          endchar
        </CharString>
        <CharString name="I_J">
          946 -21 28 -7 33 31 98 488 181 callsubr
          460 84 hintmask 01011100
          350 19 rmoveto
          27 callsubr
          1 -4 -7 -70 hhcurveto
          -18 -12 0 -19 4 hvcurveto
          -4 1 6 -10 13 hhcurveto
          16 25 2 1 16 hvcurveto
          130 -27 callsubr
          512 650 rmoveto
          4 -1 -6 10 -11 -9 -6 -3 -92 -43 -47 3 -42 hhcurveto
          -8 -14 0 -19 4 hvcurveto
          61 callgsubr
          15 hhcurveto
          9 hlineto
          18 8 0 -2 18 hvcurveto
          24 -3 9 -1 4 -13 rrcurveto
          -17 vlineto
          -465 vlineto
          hintmask 10110100
          -79 -44 -63 -57 -30 -47 14 45 -24 vhcurveto
          53 1 -3 46 -3 10 rrcurveto
          22 -5 -21 17 -26 hhcurveto
          -9 -49 -6 -68 17 hvcurveto
          -63 16 64 -46 77 hhcurveto
          103 72 82 76 hvcurveto
          471 vlineto
          36 4 6 41 15 12 0 19 -4 vhcurveto
          endchar
        </CharString>
        <CharString name="Iacute">
          46 callgsubr
          82 -21 163 -20 -72 callsubr
          8 851 -102 callgsubr
        </CharString>
        <CharString name="Ibreve">
          46 callgsubr
          61 151 callgsubr
          -72 callsubr
          10 886 -103 callgsubr
          endchar
        </CharString>
        <CharString name="Icaron">
          46 callgsubr
          hstemhm
          166 84 vstemhm
          -104 callgsubr
          -3 815 -75 callsubr
        </CharString>
        <CharString name="Icircumflex">
          46 callgsubr
          hstemhm
          166 84 vstemhm
          -104 callgsubr
          -4 734 rmoveto
          -94 callgsubr
          endchar
        </CharString>
        <CharString name="Idblgrave">
          46 callgsubr
          82 -21 193 -20 -72 callsubr
          -11 743 -78 callgsubr
        </CharString>
        <CharString name="Idieresis">
          46 callgsubr
          51 100 89 callsubr
          hintmask 11010000
          -104 callgsubr
          hintmask 00100000
          -202 774 -75 callgsubr
        </CharString>
        <CharString name="Idieresisacute">
          46 callgsubr
          51 100 141 callsubr
          166 84 hintmask 11000100
          -104 callgsubr
          hintmask 00111000
          -202 774 -92 callsubr
          -11 227 -102 callgsubr
        </CharString>
        <CharString name="Idotaccent">
          46 callgsubr
          73 111 89 callsubr
          hintmask 11010000
          -104 callgsubr
          hintmask 00100000
          -87 802 -37 callsubr
          endchar
        </CharString>
        <CharString name="Idotbelow">
          417 95 callsubr
          166 84 hintmask 01110000
          -104 callgsubr
          hintmask 10000000
          -86 -154 rmoveto
          86 callsubr
        </CharString>
        <CharString name="Igrave">
          46 callgsubr
          82 -21 163 -20 -72 callsubr
          -67 749 -79 callgsubr
        </CharString>
        <CharString name="Ihookabove">
          46 callgsubr
          94 -21 205 -20 -70 callsubr
          hintmask 00111000
          -44 873 -95 callsubr
        </CharString>
        <CharString name="Imacron">
          46 callgsubr
          71 36 89 callsubr
          hintmask 11010000
          -104 callgsubr
          hintmask 00100000
          39 757 -87 callgsubr
        </CharString>
        <CharString name="Imacron.alt">
          46 callgsubr
          71 36 89 callsubr
          hintmask 11010000
          -104 callgsubr
          hintmask 00100000
          -40 757 68 callsubr
        </CharString>
        <CharString name="Iogonek">
          417 -211 47 164 33 617 147 callgsubr
          vstem
          -17 callgsubr
          endchar
        </CharString>
        <CharString name="Iogonekacute">
          417 -211 47 164 82 callsubr
          82 -21 163 -20 89 callsubr
          hintmask 11100100
          -17 callgsubr
          hintmask 00011000
          8 985 -102 callgsubr
        </CharString>
        <CharString name="Iota">
          46 callgsubr
          hstem
          166 84 vstem
          -104 callgsubr
          endchar
        </CharString>
        <CharString name="Itilde">
          46 callgsubr
          51 41 26 41 -72 callsubr
          26 809 -105 callsubr
        </CharString>
        <CharString name="J">
          136 callgsubr
          hstem
          332 84 vstem
          -53 callgsubr
          endchar
        </CharString>
        <CharString name="J_uni030C.cap">
          570 -21 28 57 98 313 -21 146 83 -33 33 hstemhm
          332 84 hintmask 11001100
          -53 callgsubr
          127 -33 155 callgsubr
          hintmask 00110000
          -15 4 14 -18 26 hhcurveto
          17 4 4 4 5 hvcurveto
          1 -75 -40 -42 -16 -16 -3 -3 -3 -3 1 -3 rrcurveto
          -6 2 6 -6 6 hhcurveto
          13 75 90 92 -23 hvcurveto
          endchar
        </CharString>
        <CharString name="Jacute">
          136 callgsubr
          82 -21 163 -20 hstemhm
          332 84 hintmask 11100100
          -53 callgsubr
          hintmask 00011000
          12 201 -102 callgsubr
        </CharString>
        <CharString name="Jcircumflex">
          136 callgsubr
          hstemhm
          332 84 vstemhm
          -53 callgsubr
          84 vmoveto
          -94 callgsubr
          endchar
        </CharString>
        <CharString name="K">
          833 0 33 617 147 callgsubr
          vstem
          -85 callgsubr
          endchar
        </CharString>
        <CharString name="Kappa">
          833 0 33 617 147 callgsubr
          vstem
          -85 callgsubr
          endchar
        </CharString>
        <CharString name="Kcedilla">
          833 110 callsubr
          hstem
          166 84 vstem
          -85 callgsubr
          -304 -129 rmoveto
          -99 callsubr
        </CharString>
        <CharString name="Kcommaaccent">
          833 92 callgsubr
          84 hintmask 00111000
          -85 callgsubr
          hintmask 11000000
          -304 -129 rmoveto
          -99 callsubr
        </CharString>
        <CharString name="L">
          681 0 33 617 147 callgsubr
          vstem
          -93 callgsubr
          endchar
        </CharString>
        <CharString name="L_uni0303">
          681 107 callgsubr
          51 41 26 41 89 callsubr
          hintmask 11001000
          -93 callgsubr
          hintmask 00110000
          -204 810 -105 callsubr
        </CharString>
        <CharString name="Lacute">
          681 107 callgsubr
          82 -21 163 -20 89 callsubr
          hintmask 11001000
          -93 callgsubr
          hintmask 00110000
          -222 852 -102 callgsubr
        </CharString>
        <CharString name="Lambda">
          750 0 33 681 -20 hstem
          689 19 rmoveto
          131 callgsubr
          -13 hhcurveto
          -40 -4 7 23 -8 hvcurveto
          -204 624 rlineto
          21 -7 -2 6 -20 hhcurveto
          -10 -10 0 -21 -7 hvcurveto
          -186 -575 -24 -72 -33 -10 -24 -3 rlinecurve
          -14 -1 -10 -1 4 -17 rrcurveto
          -7 2 8 -7 8 12 -6 3 70 65 20 -3 7 -6 callgsubr
          13 -4 -11 1 -7 hhcurveto
          -22 2 -20 9 -5 21 rrcurveto
          -4 15 9 27 0 vvcurveto
          154 473 164 -503 6 -19 8 -24 -68 -1 rlinecurve
          -11 64 callsubr
          8 -6 9 hhcurveto
          0 40 3 70 vhcurveto
          90 2 -3 10 hhcurveto
          5 16 0 19 -5 hvcurveto
          endchar
        </CharString>
        <CharString name="Lcaron">
          681 0 33 442 -21 146 83 -33 181 callsubr
          hintmask 10011000
          -93 callgsubr
          -71 618 155 callgsubr
          hintmask 01100000
          -15 4 14 -18 26 hhcurveto
          17 4 4 4 5 hvcurveto
          1 -75 -40 -42 -16 -16 -3 -3 -3 -3 1 -3 rrcurveto
          -6 2 6 -6 6 hhcurveto
          13 75 90 92 -23 hvcurveto
          endchar
        </CharString>
        <CharString name="Lcedilla">
          681 110 callsubr
          hstem
          166 84 vstem
          -93 callgsubr
          -201 -128 rmoveto
          -99 callsubr
        </CharString>
        <CharString name="Lcommaaccent">
          681 92 callgsubr
          84 hintmask 00111000
          -93 callgsubr
          hintmask 11000000
          -201 -128 rmoveto
          -99 callsubr
        </CharString>
        <CharString name="Ldot">
          681 0 33 319 111 187 147 callgsubr
          vstem
          -93 callgsubr
          18 399 -52 callgsubr
          endchar
        </CharString>
        <CharString name="Ldotbelow">
          681 95 callsubr
          166 84 hintmask 01110000
          -93 callgsubr
          hintmask 10000000
          -189 -153 rmoveto
          86 callsubr
        </CharString>
        <CharString name="Ldotbelowmacron">
          681 84 callsubr
          71 36 89 callsubr
          hintmask 11101000
          -93 callgsubr
          -189 -153 -95 callgsubr
          hintmask 00010000
          5 911 -87 callgsubr
        </CharString>
        <CharString name="Lslash">
          681 0 33 617 147 callgsubr
          vstem
          610 227 rmoveto
          2 13 -2 5 0 vvcurveto
          13 -3 -11 2 -9 hhcurveto
          -14 0 -3 -21 -3 hvcurveto
          -89 -12 -14 -114 -166 hhcurveto
          -96 1 callsubr
          319 vlineto
          134 130 -27 26 -107 -105 rlineto
          171 vlineto
          37 4 10 82 vhcurveto
          77 callgsubr
          -5 hvcurveto
          10 -2 -8 4 -9 -44 -46 -3 -44 -102 -17 3 -8 hhcurveto
          -6 -14 -45 callgsubr
          -6 -1 -2 -14 vvcurveto
          -263 vlineto
          -82 -80 28 -25 54 54 rlineto
          -223 vlineto
          -34 -3 9 callsubr
          454 48 callsubr
          endchar
        </CharString>
        <CharString name="M">
          972 107 callgsubr
          hstem
          172 42 512 74 vstem
          -67 callsubr
          endchar
        </CharString>
        <CharString name="Mdotbelow">
          972 95 callsubr
          172 42 512 74 hintmask 01111000
          -67 callsubr
          hintmask 10000000
          -353 -804 rmoveto
          86 callsubr
        </CharString>
        <CharString name="Mu">
          972 107 callgsubr
          hstem
          172 42 512 74 vstem
          -67 callsubr
          endchar
        </CharString>
        <CharString name="N">
          119 callgsubr
          166 42 388 42 vstem
          -101 callgsubr
          endchar
        </CharString>
        <CharString name="Nacute">
          45 callsubr
          82 -21 163 -20 hstemhm
          166 42 388 42 hintmask 11001100
          -101 callgsubr
          hintmask 00110000
          -181 201 -102 callgsubr
        </CharString>
        <CharString name="Ncaron">
          45 callsubr
          hstemhm
          166 42 388 42 vstemhm
          -101 callgsubr
          -192 165 -75 callsubr
        </CharString>
        <CharString name="Ncedilla">
          806 110 callsubr
          hstem
          166 42 388 42 vstem
          -101 callgsubr
          -287 -779 rmoveto
          -99 callsubr
        </CharString>
        <CharString name="Ncommaaccent">
          806 92 callgsubr
          42 388 42 hintmask 00111100
          -101 callgsubr
          hintmask 11000000
          -287 -779 rmoveto
          -99 callsubr
        </CharString>
        <CharString name="Ndotaccent">
          45 callsubr
          51 111 hstemhm
          166 42 388 42 hintmask 11011000
          -101 callgsubr
          hintmask 00100000
          -276 130 -37 callsubr
          endchar
        </CharString>
        <CharString name="Ndotbelow">
          806 95 callsubr
          166 42 388 42 hintmask 01111000
          -101 callgsubr
          hintmask 10000000
          -275 -804 rmoveto
          86 callsubr
        </CharString>
        <CharString name="Ntilde">
          45 callsubr
          51 41 26 41 hstemhm
          166 42 388 42 hintmask 11001100
          -101 callgsubr
          hintmask 00110000
          -163 159 -105 callsubr
        </CharString>
        <CharString name="Nu">
          119 callgsubr
          166 42 388 42 vstem
          -101 callgsubr
          endchar
        </CharString>
        <CharString name="O">
          13 callgsubr
          hstem
          -98 callgsubr
          endchar
        </CharString>
        <CharString name="OE">
          -51 callsubr
        </CharString>
        <CharString name="OE.dup">
          -51 callsubr
        </CharString>
        <CharString name="Oacute">
          13 callgsubr
          61 -21 163 -59 callsubr
          -74 399 -102 callgsubr
        </CharString>
        <CharString name="Obreve">
          13 callgsubr
          40 42 133 -59 callsubr
          -72 434 -103 callgsubr
          endchar
        </CharString>
        <CharString name="Ocaron">
          13 callgsubr
          hstemhm
          -98 callgsubr
          -85 363 -75 callsubr
        </CharString>
        <CharString name="Ocircumflex">
          13 callgsubr
          hstemhm
          -98 callgsubr
          -86 282 rmoveto
          -94 callgsubr
          endchar
        </CharString>
        <CharString name="Ocircumflexacute">
          13 callgsubr
          332 -20 15 callsubr
          -86 282 -21 callgsubr
        </CharString>
        <CharString name="Ocircumflexdotbelow">
          109 callsubr
          hstemhm
          hintmask 01100000
          -98 callgsubr
          -86 282 rmoveto
          -94 callgsubr
          hintmask 10000000
          -82 -888 rmoveto
          86 callsubr
        </CharString>
        <CharString name="Ocircumflexgrave">
          13 callgsubr
          hstemhm
          -98 callgsubr
          -86 282 -46 callgsubr
        </CharString>
        <CharString name="Ocircumflexhookabove">
          13 callgsubr
          354 -20 15 callsubr
          -86 282 -74 callgsubr
        </CharString>
        <CharString name="Ocircumflextilde">
          13 callgsubr
          189 41 26 41 -77 callsubr
          -86 282 -61 callgsubr
        </CharString>
        <CharString name="Odblgrave">
          13 callgsubr
          61 -21 193 -59 callsubr
          -93 291 -78 callgsubr
        </CharString>
        <CharString name="Odieresis">
          13 callgsubr
          30 100 15 callsubr
          -284 322 -75 callgsubr
        </CharString>
        <CharString name="Odotbelow">
          109 callsubr
          hstemhm
          hintmask 01100000
          -98 callgsubr
          hintmask 10000000
          -168 -606 rmoveto
          86 callsubr
        </CharString>
        <CharString name="Ograve">
          13 callgsubr
          61 -21 163 -59 callsubr
          -149 297 -79 callgsubr
        </CharString>
        <CharString name="Ohookabove">
          13 callgsubr
          73 -21 205 -59 callsubr
          -126 421 -95 callsubr
        </CharString>
        <CharString name="Ohorn">
          13 callgsubr
          90 -20 hstem
          -91 callgsubr
          endchar
        </CharString>
        <CharString name="Ohornacute">
          13 callgsubr
          61 -21 50 -20 133 -20 hstemhm
          hintmask 11110000
          -91 callgsubr
          hintmask 00101000
          -114 515 -102 callgsubr
        </CharString>
        <CharString name="Ohorndotbelow">
          109 callsubr
          90 -20 hstemhm
          hintmask 01110000
          -91 callgsubr
          hintmask 10000000
          -180 -490 rmoveto
          86 callsubr
        </CharString>
        <CharString name="Ohorngrave">
          13 callgsubr
          61 -21 50 -20 133 -20 hstemhm
          hintmask 11110000
          -91 callgsubr
          hintmask 00101000
          -161 413 -79 callgsubr
        </CharString>
        <CharString name="Ohornhookabove">
          13 callgsubr
          73 -21 38 -20 187 -20 hstemhm
          hintmask 11010000
          -91 callgsubr
          hintmask 00101000
          -138 537 -95 callsubr
        </CharString>
        <CharString name="Ohorntilde">
          13 callgsubr
          30 41 19 -20 27 41 hstemhm
          hintmask 11010000
          -91 callgsubr
          hintmask 00101000
          -68 473 -105 callsubr
        </CharString>
        <CharString name="Ohungarumlaut">
          13 callgsubr
          61 -21 193 -59 callsubr
          -223 436 -30 callsubr
        </CharString>
        <CharString name="Omacron">
          13 callgsubr
          50 36 15 callsubr
          -43 305 -87 callgsubr
        </CharString>
        <CharString name="Omega">
          -39 callgsubr
        </CharString>
        <CharString name="Omicron">
          13 callgsubr
          hstem
          -98 callgsubr
          endchar
        </CharString>
        <CharString name="Oogonek">
          13 callgsubr
          hstem
          94 callgsubr
          35 -136 110 -109 139 -17 -31 -29 -22 -35 1 -38 rrcurveto
          -46 2 48 -44 65 -28 callsubr
          -2 hvcurveto
          -1 145 callsubr
          4 4 rcurveline
          3 hlineto
          -93 callsubr
          endchar
        </CharString>
        <CharString name="Oogonekacute">
          13 callgsubr
          61 -21 163 -20 hstemhm
          hintmask 11000000
          94 callgsubr
          35 -136 110 -109 139 -17 -31 -29 -22 -35 1 -38 rrcurveto
          -46 2 48 -44 65 -28 callsubr
          -2 hvcurveto
          -1 145 callsubr
          4 4 rcurveline
          3 hlineto
          -93 callsubr
          hintmask 00110000
          -74 399 -102 callgsubr
        </CharString>
        <CharString name="Orogate">
          833 38 callgsubr
          -39 158 -127 102 -139 8 rrcurveto
          158 vlineto
          9 -7 7 -9 -9 -7 -7 -9 vhcurveto
          -158 vlineto
          -213 -11 -148 -229 56 -221 37 -143 119 -113 149 -8 rrcurveto
          -157 vlineto
          -9 7 -7 9 161 callsubr
          vhcurveto
          157 vlineto
          207 10 157 216 -59 231 rrcurveto
          -87 callsubr
          endchar
        </CharString>
        <CharString name="Oslash">
          110 callgsubr
          hstem
          -56 callgsubr
          endchar
        </CharString>
        <CharString name="Oslash.dup">
          110 callgsubr
          hstem
          -56 callgsubr
          endchar
        </CharString>
        <CharString name="Oslashacute">
          110 callgsubr
          38 -21 163 -20 hstemhm
          hintmask 11110000
          -56 callgsubr
          hintmask 00001100
          -85 397 -102 callgsubr
        </CharString>
        <CharString name="Otilde">
          13 callgsubr
          30 41 26 41 -77 callsubr
          -56 357 -105 callsubr
        </CharString>
        <CharString name="P">
          -22 callsubr
        </CharString>
        <CharString name="Phi">
          778 0 33 102 30 353 30 102 33 hstem
          346 76 vstem
          689 376 rmoveto
          -23 91 -112 71 -132 9 rrcurveto
          45 vlineto
          51 2 0 7 84 hhcurveto
          77 callgsubr
          -4 hvcurveto
          10 -3 -8 4 -9 hhcurveto
          -22 -24 -2 -1 -21 hvcurveto
          -69 hlineto
          -99 -38 3 -4 hhcurveto
          -7 -14 124 callsubr
          8 hlineto
          16 9 0 -2 19 hvcurveto
          27 -3 3 -3 4 -11 rrcurveto
          -85 vlineto
          -173 -16 -114 -111 28 -112 21 -83 98 -75 140 -12 rrcurveto
          -45 vlineto
          -51 0 -8 -85 vhcurveto
          -8 hlineto
          -17 -12 0 -19 4 hvcurveto
          0 4 -14 16 21 25 2 1 21 vhcurveto
          69 hlineto
          99 38 -3 4 hhcurveto
          6 15 51 callgsubr
          -6 14 rrcurveto
          84 vlineto
          191 17 102 118 -26 105 rrcurveto
          -343 -211 rmoveto
          -47 5 -32 15 -24 15 -39 25 -16 35 -7 28 -9 35 -3 74 36 51 29 42 57 21 55 7 rrcurveto
          249 -123 rmoveto
          7 -28 33 -184 -212 -18 rrcurveto
          353 vlineto
          89 -8 64 -40 19 -75 rrcurveto
          endchar
        </CharString>
        <CharString name="Pi">
          806 0 33 614 147 callgsubr
          304 84 vstem
          733 666 rmoveto
          -22 callgsubr
          -16 hhcurveto
          -604 51 callsubr
          hhcurveto
          5 44 2 1 8 hvcurveto
          61 hlineto
          -48 callsubr
          -6 hvcurveto
          22 vlineto
          576 304 -571 vlineto
          -37 -4 -6 -67 -15 -13 -34 callgsubr
          -14 callsubr
          -5 hvcurveto
          14 -3 -12 0 -18 hhcurveto
          -31 92 callsubr
          555 vlineto
          37 5 6 67 15 12 0 19 -4 vhcurveto
          endchar
        </CharString>
        <CharString name="Psi">
          833 0 33 492 30 95 33 hstem
          374 76 vstem
          748 541 rmoveto
          14 -3 -13 0 -16 hhcurveto
          -24 hlineto
          -54 -36 -27 -117 -3 hvcurveto
          -1 -76 -13 -138 -135 -29 rrcurveto
          435 vlineto
          38 4 9 82 vhcurveto
          8 hlineto
          19 11 0 19 -5 hvcurveto
          10 -3 -8 4 -9 hhcurveto
          -21 -25 -2 -1 -21 hvcurveto
          -69 hlineto
          -99 -37 3 -4 hhcurveto
          -7 -15 0 -19 -29 callsubr
          8 hlineto
          16 10 0 -2 18 hvcurveto
          27 -3 3 -3 4 -11 rrcurveto
          -23 vlineto
          -441 vlineto
          -87 17 -31 67 -13 53 -5 18 -6 37 1 41 -1 46 -6 25 -1 4 rrcurveto
          80 -20 -53 0 -19 hhcurveto
          -24 hlineto
          -17 -12 0 -14 4 hvcurveto
          3 -12 10 -1 8 -1 14 -2 19 -8 11 -42 5 -18 1 -19 1 -18 rrcurveto
          -27 0 -34 10 -40 vhcurveto
          23 -90 63 -76 122 -15 rrcurveto
          -31 0 18 -32 vvcurveto
          -53 -1 -7 -84 vhcurveto
          164 callsubr
          22 25 2 1 21 vhcurveto
          68 hlineto
          100 37 -3 4 172 callgsubr
          -16 hhcurveto
          -7 171 callgsubr
          -6 14 rrcurveto
          85 vlineto
          164 16 59 116 3 125 rrcurveto
          50 3 75 56 8 vhcurveto
          6 1 10 1 -3 12 rrcurveto
          endchar
        </CharString>
        <CharString name="Q">
          833 -194 94 79 31 113 28 522 31 hstem
          753 hmoveto
          8 -2 -8 6 -7 hhcurveto
          -10 -1 -9 -4 hvcurveto
          -82 -8 -54 -19 -29 hhcurveto
          -39 -24 19 87 -29 hvcurveto
          171 79 65 187 -42 164 rrcurveto
          -77 callgsubr
          15 33 1 13 43 hvcurveto
          4 -27 5 -33 5 -20 rrcurveto
          -53 14 28 -54 71 hhcurveto
          122 0 183 11 -3 hvcurveto
          -111 464 rmoveto
          22 -86 18 -232 -153 -101 rrcurveto
          51 -19 -31 55 -66 hhcurveto
          -58 -33 -54 -49 12 hvcurveto
          3 -13 4 -5 4 -7 -39 15 -83 44 -34 135 rrcurveto
          209 -53 89 247 190 hhcurveto
          93 98 -68 -141 36 hvcurveto
          -145 -418 rmoveto
          4 -15 -1 -1 -6 -3 rrcurveto
          0 -34 -17 -44 -11 -33 0 38 -9 vhcurveto
          34 -9 25 41 42 hhcurveto
          38 24 -21 -56 14 hvcurveto
          endchar
        </CharString>
        <CharString name="R">
          105 callsubr
          168 callsubr
          hintmask 10011000
          759 96 rmoveto
          14 -3 -15 0 -4 hhcurveto
          -15 0 -4 -15 -2 hvcurveto
          -43 -2 -19 -41 -37 hhcurveto
          -32 -11 22 33 -8 hvcurveto
          -4 15 -4 25 -4 30 -2 18 -7 60 -4 14 -12 49 -37 42 -67 24 122 34 63 81 -20 79 rrcurveto
          83 -21 -105 67 -133 hhcurveto
          -278 hlineto
          -17 -49 callgsubr
          0 -2 -14 vvcurveto
          -537 vlineto
          hintmask 01101000
          -83 callsubr
          hintmask 10111000
          -84 21 80 -24 55 -61 callsubr
          endchar
        </CharString>
        <CharString name="Racute">
          105 callsubr
          82 -21 163 -20 168 callsubr
          hintmask 10010010
          759 96 rmoveto
          14 -3 -15 0 -4 hhcurveto
          -15 0 -4 -15 -2 hvcurveto
          -43 -2 -19 -41 -37 hhcurveto
          -32 -11 22 33 -8 hvcurveto
          -4 15 -4 25 -4 30 -2 18 -7 60 -4 14 -12 49 -37 42 -67 24 122 34 63 81 -20 79 rrcurveto
          83 -21 -105 67 -133 hhcurveto
          -278 hlineto
          -17 -49 callgsubr
          0 -2 -14 vvcurveto
          -537 vlineto
          hintmask 01100010
          -83 callsubr
          hintmask 10110010
          -84 21 80 -24 55 -61 callsubr
          hintmask 00001100
          8 319 -102 callgsubr
        </CharString>
        <CharString name="Rcaron">
          105 callsubr
          168 callsubr
          hintmask 10011000
          759 96 rmoveto
          14 -3 -15 0 -4 hhcurveto
          -15 0 -4 -15 -2 hvcurveto
          -43 -2 -19 -41 -37 hhcurveto
          -32 -11 22 33 -8 hvcurveto
          -4 15 -4 25 -4 30 -2 18 -7 60 -4 14 -12 49 -37 42 -67 24 122 34 63 81 -20 79 rrcurveto
          83 -21 -105 67 -133 hhcurveto
          -278 hlineto
          -17 -49 callgsubr
          0 -2 -14 vvcurveto
          -537 vlineto
          hintmask 01101000
          -83 callsubr
          hintmask 10111000
          -84 21 80 -24 55 -61 callsubr
          hintmask 00000000
          -3 283 -75 callsubr
        </CharString>
        <CharString name="Rcedilla">
          792 138 callsubr
          35 callsubr
          168 callsubr
          hintmask 00100110
          759 96 rmoveto
          14 -3 -15 0 -4 hhcurveto
          -15 0 -4 -15 -2 hvcurveto
          -43 -2 -19 -41 -37 hhcurveto
          -32 -11 22 33 -8 hvcurveto
          -4 15 -4 25 -4 30 -2 18 -7 60 -4 14 -12 49 -37 42 -67 24 122 34 63 81 -20 79 rrcurveto
          83 -21 -105 67 -133 hhcurveto
          -278 hlineto
          -17 -49 callgsubr
          0 -2 -14 vvcurveto
          -537 vlineto
          hintmask 00011010
          -83 callsubr
          hintmask 11101110
          -84 21 80 -24 55 -61 callsubr
          -98 -661 rmoveto
          -99 callsubr
        </CharString>
        <CharString name="Rcommaaccent">
          792 138 callsubr
          35 callsubr
          168 callsubr
          hintmask 00100110
          759 96 rmoveto
          14 -3 -15 0 -4 hhcurveto
          -15 0 -4 -15 -2 hvcurveto
          -43 -2 -19 -41 -37 hhcurveto
          -32 -11 22 33 -8 hvcurveto
          -4 15 -4 25 -4 30 -2 18 -7 60 -4 14 -12 49 -37 42 -67 24 122 34 63 81 -20 79 rrcurveto
          83 -21 -105 67 -133 hhcurveto
          -278 hlineto
          -17 -49 callgsubr
          0 -2 -14 vvcurveto
          -537 vlineto
          hintmask 00011010
          -83 callsubr
          hintmask 00101110
          -84 21 80 -24 55 -61 callsubr
          hintmask 11000000
          -98 -661 rmoveto
          -99 callsubr
        </CharString>
        <CharString name="Rdblgrave">
          105 callsubr
          142 callsubr
          168 80 hintmask 10010010
          759 96 rmoveto
          14 -3 -15 0 -4 hhcurveto
          -15 0 -4 -15 -2 hvcurveto
          -43 -2 -19 -41 -37 hhcurveto
          -32 -11 22 33 -8 hvcurveto
          -4 15 -4 25 -4 30 -2 18 -7 60 -4 14 -12 49 -37 42 -67 24 122 34 63 81 -20 79 rrcurveto
          83 -21 -105 67 -133 hhcurveto
          -278 hlineto
          -17 -49 callgsubr
          0 -2 -14 vvcurveto
          -537 vlineto
          hintmask 01100010
          -83 callsubr
          hintmask 10110010
          -84 21 80 -24 55 -61 callsubr
          hintmask 00001100
          -39 211 -78 callgsubr
        </CharString>
        <CharString name="Rdotaccent">
          105 callsubr
          73 111 168 callsubr
          hintmask 10010100
          759 96 rmoveto
          14 -3 -15 0 -4 hhcurveto
          -15 0 -4 -15 -2 hvcurveto
          -43 -2 -19 -41 -37 hhcurveto
          -32 -11 22 33 -8 hvcurveto
          -4 15 -4 25 -4 30 -2 18 -7 60 -4 14 -12 49 -37 42 -67 24 122 34 63 81 -20 79 rrcurveto
          83 -21 -105 67 -133 hhcurveto
          -278 hlineto
          -17 -49 callgsubr
          0 -2 -14 vvcurveto
          -537 vlineto
          hintmask 01100100
          -83 callsubr
          hintmask 10110100
          -84 21 80 -24 55 -61 callsubr
          hintmask 00001000
          -87 270 -37 callsubr
          endchar
        </CharString>
        <CharString name="Rdotbelow">
          792 159 callgsubr
          35 callsubr
          168 callsubr
          hintmask 01001100
          759 96 rmoveto
          14 -3 -15 0 -4 hhcurveto
          -15 0 -4 -15 -2 hvcurveto
          -43 -2 -19 -41 -37 hhcurveto
          -32 -11 22 33 -8 hvcurveto
          -4 15 -4 25 -4 30 -2 18 -7 60 -4 14 -12 49 -37 42 -67 24 122 34 63 81 -20 79 rrcurveto
          83 -21 -105 67 -133 hhcurveto
          -278 hlineto
          -17 -49 callgsubr
          0 -2 -14 vvcurveto
          -537 vlineto
          hintmask 00110100
          -83 callsubr
          hintmask 01011100
          -84 21 80 -24 55 -61 callsubr
          hintmask 10000000
          -86 -686 rmoveto
          86 callsubr
        </CharString>
        <CharString name="Rdotbelowmacron">
          792 159 callgsubr
          35 callsubr
          71 36 168 callsubr
          hintmask 01001010
          759 96 rmoveto
          14 -3 -15 0 -4 hhcurveto
          -15 0 -4 -15 -2 hvcurveto
          -43 -2 -19 -41 -37 hhcurveto
          -32 -11 22 33 -8 hvcurveto
          -4 15 -4 25 -4 30 -2 18 -7 60 -4 14 -12 49 -37 42 -67 24 122 34 63 81 -20 79 rrcurveto
          83 -21 -105 67 -133 hhcurveto
          -278 hlineto
          -17 -49 callgsubr
          0 -2 -14 vvcurveto
          -537 vlineto
          hintmask 00110010
          -83 callsubr
          hintmask 11011010
          -84 21 80 -24 55 -61 callsubr
          -86 -686 -95 callgsubr
          hintmask 00000110
          125 911 -87 callgsubr
        </CharString>
        <CharString name="Rho">
          -22 callsubr
        </CharString>
        <CharString name="S">
          175 callsubr
          hstem
          -96 callsubr
          rlineto
          -53 56 67 -16 62 38 callsubr
          endchar
        </CharString>
        <CharString name="S_S">
          1222 157 callsubr
          hstem
          519 232 rmoveto
          -10 42 -24 39 -34 29 -34 28 -20 5 -96 23 -4 2 -52 12 -9 2 -45 13 -34 36 -11 44 rrcurveto
          81 -20 62 86 93 hhcurveto
          102 47 -69 -77 20 hvcurveto
          8 -33 0 -20 1 -6 rrcurveto
          -13 4 12 0 7 hhcurveto
          16 0 2 18 hvcurveto
          1 202 rlineto
          3 0 8 -1 3 vhcurveto
          5 -1 -6 7 -10 hhcurveto
          -7 -1 -1 -11 -6 hvcurveto
          -32 -56 rlineto
          58 -55 -62 10 -44 hhcurveto
          -129 -86 -118 -114 29 hvcurveto
          29 -113 99 -25 40 -9 101 -25 rcurveline
          54 -14 36 -31 15 -58 rrcurveto
          -91 23 -63 -94 -96 hhcurveto
          -84 -88 38 101 -25 hvcurveto
          -4 15 -3 24 14 vvcurveto
          11 vlineto
          12 -4 -33 callsubr
          rlineto
          -53 56 67 -16 62 38 callsubr
          611 hmoveto
          -10 42 -25 39 -33 29 -35 28 -19 5 -96 23 -5 2 -51 12 -9 2 -46 13 -33 36 -11 44 rrcurveto
          81 -21 62 86 94 hhcurveto
          102 47 -69 -77 19 hvcurveto
          9 -33 0 -20 1 -6 rrcurveto
          -13 3 13 0 7 hhcurveto
          16 -1 2 18 1 hvcurveto
          202 vlineto
          1 3 0 8 -1 3 rrcurveto
          5 -1 -6 7 -10 hhcurveto
          -7 -1 -1 -11 -7 hvcurveto
          -31 -56 rlineto
          58 -55 -62 10 -44 hhcurveto
          -130 -85 -118 -114 29 hvcurveto
          28 -113 100 -25 40 -9 101 -25 rcurveline
          53 -14 36 -31 15 -58 rrcurveto
          -91 23 -62 -94 -96 hhcurveto
          -84 -88 38 101 -26 hvcurveto
          -3 15 -3 24 14 vvcurveto
          0 -1 8 -1 3 vhcurveto
          12 -3 -13 0 -5 hhcurveto
          -14 -3 -1 -19 hvcurveto
          -197 vlineto
          -13 0 79 callgsubr
          -11 2 9 -2 6 hhcurveto
          8 2 3 9 4 hvcurveto
          32 57 rlineto
          -53 56 67 -16 63 38 callsubr
          endchar
        </CharString>
        <CharString name="Sacute">
          175 callsubr
          61 -21 163 -20 hstemhm
          hintmask 11000000
          -96 callsubr
          rlineto
          -53 56 67 -16 62 38 callsubr
          hintmask 00110000
          -64 638 -102 callgsubr
        </CharString>
        <CharString name="Scaron">
          175 callsubr
          hstemhm
          -96 callsubr
          rlineto
          -53 56 67 -16 62 38 callsubr
          -75 602 -75 callsubr
        </CharString>
        <CharString name="Scedilla">
          175 callsubr
          hstem
          -96 callsubr
          37 -35 42 -19 42 -9 rlinecurve
          -41 -50 callgsubr
          -10 39 -45 15 -24 4 rrcurveto
          25 vlineto
          128 7 79 125 -31 121 rrcurveto
          endchar
        </CharString>
        <CharString name="Scircumflex">
          175 callsubr
          hstemhm
          -96 callsubr
          rlineto
          -53 56 67 -16 62 38 callsubr
          -76 521 rmoveto
          -94 callgsubr
          endchar
        </CharString>
        <CharString name="Sdotbelow">
          611 159 callgsubr
          33 662 30 hstemhm
          hintmask 01100000
          -96 callsubr
          rlineto
          -53 56 67 -16 62 38 callsubr
          hintmask 10000000
          -158 -367 rmoveto
          86 callsubr
        </CharString>
        <CharString name="Sigma">
          778 0 43 607 33 hstem
          693 223 rmoveto
          14 -4 -16 0 -3 hhcurveto
          -15 0 -2 -20 -4 hvcurveto
          -143 -21 -53 -29 -163 hhcurveto
          -259 hlineto
          237 282 7 9 1 2 -2 6 rlinecurve
          0 -1 4 -6 10 vhcurveto
          -202 294 rlineto
          237 hlineto
          155 38 -29 -95 25 hvcurveto
          8 -34 1 -14 2 -8 rrcurveto
          -14 3 15 0 3 hhcurveto
          18 0 5 19 -2 hvcurveto
          -24 175 rlineto
          28 -4 -9 0 -22 hhcurveto
          -524 hlineto
          -19 -12 0 -21 6 hvcurveto
          241 -352 -234 -279 -8 -11 -1 -1 2 -5 rlinecurve
          -14 3 11 0 17 hhcurveto
          525 48 callsubr
          25 190 rlineto
          2 11 -1 4 0 vvcurveto
          endchar
        </CharString>
        <CharString name="T">
          100 callgsubr
          hstem
          346 84 vstem
          -100 callsubr
          endchar
        </CharString>
        <CharString name="T_uni0303">
          100 callgsubr
          58 41 26 41 hstemhm
          346 84 hintmask 11001000
          -100 callsubr
          hintmask 00110000
          -155 358 -105 callsubr
        </CharString>
        <CharString name="T_uni0308">
          100 callgsubr
          58 100 hstemhm
          346 84 hintmask 11010000
          -100 callsubr
          hintmask 00100000
          -383 323 -75 callgsubr
        </CharString>
        <CharString name="Tau">
          100 callgsubr
          hstem
          346 84 vstem
          -100 callsubr
          endchar
        </CharString>
        <CharString name="Tcaron">
          778 0 156 callsubr
          vstemhm
          -100 callsubr
          -184 364 -75 callsubr
        </CharString>
        <CharString name="Tcedilla">
          100 callgsubr
          hstem
          346 84 vstem
          711 470 rmoveto
          -16 178 39 callsubr
          -552 hlineto
          -22 -3 0 -18 -1 hvcurveto
          -17 -178 rlineto
          -2 -13 1 -4 0 vvcurveto
          61 callgsubr
          5 hhcurveto
          4 6 0 3 3 hvcurveto
          3 2 -1 2 3 27 rrcurveto
          144 15 26 16 136 hhcurveto
          20 25 0 -2 16 hvcurveto
          3 -14 0 -3 -15 vvcurveto
          -525 vlineto
          -40 -3 -11 -92 vhcurveto
          -13 hlineto
          -19 -12 -59 callgsubr
          -4 1 5 -10 15 38 39 3 40 hhcurveto
          -59 -50 callgsubr
          -10 39 -45 15 -24 4 rrcurveto
          49 vlineto
          40 42 -3 40 hhcurveto
          7 14 18 callsubr
          -17 hhcurveto
          -13 hlineto
          -17 -16 1 1 -18 hvcurveto
          -25 3 -8 2 -3 13 rrcurveto
          -1 6 0 11 0 vvcurveto
          537 vlineto
          31 6 2 7 1 vhcurveto
          2 7 31 0 20 hhcurveto
          99 41 -5 -72 18 hvcurveto
          2 -10 1 -7 1 -9 9 -65 rcurveline
          1 -5 1 -5 rlineto
          0 1 -16 21 18 -1 7 14 -2 vhcurveto
          endchar
        </CharString>
        <CharString name="Tdotbelow">
          778 -200 111 89 156 callsubr
          hintmask 01110000
          -100 callsubr
          hintmask 10000000
          -267 -605 rmoveto
          86 callsubr
        </CharString>
        <CharString name="Theta">
          833 -21 30 298 71 298 28 hstem
          736 436 rmoveto
          -77 callgsubr
          214 166 220 237 -60 hvcurveto
          -90 28 rmoveto
          -214 54 -91 -241 -193 hhcurveto
          -93 -102 66 143 -36 hvcurveto
          208 -53 90 250 193 hhcurveto
          99 97 -75 -137 35 hvcurveto
          -42 -171 rmoveto
          92 vlineto
          1 3 -1 7 -1 3 rrcurveto
          14 -4 131 callsubr
          -5 -10 0 -10 hvcurveto
          -24 -298 vlineto
          4 0 13 -1 3 vhcurveto
          14 -4 -15 0 -3 hhcurveto
          -16 0 -5 -14 hvcurveto
          -88 vlineto
          -13 -1 167 callsubr
          14 0 5 hhcurveto
          17 2 16 18 -3 hvcurveto
          297 hlineto
          1 -5 -1 -8 1 -6 rrcurveto
          -15 4 13 0 6 hhcurveto
          13 4 3 17 -1 hvcurveto
          endchar
        </CharString>
        <CharString name="Thorn">
          681 178 31 313 31 hstem
          167 83 246 100 vstem
          596 365 rmoveto
          87 -72 101 -145 vhcurveto
          -129 50 hlineto
          29 1 13 31 4 vhcurveto
          3 19 26 0 25 hhcurveto
          31 vlineto
          -143 -3 -144 3 rlineto
          -31 vlineto
          29 25 0 -3 21 hvcurveto
          27 -5 0 -17 -24 vvcurveto
          -523 vlineto
          -29 -1 -13 -31 -4 vhcurveto
          -3 -19 -26 0 -25 hhcurveto
          -31 vlineto
          143 3 144 -3 rlineto
          31 vlineto
          -29 -25 0 3 -21 hvcurveto
          -27 5 0 17 24 vvcurveto
          98 139 vlineto
          120 87 89 98 hvcurveto
          -100 1 rmoveto
          -68 -43 -89 -98 vhcurveto
          -105 313 111 hlineto
          22 41 0 -45 36 hvcurveto
          36 -47 0 -55 -9 vvcurveto
          endchar
        </CharString>
        <CharString name="Tlinebelow">
          778 -162 36 126 156 callsubr
          hintmask 01110000
          -100 callsubr
          hintmask 10000000
          -142 -610 -87 callgsubr
        </CharString>
        <CharString name="U">
          22 callsubr
          hstem
          166 84 348 42 vstem
          -105 callgsubr
          endchar
        </CharString>
        <CharString name="U_uni032F">
          806 -210 192 callgsubr
          35 33 638 33 15 callgsubr
          hintmask 00111100
          -105 callgsubr
          hintmask 11000000
          -159 -848 -64 callsubr
        </CharString>
        <CharString name="Uacute">
          22 callsubr
          82 170 callsubr
          hintmask 11001100
          -105 callgsubr
          hintmask 00110000
          -157 201 -102 callgsubr
        </CharString>
        <CharString name="Ubreve">
          22 callsubr
          61 42 133 98 callgsubr
          hintmask 11001100
          -105 callgsubr
          hintmask 00110000
          -155 236 -103 callgsubr
          endchar
        </CharString>
        <CharString name="Ucaron">
          22 callsubr
          15 callgsubr
          vstemhm
          -105 callgsubr
          -168 165 -75 callsubr
        </CharString>
        <CharString name="Ucircumflex">
          22 callsubr
          15 callgsubr
          vstemhm
          -105 callgsubr
          -169 84 rmoveto
          -94 callgsubr
          endchar
        </CharString>
        <CharString name="Udblgrave">
          22 callsubr
          82 -21 193 98 callgsubr
          hintmask 11001100
          -105 callgsubr
          hintmask 00110000
          -176 93 -78 callgsubr
        </CharString>
        <CharString name="Udieresis">
          22 callsubr
          51 100 15 callgsubr
          hintmask 11011000
          -105 callgsubr
          hintmask 00100000
          -19 callsubr
          endchar
        </CharString>
        <CharString name="Udieresisacute">
          22 callsubr
          51 100 81 170 callsubr
          hintmask 11000110
          -105 callgsubr
          hintmask 00111000
          -19 callsubr
          -11 227 -102 callgsubr
        </CharString>
        <CharString name="Udieresiscaron">
          22 callsubr
          51 100 15 callgsubr
          hintmask 11011000
          -105 callgsubr
          hintmask 00100000
          -19 callsubr
          -22 191 -75 callsubr
        </CharString>
        <CharString name="Udieresisgrave">
          22 callsubr
          51 100 81 170 callsubr
          hintmask 11000110
          -105 callgsubr
          hintmask 00111000
          -19 callsubr
          -86 125 -79 callgsubr
        </CharString>
        <CharString name="Udotbelow">
          806 159 callgsubr
          33 638 33 15 callgsubr
          hintmask 01111000
          -105 callgsubr
          hintmask 10000000
          -251 -804 rmoveto
          86 callsubr
        </CharString>
        <CharString name="Ugrave">
          22 callsubr
          82 170 callsubr
          hintmask 11001100
          -105 callgsubr
          hintmask 00110000
          -232 99 -79 callgsubr
        </CharString>
        <CharString name="Uhookabove">
          22 callsubr
          94 -21 205 98 callgsubr
          hintmask 11001100
          -105 callgsubr
          hintmask 00110000
          -209 223 -95 callsubr
        </CharString>
        <CharString name="Uhorn">
          22 callsubr
          0 111 15 callgsubr
          hintmask 00101000
          -65 callgsubr
          hintmask 11011000
          -88 callgsubr
          endchar
        </CharString>
        <CharString name="Uhornacute">
          22 callsubr
          0 111 113 98 callgsubr
          hintmask 00100100
          -65 callgsubr
          hintmask 11001100
          -88 callgsubr
          hintmask 00010000
          -196 148 -102 callgsubr
        </CharString>
        <CharString name="Uhorndotbelow">
          806 159 callgsubr
          115 callgsubr
          0 111 15 callgsubr
          hintmask 00010100
          -65 callgsubr
          hintmask 01101100
          -88 callgsubr
          hintmask 10000000
          -286 -857 rmoveto
          86 callsubr
        </CharString>
        <CharString name="Uhorngrave">
          22 callsubr
          0 111 113 98 callgsubr
          hintmask 00100100
          -65 callgsubr
          hintmask 11001100
          -88 callgsubr
          hintmask 00010000
          -243 46 -79 callgsubr
        </CharString>
        <CharString name="Uhornhookabove">
          22 callsubr
          0 111 167 98 callgsubr
          hintmask 00100100
          -65 callgsubr
          hintmask 11001100
          -88 callgsubr
          hintmask 00010000
          -220 170 -95 callsubr
        </CharString>
        <CharString name="Uhorntilde">
          22 callsubr
          0 111 -60 41 26 41 15 callgsubr
          hintmask 00100010
          -65 callgsubr
          hintmask 11000110
          -88 callgsubr
          hintmask 00011000
          -150 106 -105 callsubr
        </CharString>
        <CharString name="Uhungarumlaut">
          22 callsubr
          82 -21 193 98 callgsubr
          hintmask 11001100
          -105 callgsubr
          hintmask 00110000
          -306 238 -30 callsubr
        </CharString>
        <CharString name="Umacron">
          22 callsubr
          71 36 15 callgsubr
          hintmask 11011000
          -105 callgsubr
          hintmask 00100000
          -126 107 -87 callgsubr
        </CharString>
        <CharString name="Uogonek">
          806 -211 47 143 33 638 147 callgsubr
          348 42 vstem
          733 669 rmoveto
          6 -2 -7 8 -10 -3 -24 -3 -68 -76 -16 3 -7 hhcurveto
          -5 -16 30 callsubr
          4 14 -1 5 hhcurveto
          32 -1 30 -6 9 -33 rrcurveto
          -24 vlineto
          -357 vlineto
          -121 -84 -96 -103 -53 -73 30 100 -25 vhcurveto
          -7 26 -2 29 21 vvcurveto
          -1 389 rlineto
          -90 callgsubr
          -384 vlineto
          -28 4 -13 5 -18 vhcurveto
          28 -110 88 -64 88 -14 -31 -29 -23 -35 1 -39 rrcurveto
          -46 2 48 -44 65 -28 callsubr
          -2 hvcurveto
          -1 145 callsubr
          4 4 rcurveline
          3 hlineto
          139 85 131 107 hvcurveto
          359 vlineto
          -3 70 51 2 33 2 10 1 5 6 -3 12 rrcurveto
          endchar
        </CharString>
        <CharString name="Upsilon">
          833 0 33 600 71 hstem
          374 84 vstem
          743 591 rmoveto
          68 -18 -50 45 -63 hhcurveto
          -151 -33 -181 -59 -12 hvcurveto
          -1 hlineto
          -1 9 -4 24 -5 18 rrcurveto
          85 -21 -51 104 -113 hhcurveto
          -116 -28 -133 -28 7 hvcurveto
          -11 3 13 179 callsubr
          9 10 2 hvcurveto
          49 5 39 33 53 hhcurveto
          89 35 -78 -64 16 hvcurveto
          15 -60 0 -49 -47 vvcurveto
          -257 vlineto
          -34 1 -3 -11 -83 hhcurveto
          164 callsubr
          vhcurveto
          68 3 rlineto
          142 hlineto
          -1 24 27 -2 23 172 callgsubr
          -15 hhcurveto
          -8 171 callgsubr
          -3 14 rrcurveto
          -1 4 -1 2 15 vvcurveto
          252 vlineto
          73 0 235 153 61 29 -40 -27 6 vhcurveto
          4 -14 -2 -4 1 -4 179 callgsubr
          4 hhcurveto
          16 11 5 54 -13 hvcurveto
          endchar
        </CharString>
        <CharString name="Uring">
          22 callsubr
          31 35 106 35 15 callgsubr
          hintmask 11001100
          -105 callgsubr
          hintmask 00110000
          -250 154 -10 callsubr
          endchar
        </CharString>
        <CharString name="Utilde">
          22 callsubr
          51 41 26 41 15 callgsubr
          hintmask 11001100
          -105 callgsubr
          hintmask 00110000
          -139 159 -105 callsubr
        </CharString>
        <CharString name="V">
          806 0 -21 671 33 hstem
          757 669 rmoveto
          8 -2 -7 6 -9 -11 4 -3 -72 -63 -25 3 -5 hhcurveto
          -5 -14 30 callsubr
          3 13 -1 3 hhcurveto
          11 -1 28 -2 6 -26 4 -15 -5 -14 -5 -13 -186 -489 rcurveline
          -199 518 -10 26 7 15 51 1 rlinecurve
          15 145 callgsubr
          8 -2 -7 6 -9 -36 -38 -3 -37 -87 -8 173 callsubr
          13 0 13 hhcurveto
          48 3 -8 -24 9 hvcurveto
          235 -613 rlineto
          -20 9 1 -6 20 hhcurveto
          21 3 7 12 4 hvcurveto
          217 566 29 76 36 7 31 3 rlinecurve
          8 1 11 1 -5 17 rrcurveto
          endchar
        </CharString>
        <CharString name="W">
          139 callgsubr
          hstem
          -89 callsubr
          endchar
        </CharString>
        <CharString name="Wacute">
          139 callgsubr
          82 -21 163 -20 hstemhm
          hintmask 11000000
          -89 callsubr
          hintmask 00110000
          -345 201 -102 callgsubr
        </CharString>
        <CharString name="Wcircumflex">
          139 callgsubr
          hstemhm
          -89 callsubr
          -357 84 rmoveto
          -94 callgsubr
          endchar
        </CharString>
        <CharString name="Wdieresis">
          139 callgsubr
          51 100 hstemhm
          hintmask 11000000
          -89 callsubr
          hintmask 00100000
          -555 5 callsubr
        </CharString>
        <CharString name="Wgrave">
          139 callgsubr
          82 -21 163 -20 hstemhm
          hintmask 11000000
          -89 callsubr
          hintmask 00110000
          -420 99 -79 callgsubr
        </CharString>
        <CharString name="X">
          -48 callgsubr
        </CharString>
        <CharString name="Xi">
          722 0 66 227 -21 47 66 47 -20 133 -21 86 66 hstem
          645 546 rmoveto
          -9 116 rlineto
          14 -3 -13 0 -15 hhcurveto
          -497 hlineto
          -21 -5 0 -18 hvcurveto
          -7 -108 rlineto
          -12 vlineto
          -14 4 14 158 callgsubr
          2 25 3 hvcurveto
          1 16 3 32 6 5 rrcurveto
          6 5 51 0 11 hhcurveto
          341 hlineto
          9 41 -1 -2 14 hvcurveto
          4 -15 2 -12 2 -32 rrcurveto
          -1 -3 2 -7 0 vvcurveto
          -14 4 15 0 3 hhcurveto
          17 0 5 17 -1 hvcurveto
          6 -397 101 callgsubr
          -15 0 -4 -19 -1 hvcurveto
          0 -4 -57 -6 -10 vhcurveto
          -7 -5 -65 0 -4 hhcurveto
          -343 hlineto
          -20 -24 0 3 -18 hvcurveto
          -5 1 -1 0 -3 10 -2 8 -2 23 -1 14 rrcurveto
          -1 19 -1 4 0 vvcurveto
          15 -3 -14 0 -6 hhcurveto
          -16 1 -6 -14 hvcurveto
          1 -18 4 -99 3 -10 rrcurveto
          -16 4 9 0 19 hhcurveto
          509 hlineto
          22 2 0 15 1 hvcurveto
          2 20 9 101 -3 13 rrcurveto
          -97 142 rmoveto
          107 vlineto
          13 1 2 -1 4 vhcurveto
          13 -4 -10 2 -9 hhcurveto
          -15 -1 -5 -11 -1 hvcurveto
          1 -5 0 -2 -24 vvcurveto
          -310 hlineto
          8 2 15 -3 9 vhcurveto
          13 -3 -11 2 -9 hhcurveto
          -15 0 -6 -13 hvcurveto
          -108 vlineto
          -18 vlineto
          -13 4 9 -2 10 hhcurveto
          15 1 5 11 1 hvcurveto
          -1 5 0 2 24 vvcurveto
          310 hlineto
          -8 -2 -15 3 -9 vhcurveto
          -13 3 11 -2 9 hhcurveto
          15 0 6 13 hvcurveto
          endchar
        </CharString>
        <CharString name="Y">
          119 callgsubr
          360 84 vstem
          -102 callsubr
          endchar
        </CharString>
        <CharString name="Yacute">
          45 callsubr
          82 -21 163 -20 hstemhm
          360 84 hintmask 11001000
          -102 callsubr
          hintmask 00110000
          -211 201 -102 callgsubr
        </CharString>
        <CharString name="Ycircumflex">
          45 callsubr
          hstemhm
          360 84 vstemhm
          -102 callsubr
          -223 84 rmoveto
          -94 callgsubr
          endchar
        </CharString>
        <CharString name="Ydieresis">
          45 callsubr
          51 100 hstemhm
          360 84 hintmask 11010000
          -102 callsubr
          hintmask 00100000
          -421 5 callsubr
        </CharString>
        <CharString name="Ydotbelow">
          806 95 callsubr
          360 84 hintmask 01110000
          -102 callsubr
          hintmask 10000000
          -305 -804 rmoveto
          86 callsubr
        </CharString>
        <CharString name="Ygrave">
          45 callsubr
          82 -21 163 -20 hstemhm
          360 84 hintmask 11001000
          -102 callsubr
          hintmask 00110000
          -286 99 -79 callgsubr
        </CharString>
        <CharString name="Yhookabove">
          45 callsubr
          94 -21 205 -20 hstemhm
          360 84 hintmask 11001000
          -102 callsubr
          hintmask 00111000
          -263 223 -95 callsubr
        </CharString>
        <CharString name="Ytilde">
          45 callsubr
          51 41 26 41 hstemhm
          360 84 hintmask 11001000
          -102 callsubr
          hintmask 00110000
          -193 159 -105 callsubr
        </CharString>
        <CharString name="Z">
          113 callsubr
          hstem
          -81 callsubr
          endchar
        </CharString>
        <CharString name="Zacute">
          113 callsubr
          82 -21 163 -20 hstemhm
          hintmask 11000000
          -81 callsubr
          hintmask 00110000
          -105 615 -102 callgsubr
        </CharString>
        <CharString name="Zcaron">
          113 callsubr
          hstemhm
          -81 callsubr
          -116 579 -75 callsubr
        </CharString>
        <CharString name="Zdotaccent">
          113 callsubr
          73 111 hstemhm
          hintmask 11000000
          -81 callsubr
          hintmask 00100000
          -200 566 -37 callsubr
          endchar
        </CharString>
        <CharString name="Zdotbelow">
          667 42 callsubr
          89 36 614 33 hstemhm
          hintmask 01100000
          -81 callsubr
          hintmask 10000000
          -199 -390 rmoveto
          86 callsubr
        </CharString>
        <CharString name="Zeta">
          113 callsubr
          hstem
          -81 callsubr
          endchar
        </CharString>
        <CharString name="a">
          -24 callsubr
          hstem
          336 73 vstem
          -106 callgsubr
          endchar
        </CharString>
        <CharString name="aacute">
          -24 callsubr
          49 callsubr
          336 73 hintmask 11001000
          -106 callgsubr
          hintmask 00110000
          69 361 -97 callsubr
        </CharString>
        <CharString name="abreve">
          -24 callsubr
          70 151 callgsubr
          152 callgsubr
          hintmask 11001000
          -106 callgsubr
          hintmask 00110000
          93 368 -103 callgsubr
          endchar
        </CharString>
        <CharString name="abreveacute">
          136 callsubr
          316 -20 152 callgsubr
          hintmask 11001000
          -106 callgsubr
          hintmask 00110000
          93 369 -62 callgsubr
          -40 160 rmoveto
          21 -2 -17 16 -21 -7 callsubr
          -151 -114 rlineto
          -2 -2 -8 -7 -7 vvcurveto
          1 -6 9 -16 12 -2 rrcurveto
          4 3 1 4 7 hvcurveto
          167 91 rlineto
          20 10 1 11 9 vvcurveto
          endchar
        </CharString>
        <CharString name="abrevedotbelow">
          111 callgsubr
          70 151 callgsubr
          152 callgsubr
          hintmask 01111100
          -106 callgsubr
          93 368 -103 callgsubr
          hintmask 10000000
          -96 -807 rmoveto
          86 callsubr
        </CharString>
        <CharString name="abrevegrave">
          136 callsubr
          133 -20 152 callgsubr
          hintmask 11001000
          -106 callgsubr
          hintmask 00110000
          93 369 -62 callgsubr
          -41 58 rmoveto
          -6 -10 -16 -11 -2 vhcurveto
          -4 -4 1 4 -6 hvcurveto
          -167 91 rlineto
          -20 10 -1 11 9 vvcurveto
          21 2 17 16 20 hhcurveto
          13 11 -9 0 hvcurveto
          150 -114 3 -2 8 -7 -1 -7 rlinecurve
          endchar
        </CharString>
        <CharString name="abrevehookabove">
          136 callsubr
          338 -20 152 callgsubr
          hintmask 11001000
          -106 callgsubr
          hintmask 00110000
          93 369 -62 callgsubr
          -54 150 47 callsubr
          -16 9 rrcurveto
          13 -22 -24 3 -29 hhcurveto
          -43 -1 callsubr
          -2 5 0 vvcurveto
          -2 9 -6 7 -8 121 callsubr
          22 hhcurveto
          1 hlineto
          20 13 -3 -7 7 hvcurveto
          3 -1 callgsubr
          158 callsubr
          -5 6 -1 rrcurveto
          55 callgsubr
          rlineto
          27 24 21 39 19 vhcurveto
          17 8 13 87 callgsubr
        </CharString>
        <CharString name="abrevetilde">
          136 callsubr
          173 41 26 41 152 callgsubr
          hintmask 11000100
          -106 callgsubr
          hintmask 00111000
          93 369 -62 callgsubr
          14 148 -67 callgsubr
        </CharString>
        <CharString name="acaron">
          -9 callsubr
          81 359 -68 callsubr
        </CharString>
        <CharString name="acircumflex">
          -9 callsubr
          81 230 -80 callsubr
          endchar
        </CharString>
        <CharString name="acircumflexacute">
          -24 callsubr
          377 -20 -51 callgsubr
          79 231 -47 callsubr
        </CharString>
        <CharString name="acircumflexdotbelow">
          163 callsubr
          336 73 hintmask 01110000
          -106 callgsubr
          81 230 -80 callsubr
          hintmask 10000000
          -84 -669 rmoveto
          86 callsubr
        </CharString>
        <CharString name="acircumflexgrave">
          -9 callsubr
          79 231 -46 callsubr
        </CharString>
        <CharString name="acircumflexhookabove">
          -24 callsubr
          399 -20 -51 callgsubr
          79 231 -73 callgsubr
        </CharString>
        <CharString name="acircumflextilde">
          -24 callsubr
          234 41 26 41 152 callgsubr
          hintmask 11001000
          -106 callgsubr
          hintmask 00110000
          79 231 -70 callgsubr
          28 234 -67 callgsubr
        </CharString>
        <CharString name="acute">
          556 522 126 callsubr
          405 665 -97 callsubr
        </CharString>
        <CharString name="acute.cap">
          184 callgsubr
          -21 163 -20 hstem
          427 617 -102 callgsubr
        </CharString>
        <CharString name="acute.dup">
          556 522 126 callsubr
          405 665 -97 callsubr
        </CharString>
        <CharString name="acute.ts1">
          556 523 -21 194 121 callgsubr
          415 666 rmoveto
          14 -4 -13 17 -21 hhcurveto
          hintmask 11000000
          -5 -1 -22 -3 -15 -26 -12 -16 rlinecurve
          -63 -77 -12 -14 -27 -21 4 -17 rlinecurve
          -10 3 9 -10 12 hhcurveto
          7 5 5 4 5 hvcurveto
          107 94 21 17 28 16 -7 28 rlinecurve
          endchar
        </CharString>
        <CharString name="adblgrave">
          -24 callsubr
          142 callsubr
          336 73 hintmask 11001000
          -106 callgsubr
          hintmask 00110000
          72 216 -84 callgsubr
        </CharString>
        <CharString name="adieresis">
          -24 callsubr
          108 100 -51 callgsubr
          -102 304 -54 callsubr
        </CharString>
        <CharString name="adotbelow">
          163 callsubr
          336 73 hintmask 01110000
          -106 callgsubr
          hintmask 10000000
          -3 -439 rmoveto
          86 callsubr
        </CharString>
        <CharString name="ae">
          778 21 callsubr
          hstem
          -58 callgsubr
          endchar
        </CharString>
        <CharString name="ae.dup">
          778 21 callsubr
          hstem
          -58 callgsubr
          endchar
        </CharString>
        <CharString name="aeacute">
          778 21 callsubr
          155 callsubr
          -58 callgsubr
          hintmask 00011000
          159 283 -97 callsubr
        </CharString>
        <CharString name="agrave">
          -24 callsubr
          49 callsubr
          336 73 hintmask 11001000
          -106 callgsubr
          hintmask 00110000
          6 218 -72 callgsubr
        </CharString>
        <CharString name="ahookabove">
          -24 callsubr
          76 -21 205 -20 152 callgsubr
          hintmask 11001000
          -106 callgsubr
          hintmask 00110000
          40 328 -99 callgsubr
        </CharString>
        <CharString name="amacron">
          -24 callsubr
          140 36 -51 callgsubr
          122 299 -87 callgsubr
        </CharString>
        <CharString name="ampersand">
          833 -21 28 297 28 102 28 59 84 82 28 hstem
          714 304 rmoveto
          -17 65 -40 50 -46 47 85 75 0 103 -5 17 rrcurveto
          24 -6 -20 9 -17 hhcurveto
          -28 -16 -24 -25 6 hvcurveto
          4 -16 15 -14 20 -3 -18 -86 -53 -36 -36 -26 -55 -36 -59 -41 18 -71 rrcurveto
          -44 11 41 -30 41 hhcurveto
          38 6 33 15 -4 hvcurveto
          19 -5 -18 15 -21 hhcurveto
          -9 -25 -2 -31 -5 hvcurveto
          -5 7 -3 4 -4 13 -13 53 38 25 74 50 54 -52 26 -43 12 -47 rrcurveto
          -70 18 4 -224 -282 hhcurveto
          -105 -109 46 111 -28 hvcurveto
          -10 42 1 74 16 58 rrcurveto
          -25 34 37 -9 27 hhcurveto
          61 31 51 43 -11 hvcurveto
          28 -7 -28 36 -52 hhcurveto
          -29 -36 -10 -24 -32 hvcurveto
          121 -25 32 138 90 hhcurveto
          37 46 -24 -59 17 hvcurveto
          -40 -3 -2 -31 3 -15 rrcurveto
          -28 8 23 -6 13 hhcurveto
          54 -16 65 12 -3 hvcurveto
          67 -17 -61 50 -69 hhcurveto
          -116 -77 -136 -124 32 hvcurveto
          2 -8 10 -33 18 -27 -48 -63 -12 -89 14 -55 rrcurveto
          -104 26 124 -97 183 hhcurveto
          302 14 232 93 -23 hvcurveto
          -395 99 rmoveto
          -31 8 -12 -40 -43 hhcurveto
          -35 -28 27 18 -12 hvcurveto
          41 25 29 16 28 hhcurveto
          18 17 -9 -22 5 hvcurveto
          endchar
        </CharString>
        <CharString name="anglearc">
          833 -58 -21 658 -20 hstem
          580 46 vstem
          749 23 rmoveto
          10 -6 8 -9 4 vhcurveto
          -133 48 rlineto
          17 50 8 53 54 vvcurveto
          54 -9 53 -16 50 vhcurveto
          132 48 rlineto
          10 4 6 8 10 vvcurveto
          16 -17 11 -15 -5 vhcurveto
          -132 -49 -18 43 -24 40 -30 37 rlinecurve
          6 -5 -6 3 -8 hhcurveto
          -13 -10 -10 -13 -5 1 -5 4 -4 hvcurveto
          27 -33 22 -37 16 -38 -443 -162 rcurveline
          -9 -4 -6 -8 1 -10 -1 -10 6 -8 9 -4 443 -162 rcurveline
          -16 -38 -22 -37 -27 -33 -3 -4 -1 -5 -1 -5 rrcurveto
          -13 11 -10 12 8 6 3 6 5 vhcurveto
          29 37 24 40 19 43 133 -49 rcurveline
          14 -5 17 11 16 vvcurveto
          -169 227 rmoveto
          -1 -48 -7 -48 -14 -45 -384 141 rcurveline
          383 141 rlineto
          15 -45 8 -48 -48 vvcurveto
          endchar
        </CharString>
        <CharString name="angleleft">
          444 -228 -21 1000 -20 hstem
          358 -221 rmoveto
          -3 9 -4 10 -3 8 -6 14 rcurveline
          -50 134 -45 136 -53 133 -3 6 -2 6 -2 6 -1 4 rcurveline
          2 12 6 11 4 11 146 396 rcurveline
          6 16 13 20 -5 17 rrcurveto
          12 -3 -10 11 -14 hhcurveto
          -5 -1 -10 -2 -3 -8 -3 -8 rlinecurve
          -9 -25 -155 -417 -4 -11 -9 -15 3 -14 rlinecurve
          2 -6 3 -6 2 -6 17 -45 rcurveline
          138 -374 11 -29 rlineto
          -14 5 6 -19 21 hhcurveto
          19 1 14 14 -3 hvcurveto
          endchar
        </CharString>
        <CharString name="angleright">
          444 -228 -21 999 121 callgsubr
          306 252 rmoveto
          -5 20 -12 25 -8 22 -148 400 rcurveline
          14 -6 -6 18 -19 hhcurveto
          hintmask 11000000
          -6 -1 rlineto
          -13 -1 -16 -9 2 hvcurveto
          2 -8 4 -9 3 -8 5 -14 rcurveline
          150 -404 2 -6 3 -7 2 -7 rlinecurve
          1 -5 -2 -12 -6 -11 -4 -11 rlinecurve
          -145 -394 -7 -17 -12 -23 4 -15 rlinecurve
          -12 3 10 -11 15 hhcurveto
          1 hlineto
          19 2 2 25 7 14 155 420 rcurveline
          4 11 9 15 -3 14 rrcurveto
          endchar
        </CharString>
        <CharString name="aogonek">
          556 84 callgsubr
          hstem
          336 73 vstem
          -32 callsubr
          endchar
        </CharString>
        <CharString name="aogonekacute">
          556 84 callgsubr
          49 callsubr
          336 73 hintmask 11100100
          -32 callsubr
          hintmask 00011000
          69 361 -97 callsubr
        </CharString>
        <CharString name="aring">
          -24 callsubr
          86 35 106 35 152 callgsubr
          hintmask 11001000
          -106 callgsubr
          hintmask 00110000
          -2 332 rmoveto
          -5 1 20 -69 -73 callsubr
          endchar
        </CharString>
        <CharString name="aringacute">
          -24 callsubr
          86 35 106 35 183 -20 152 callgsubr
          hintmask 11000100
          -106 callgsubr
          hintmask 00111000
          -2 332 -52 callsubr
        </CharString>
        <CharString name="asciicircum">
          563 583 -21 182 -20 hstem
          568 584 rmoveto
          -286 160 -287 -160 12 -22 273 123 276 -123 rlineto
          endchar
        </CharString>
        <CharString name="asciitilde">
          563 193 43 28 43 hstem
          562 290 187 callgsubr
          -41 -29 17 20 -36 hvcurveto
          17 -29 -31 17 -40 hhcurveto
          -26 -26 -8 -10 -23 hvcurveto
          -20 -10 -20 -11 -18 -14 -55 -44 rcurveline
          15 -17 rlineto
          41 49 54 30 52 hhcurveto
          41 29 -17 -20 36 hvcurveto
          -17 28 32 -17 40 hhcurveto
          26 150 callgsubr
        </CharString>
        <CharString name="asciitilde.low">
          563 0 43 28 43 hstem
          562 97 187 callgsubr
          -40 -30 17 20 -35 hvcurveto
          17 -30 -31 17 -40 hhcurveto
          -25 -27 -8 -10 -23 hvcurveto
          -19 -10 -21 -11 -18 -14 -54 -44 rcurveline
          14 -17 rlineto
          41 50 54 30 51 hhcurveto
          41 29 -17 -20 36 hvcurveto
          -17 29 31 -17 41 hhcurveto
          25 150 callgsubr
        </CharString>
        <CharString name="asterisk">
          556 340 -21 431 -20 hstem
          461 448 rmoveto
          -2 6 -2 7 -19 9 -134 64 rcurveline
          137 67 8 4 17 8 -6 21 rlinecurve
          7 -2 -7 15 -18 hhcurveto
          -3 -6 0 -6 -7 hvcurveto
          -126 -91 13 154 rlineto
          1 13 -1 4 0 vvcurveto
          12 -3 -11 8 -14 hhcurveto
          -21 -7 -17 -19 2 hvcurveto
          12 -154 -119 86 rlineto
          10 -13 -6 0 -5 hhcurveto
          -16 -14 -18 -17 4 hvcurveto
          2 -9 6 -6 13 -6 135 -65 rcurveline
          -136 -68 -11 -6 -14 -6 5 -20 rlinecurve
          -15 4 13 -7 11 hhcurveto
          7 6 3 3 3 hvcurveto
          126 90 -14 -154 rlineto
          -4 -1 -7 1 -5 vhcurveto
          -6 2 8 -14 19 hhcurveto
          23 4 19 17 -1 hvcurveto
          -13 154 119 -86 rlineto
          -10 14 6 0 4 hhcurveto
          15 17 16 19 -5 hvcurveto
          endchar
        </CharString>
        <CharString name="asterisk.math">
          556 57 -21 430 -20 hstem
          459 165 rmoveto
          -3 13 -10 4 -12 6 -31 15 rcurveline
          -32 16 -34 19 -31 12 rrcurveto
          2 vlineto
          23 7 26 15 23 13 31 13 59 16 -9 36 rrcurveto
          10 -3 -9 10 -16 hhcurveto
          -14 -13 -13 -7 -9 hvcurveto
          -67 -48 -12 -9 -12 -9 -13 -8 rlinecurve
          11 132 2 10 3 14 -3 12 rlinecurve
          12 -3 -13 8 -11 hhcurveto
          -30 1 -26 -24 1 hvcurveto
          9 -104 1 -11 1 -12 2 -11 rlinecurve
          -12 7 -13 9 -11 9 -82 59 rcurveline
          6 -8 -8 5 -9 hhcurveto
          -18 -12 -20 -16 4 hvcurveto
          3 -13 10 -4 12 -6 31 -15 rcurveline
          33 -16 34 -19 30 -12 1 -2 rcurveline
          -24 -7 -26 -15 -23 -13 -31 -13 -58 -16 9 -36 rrcurveto
          -10 2 10 -10 15 hhcurveto
          14 13 13 7 9 hvcurveto
          67 48 12 9 12 9 13 8 rlinecurve
          -11 -132 -1 -10 -4 -14 3 -12 rlinecurve
          -12 3 13 -8 11 hhcurveto
          31 -2 26 24 -1 hvcurveto
          -9 104 -3 34 12 -7 12 -9 11 -9 rlinecurve
          82 -59 rlineto
          -6 9 7 -5 9 hhcurveto
          18 13 20 16 -5 hvcurveto
          endchar
        </CharString>
        <CharString name="at">
          833 -10 28 109 28 384 28 109 28 hstem
          748 72 rmoveto
          12 -3 -10 0 -18 hhcurveto
          -17 -2 0 -7 -14 hvcurveto
          -44 -94 -100 -15 -72 hhcurveto
          -149 -104 109 127 -32 hvcurveto
          216 -55 149 206 191 hhcurveto
          136 111 -103 -133 34 hvcurveto
          -38 9 28 -247 -94 hhcurveto
          -6 -12 0 25 -6 hvcurveto
          -3 20 rlineto
          257 vlineto
          -1 13 rlineto
          13 -3 -11 0 -17 hhcurveto
          -25 hlineto
          46 -30 -53 38 -64 hhcurveto
          -127 -96 -136 -141 35 hvcurveto
          -91 23 78 -72 94 hhcurveto
          66 45 42 22 18 hvcurveto
          -42 15 42 -22 40 hhcurveto
          132 -24 251 59 -15 hvcurveto
          169 -43 -140 98 -142 hhcurveto
          -217 -158 -221 -227 57 hvcurveto
          -136 35 117 -130 179 hhcurveto
          154 127 52 19 37 hvcurveto
          4 2 3 4 -2 5 rrcurveto
          -203 353 rmoveto
          -1 -149 rlineto
          -33 -20 -25 -21 -21 vhcurveto
          -24 -23 -32 -18 -35 hhcurveto
          -62 -42 65 57 -15 hvcurveto
          123 -31 63 139 93 hhcurveto
          77 42 -82 -19 5 hvcurveto
          0 2 -10 -3 vvcurveto
          endchar
        </CharString>
        <CharString name="atilde">
          -24 callsubr
          104 41 26 41 152 callgsubr
          hintmask 11001000
          -106 callgsubr
          hintmask 00110000
          109 335 -105 callsubr
        </CharString>
        <CharString name="b">
          72 callsubr
          290 vlineto
          15 -19 -1 -11 -1 vhcurveto
          -103 -9 -14 -1 -11 -1 5 -18 rlinecurve
          93 callsubr
          14 hhcurveto
          48 5 -6 -9 hvcurveto
          -412 vlineto
          -3 -1 -37 10 56 callsubr
          98 vvcurveto
          31 16 24 18 22 vhcurveto
          105 callgsubr
        </CharString>
        <CharString name="backslash">
          538 750 -20 hstem
          477 -227 rmoveto
          0 0 6 -5 12 vhcurveto
          -363 935 rlineto
          12 -5 -4 12 -16 hhcurveto
          -14 -10 -10 -13 0 -1 -6 6 -12 hvcurveto
          364 -935 rlineto
          -12 5 4 -12 16 hhcurveto
          13 10 10 13 hvcurveto
          endchar
        </CharString>
        <CharString name="baht">
          764 0 33 308 28 281 33 hstem
          358 32 vstem
          675 217 rmoveto
          -19 74 -75 56 -92 10 99 20 83 75 -23 93 rrcurveto
          79 -20 -88 59 -111 hhcurveto
          -39 32 hlineto
          9 -7 7 -9 -9 -8 -7 -9 1 vhcurveto
          -32 -257 vlineto
          -18 -49 callgsubr
          0 -2 -14 vvcurveto
          -537 73 callgsubr
          250 -32 hlineto
          -9 1 8 -7 8 hhcurveto
          161 callsubr
          hvcurveto
          32 67 vlineto
          149 95 114 103 -26 hvcurveto
          -115 330 rmoveto
          -81 21 -62 -97 -123 hhcurveto
          -5 hlineto
          -1 281 rlineto
          33 hlineto
          109 25 -91 -12 3 hvcurveto
          -202 -178 rmoveto
          -111 hlineto
          -1 246 rlineto
          35 1 7 0 31 hhcurveto
          73 hlineto
          225 -424 rmoveto
          -99 25 -70 -94 -113 hhcurveto
          -34 308 47 hlineto
          111 30 -100 -15 4 hvcurveto
          -225 -193 rmoveto
          -80 -39 callsubr
          279 111 vlineto
          endchar
        </CharString>
        <CharString name="bar">
          299 138 callgsubr
          126 46 vstem
          172 -214 rmoveto
          62 callsubr
          24 -1 22 14 vhcurveto
          endchar
        </CharString>
        <CharString name="bigcircle">
          74 callgsubr
          598 46 vstem
          691 342 rmoveto
          -1 hlineto
          188 -155 153 -191 -191 -153 -153 -188 -189 155 -153 191 191 154 153 189 vhcurveto
          -47 hmoveto
          -164 1 -134 -132 -165 hhcurveto
          -166 -134 132 164 163 132 132 166 165 135 -132 -163 hvcurveto
          endchar
        </CharString>
        <CharString name="blanksymbol">
          72 callsubr
          169 vlineto
          80 76 rlineto
          2 3 2 4 4 vvcurveto
          143 callgsubr
          -4 -4 -1 -3 -3 hvcurveto
          -57 -54 rlineto
          61 vlineto
          15 -66 callgsubr
          3 hvcurveto
          -22 vlineto
          -77 vlineto
          -80 -78 rlineto
          -2 -2 -2 -4 -5 vvcurveto
          -9 7 -7 9 4 4 2 3 3 vhcurveto
          57 55 rlineto
          -268 vlineto
          -3 0 -37 9 56 callsubr
          2 98 -1 31 15 24 18 22 rrcurveto
          105 callgsubr
        </CharString>
        <CharString name="braceleft">
          134 callgsubr
          -236 rmoveto
          13 -10 1 -5 vhcurveto
          -84 5 -40 37 -12 41 rrcurveto
          -3 9 0 2 36 vvcurveto
          150 vlineto
          95 0 14 -26 30 vhcurveto
          -10 11 -20 23 -60 19 rrcurveto
          116 36 0 62 48 vvcurveto
          150 vlineto
          93 0 16 27 26 vhcurveto
          27 30 36 14 41 hhcurveto
          12 8 0 14 14 -10 0 -13 -109 -97 -49 -77 -1 hvcurveto
          -234 vlineto
          -29 0 -32 -37 -30 vhcurveto
          -22 -18 -32 -14 -44 -3 rrcurveto
          -12 -1 -8 0 -13 vvcurveto
          -13 10 -1 5 vhcurveto
          101 -6 29 -54 7 -25 rrcurveto
          3 -12 0 -6 -31 vvcurveto
          -204 vlineto
          -30 0 -44 56 -36 vhcurveto
          -34 54 75 -4 22 hhcurveto
          13 10 0 14 hvcurveto
          endchar
        </CharString>
        <CharString name="braceright">
          134 callgsubr
          250 rmoveto
          13 -10 1 -5 vhcurveto
          -113 6 -25 71 -1 27 rrcurveto
          234 vlineto
          31 0 43 -57 36 vhcurveto
          31 -47 -70 7 -32 hhcurveto
          -13 -12 0 -14 -13 11 -1 5 hvcurveto
          70 -4 51 -27 15 -52 rrcurveto
          3 -9 0 -2 -36 vvcurveto
          -150 vlineto
          -32 0 -51 3 -14 vhcurveto
          13 -49 47 -30 54 -16 rrcurveto
          -117 -34 0 -67 -45 vvcurveto
          -150 vlineto
          -32 0 -51 -3 -11 vhcurveto
          -55 -18 -59 -27 -54 hhcurveto
          -13 -8 0 -14 -14 12 0 13 107 98 48 78 1 hvcurveto
          234 vlineto
          29 0 32 37 30 vhcurveto
          37 30 44 4 16 1 rrcurveto
          11 1 9 0 13 vvcurveto
          endchar
        </CharString>
        <CharString name="bracketleft">
          333 -250 46 908 46 hstem
          142 46 vstem
          283 736 rmoveto
          131 callgsubr
          -15 hhcurveto
          -84 hlineto
          -24 -2 0 -20 1 hvcurveto
          -951 vlineto
          -15 vlineto
          93 callsubr
          16 hhcurveto
          84 hlineto
          15 6 0 7 2 hvcurveto
          3 5 -2 20 0 vvcurveto
          131 callgsubr
          -15 hhcurveto
          -62 908 69 hlineto
          17 5 0 6 3 hvcurveto
          2 5 0 17 -1 4 rrcurveto
          endchar
        </CharString>
        <CharString name="bracketright">
          333 -250 46 908 46 hstem
          144 46 vstem
          190 -230 rmoveto
          951 118 callgsubr
          -3 -13 0 -16 hhcurveto
          -84 hlineto
          -15 -6 0 -7 -2 hvcurveto
          -3 -5 2 -20 0 vvcurveto
          -14 4 13 0 15 hhcurveto
          63 -908 -70 hlineto
          -17 -5 0 -6 -3 hvcurveto
          -2 -5 1 -17 1 -4 rrcurveto
          93 callsubr
          16 hhcurveto
          84 hlineto
          23 2 0 20 hvcurveto
          endchar
        </CharString>
        <CharString name="breve">
          556 511 151 callgsubr
          hstem
          429 672 -103 callgsubr
          endchar
        </CharString>
        <CharString name="breve.cap">
          556 491 42 133 30 callgsubr
          endchar
        </CharString>
        <CharString name="breve.ts1">
          667 519 151 callgsubr
          21 -20 hstemhm
          hintmask 10100000
          541 671 rmoveto
          3 0 3 -1 3 vhcurveto
          -2 7 -5 7 -9 1 rrcurveto
          -1 hlineto
          -13 1 -15 -10 -1 hvcurveto
          -74 -10 -90 -35 -80 hhcurveto
          -53 -102 16 78 -20 hvcurveto
          -2 7 rlineto
          5 1 6 -2 5 vhcurveto
          hintmask 11000000
          9 -2 -8 7 -8 hhcurveto
          -3 hlineto
          -13 -3 5 -26 3 -11 1 -5 rcurveline
          -91 23 105 -39 79 hhcurveto
          97 106 51 101 4 hvcurveto
          endchar
        </CharString>
        <CharString name="brokenbar">
          299 125 48 vstem
          173 343 rmoveto
          371 vlineto
          14 0 22 -24 -23 0 -22 -14 -1 vhcurveto
          -371 vlineto
          -11 12 -5 12 11 12 5 11 1 vhcurveto
          -557 vmoveto
          371 vlineto
          11 -12 5 -12 -12 -11 -5 -11 -1 vhcurveto
          -371 vlineto
          -14 1 -22 23 24 -1 22 14 1 vhcurveto
          endchar
        </CharString>
        <CharString name="bullet">
          833 72 304 hstem
          104 callsubr
          endchar
        </CharString>
        <CharString name="c">
          101 callsubr
          hstem
          -65 callsubr
          -102 26 84 -67 97 81 callsubr
          endchar
        </CharString>
        <CharString name="cacute">
          101 callsubr
          49 callsubr
          hintmask 11000000
          -65 callsubr
          -102 26 84 -67 97 81 callsubr
          hintmask 00110000
          -81 565 -97 callsubr
        </CharString>
        <CharString name="caron">
          556 417 663 -68 callsubr
        </CharString>
        <CharString name="caron.cap">
          556 416 581 -75 callsubr
        </CharString>
        <CharString name="caron.ts1">
          667 557 -21 162 121 callgsubr
          528 677 rmoveto
          11 -2 -11 11 -9 hhcurveto
          -5 -4 -3 -2 -4 hvcurveto
          -29 -18 -123 -75 rlineto
          -3 -3 -5 -3 -5 hhcurveto
          -4 1 -6 3 -4 3 -25 15 rcurveline
          -123 76 rlineto
          3 -5 -5 3 -5 hhcurveto
          hintmask 11000000
          -4 -1 -8 -2 -6 -10 2 -9 rlinecurve
          3 -10 12 -7 8 -5 128 -89 rcurveline
          -11 15 22 -19 12 hhcurveto
          2 hlineto
          7 1 6 5 5 4 152 105 rcurveline
          8 6 17 6 -4 14 rrcurveto
          endchar
        </CharString>
        <CharString name="ccaron">
          101 callsubr
          hstemhm
          -65 callsubr
          -102 26 84 -67 97 81 callsubr
          -69 563 -68 callsubr
        </CharString>
        <CharString name="ccedilla">
          101 callsubr
          hstem
          -65 callsubr
          21 -82 58 -59 73 -20 rrcurveto
          -54 -50 callgsubr
          -10 39 -45 15 -24 4 -1 37 rcurveline
          132 8 53 88 -4 13 rrcurveto
          endchar
        </CharString>
        <CharString name="ccircumflex">
          101 callsubr
          hstemhm
          -65 callsubr
          -102 26 84 -67 97 81 callsubr
          -69 434 -80 callsubr
          endchar
        </CharString>
        <CharString name="cdotaccent">
          101 callsubr
          191 callsubr
          hintmask 11000000
          -65 callsubr
          -102 26 84 -67 97 81 callsubr
          hintmask 00100000
          -153 508 -52 callgsubr
          endchar
        </CharString>
        <CharString name="cedilla">
          500 394 -104 rmoveto
          -10 39 -45 15 -24 4 rrcurveto
          54 vlineto
          4 -7 -12 0 -16 hhcurveto
          -12 hlineto
          -28 0 0 -6 hvcurveto
          -62 -50 callgsubr
          endchar
        </CharString>
        <CharString name="cedilla.dup">
          500 394 -104 rmoveto
          -10 39 -45 15 -24 4 rrcurveto
          54 vlineto
          4 -7 -12 0 -16 hhcurveto
          -12 hlineto
          -28 0 0 -6 hvcurveto
          -62 -50 callgsubr
          endchar
        </CharString>
        <CharString name="cent">
          101 callsubr
          hstem
          258 34 vstem
          483 100 rmoveto
          8 -2 -16 13 -8 hhcurveto
          -6 0 -2 -10 -7 hvcurveto
          -35 -61 -64 -26 -53 -3 rrcurveto
          394 vlineto
          17 -2 33 -7 21 -27 -41 -9 9 -37 96 callsubr
          -17 25 hhcurveto
          25 22 20 40 -11 hvcurveto
          -11 46 -48 34 -62 5 -1 23 rcurveline
          8 -7 8 -9 -9 -8 -8 -8 vhcurveto
          1 -23 -125 -9 -94 -130 36 -142 rlinecurve
          24 -93 72 -64 86 -11 1 -23 rcurveline
          -9 -1 8 -7 9 hhcurveto
          161 callsubr
          1 hvcurveto
          -1 22 140 4 56 92 -4 14 rlinecurve
          -225 -81 rmoveto
          -45 8 -37 37 -15 60 -12 49 0 90 14 46 20 68 42 26 33 8 rrcurveto
          endchar
        </CharString>
        <CharString name="cent.oldstyle">
          101 callsubr
          hstem
          483 100 rmoveto
          8 -2 -16 13 -8 hhcurveto
          -6 0 -2 -10 -7 hvcurveto
          -66 -38 -73 -25 -56 hhcurveto
          -16 -15 3 7 -15 hvcurveto
          91 378 14 -5 15 -9 12 -15 rlinecurve
          -41 -9 9 -37 96 callsubr
          -17 25 hhcurveto
          25 22 20 40 -11 hvcurveto
          -9 36 -32 29 -44 13 6 26 rcurveline
          10 2 -8 10 -10 hhcurveto
          -8 -5 -6 -7 -3 hvcurveto
          -6 -26 rlineto
          1 -8 -7 0 -8 hhcurveto
          -131 -103 -135 -147 37 hvcurveto
          18 -69 43 -52 57 -28 -10 -38 rcurveline
          -10 -2 7 -10 10 hhcurveto
          9 6 5 7 2 hvcurveto
          8 35 rlineto
          -6 19 20 -3 20 81 callsubr
          -194 313 rmoveto
          -86 -365 -19 18 -15 26 -8 32 rlinecurve
          -12 49 0 90 14 46 rrcurveto
          84 25 58 20 34 hhcurveto
          endchar
        </CharString>
        <CharString name="centigrade">
          1000 -20 33 452 46 128 46 -13 33 hstemhm
          48 46 128 46 hintmask 10010000
          914 229 rmoveto
          1 4 0 4 -1 4 -1 3 rcurveline
          8 -3 -9 4 -9 hhcurveto
          -20 4 -13 -15 -1 hvcurveto
          -113 -17 -72 -102 -129 hhcurveto
          -112 -99 83 123 -32 hvcurveto
          191 -48 67 262 231 hhcurveto
          114 71 -102 -88 22 hvcurveto
          5 -17 0 -16 4 -17 rrcurveto
          -9 2 7 -6 11 hhcurveto
          16 -2 9 10 hvcurveto
          212 vlineto
          13 3 22 -3 10 vhcurveto
          6 -1 -9 6 -6 hhcurveto
          -15 -13 -33 -15 -9 hvcurveto
          -8 -13 -11 -13 -6 -15 rrcurveto
          64 -56 -67 25 -67 hhcurveto
          -155 -106 -105 -97 -47 hvcurveto
          -33 -70 -12 -90 22 -89 rrcurveto
          -131 34 119 -143 186 hhcurveto
          14 hlineto
          139 8 105 111 2 130 rrcurveto
          -646 346 rmoveto
          hintmask 01101100
          61 -49 49 -61 -61 -49 -49 -61 -61 49 -49 61 61 49 49 61 vhcurveto
          -46 hmoveto
          -35 -29 -29 -35 -35 -29 29 35 35 29 29 35 35 29 -29 -35 vhcurveto
          endchar
        </CharString>
        <CharString name="circumflex">
          556 417 534 -80 callsubr
          endchar
        </CharString>
        <CharString name="circumflex.cap">
          556 415 500 rmoveto
          -94 callgsubr
          endchar
        </CharString>
        <CharString name="circumflex.dup">
          556 417 534 -80 callsubr
          endchar
        </CharString>
        <CharString name="colon">
          333 0 111 209 111 hstem
          220 386 44 callsubr
          -320 vmoveto
          6 callgsubr
          endchar
        </CharString>
        <CharString name="colonmonetary">
          778 412 32 vstem
          693 240 rmoveto
          13 -4 -10 0 -9 hhcurveto
          -7 -9 0 -10 hvcurveto
          -9 -163 -114 -63 -87 -5 rrcurveto
          659 vlineto
          104 -2 71 -85 26 -102 6 -26 2 -23 1 -3 rrcurveto
          -13 3 13 0 6 hhcurveto
          13 4 0 20 hvcurveto
          241 vlineto
          14 vlineto
          5 -2 -5 7 -11 hhcurveto
          -4 103 callsubr
          hvcurveto
          -47 -76 -54 58 -57 24 -58 4 rlinecurve
          12 vlineto
          9 -7 7 -9 -10 -7 -7 -9 vhcurveto
          -11 vlineto
          -213 -9 -162 -215 58 -228 41 -161 134 -103 142 -8 rrcurveto
          -12 vlineto
          -9 8 -7 8 9 8 7 9 vhcurveto
          11 vlineto
          111 5 86 71 35 90 18 48 0 42 -1 5 rrcurveto
          -281 -227 rmoveto
          -89 9 -97 62 -34 134 -16 62 -13 148 58 108 42 77 72 47 77 9 rrcurveto
          endchar
        </CharString>
        <CharString name="comma">
          333 -173 -21 194 111 hstem
          228 48 rmoveto
          41 -11 -22 22 -33 153 callsubr
          22 6 5 6 7 hvcurveto
          1 -100 -54 -56 -21 -22 -5 -4 -2 -3 1 -5 rrcurveto
          -7 2 8 -8 8 hhcurveto
          19 98 119 123 -31 hvcurveto
          endchar
        </CharString>
        <CharString name="copyleft">
          -25 callsubr
          -117 -50 rmoveto
          129 33 -94 122 -122 hhcurveto
          -35 -36 -13 -36 -34 hvcurveto
          -25 42 rlineto
          -3 7 -5 0 0 vvcurveto
          -6 -3 -4 -3 -2 hvcurveto
          1 -2 0 -4 -1 -2 1 -133 rcurveline
          -11 -1 2 0 7 hhcurveto
          5 7 0 7 2 hvcurveto
          0 1 14 4 15 vhcurveto
          57 14 40 47 59 hhcurveto
          48 47 -27 -48 26 hvcurveto
          33 -59 -8 -82 -8 -35 rrcurveto
          -81 -21 -62 -33 -52 hhcurveto
          -49 -68 34 94 -5 hvcurveto
          6 -5 0 -4 -5 -6 0 -8 -1 vhcurveto
          -1 -2 0 -24 10 -26 rrcurveto
          -52 20 51 -40 65 hhcurveto
          83 80 57 94 23 hvcurveto
          endchar
        </CharString>
        <CharString name="copyright">
          -25 callsubr
          -140 -57 rmoveto
          8 -2 -5 0 -5 hhcurveto
          -4 -5 0 -6 hvcurveto
          -94 -5 -68 -34 -49 hhcurveto
          -52 -62 33 81 -21 hvcurveto
          -8 35 -7 82 32 59 rrcurveto
          48 26 47 27 48 hhcurveto
          59 39 -47 -57 15 hvcurveto
          4 -15 1 -14 0 vvcurveto
          -8 2 7 0 4 hhcurveto
          7 2 0 12 hvcurveto
          133 vlineto
          1 2 0 4 -1 2 rrcurveto
          3 -1 -2 3 -6 hhcurveto
          -3 -3 0 -6 -3 hvcurveto
          -26 -42 rlineto
          36 -33 -36 12 -35 hhcurveto
          -123 -94 -121 -129 33 hvcurveto
          -94 24 80 -57 83 hhcurveto
          65 51 40 52 20 hvcurveto
          10 26 -1 26 0 vvcurveto
          endchar
        </CharString>
        <CharString name="copyright.alt">
          654 -107 46 553 46 hstem
          0 46 562 46 vstem
          654 215 rmoveto
          198 -128 125 -199 -202 -125 -125 -198 -198 127 -124 200 201 126 124 198 vhcurveto
          -46 hmoveto
          -170 -109 -106 -172 -172 -109 106 170 170 107 107 174 171 108 -107 -170 2 vhcurveto
          -143 -57 rmoveto
          7 -2 -7 0 -4 hhcurveto
          -5 -4 0 -5 -1 hvcurveto
          -96 -5 -69 -35 -50 hhcurveto
          -54 -62 33 83 -21 hvcurveto
          -9 35 -8 85 33 61 rrcurveto
          49 26 49 28 49 hhcurveto
          60 41 -49 -58 15 hvcurveto
          4 -16 0 -12 1 -2 rrcurveto
          -7 2 7 0 4 hhcurveto
          7 3 0 10 hvcurveto
          137 vlineto
          -1 8 rlineto
          3 -4 5 -6 vhcurveto
          0 -5 0 -3 -7 vhcurveto
          -27 -43 rlineto
          37 -34 -37 13 -36 hhcurveto
          -125 -96 -126 -131 34 hvcurveto
          -96 24 82 -59 85 hhcurveto
          67 51 42 52 21 hvcurveto
          10 28 0 23 3 vvcurveto
          endchar
        </CharString>
        <CharString name="currency">
          833 39 46 330 46 hstem
          204 46 334 46 vstem
          656 22 rmoveto
          13 13 -12 11 -7 8 -66 65 rcurveline
          29 36 17 45 50 vvcurveto
          50 -18 46 -29 36 vhcurveto
          63 63 10 9 15 16 -20 12 rlinecurve
          -21 12 -16 -15 -9 -10 -56 -54 rcurveline
          28 -35 -47 18 -50 hhcurveto
          -51 -46 -18 -28 -36 hvcurveto
          -57 55 -9 10 -2 1 -3 2 rlinecurve
          -11 7 -17 -2 -9 -9 -12 -13 12 -12 7 -7 67 -66 rcurveline
          -29 -36 -17 -45 -50 vvcurveto
          -50 17 -45 28 -36 vhcurveto
          -63 -64 -10 -9 -15 -16 20 -12 rlinecurve
          20 -12 16 15 9 10 57 55 rcurveline
          -29 37 46 -18 50 hhcurveto
          51 46 18 28 37 hvcurveto
          55 -54 10 -11 0 0 3 -2 rlinecurve
          12 -7 17 2 9 9 rrcurveto
          -72 228 rmoveto
          -91 -75 -74 -92 -92 -75 74 91 91 74 74 92 93 74 -74 -91 1 vhcurveto
          endchar
        </CharString>
        <CharString name="cwm">
          0 endchar
        </CharString>
        <CharString name="cwmascender">
          0 endchar
        </CharString>
        <CharString name="cwmcapital">
          0 endchar
        </CharString>
        <CharString name="d">
          94 callsubr
          hstem
          352 70 vstem
          -69 callgsubr
          endchar
        </CharString>
        <CharString name="dagger">
          478 393 75 236 -20 hstem
          201 76 vstem
          418 430 117 callsubr
          17 0 23 12 60 4 24 8 58 1 34 rrcurveto
          8 -1 37 -37 -38 0 -36 -9 -33 8 -50 4 -31 vhcurveto
          12 -66 0 -14 1 -22 66 callsubr
          -16 -1 -17 -9 -36 rrcurveto
          -14 -70 0 -7 -53 vvcurveto
          -120 8 -163 13 -129 vhcurveto
          -15 1 1 -7 14 hhcurveto
          7 8 1 12 2 hvcurveto
          1 14 21 209 198 vvcurveto
          -1 49 1 11 -14 62 -9 45 -1 10 -1 22 109 callgsubr
        </CharString>
        <CharString name="daggerdbl">
          478 -15 75 380 74 190 -20 hstem
          201 75 vstem
          417 477 rmoveto
          20 -14 17 -24 -24 -26 -6 -8 -26 vhcurveto
          -29 -7 -6 -1 -16 -2 1 20 0 11 10 41 rrcurveto
          5 29 8 42 28 vvcurveto
          43 -33 0 -4 -12 -26 -4 -39 -1 vhcurveto
          1 -29 8 -40 6 -35 9 -36 1 -12 1 -19 -16 2 -8 1 -27 7 rrcurveto
          9 -31 -22 5 -23 hhcurveto
          -24 -16 -17 -20 -16 8 -21 35 11 14 0 14 48 hvcurveto
          26 7 9 1 16 2 -1 -20 -1 -11 -9 -41 rrcurveto
          -5 -29 -10 -42 -28 vvcurveto
          -43 1 33 0 4 hhcurveto
          13 26 4 39 -1 hvcurveto
          1 29 -8 40 -8 35 -8 36 -1 12 -1 19 18 -2 5 -1 28 -7 rrcurveto
          -13 44 13 -1 16 hhcurveto
          32 11 18 19 -1 hvcurveto
          1 -455 117 callsubr
          21 2 10 9 41 rrcurveto
          6 31 8 41 27 vvcurveto
          43 -1 -33 0 -4 hhcurveto
          -12 -27 -4 -39 1 hvcurveto
          -1 -29 10 -42 6 -33 8 -36 1 -12 1 -19 66 callsubr
          -21 -1 -10 -9 -41 rrcurveto
          -6 -31 -8 -41 -27 vvcurveto
          -43 33 0 4 12 26 4 39 1 vhcurveto
          -1 29 -8 42 -6 33 rrcurveto
          -9 36 -1 12 19 vvcurveto
          109 callgsubr
        </CharString>
        <CharString name="dblbracketleft">
          458 -249 46 908 46 hstem
          142 46 78 46 vstem
          408 737 rmoveto
          10 -3 -12 4 -8 hhcurveto
          -229 hlineto
          -15 1 -10 -12 hvcurveto
          -915 vlineto
          -2 -15 -2 -22 4 -12 rrcurveto
          -10 2 11 -4 8 hhcurveto
          229 hlineto
          17 2 17 15 -4 hvcurveto
          8 -2 -8 7 -13 -5 -5 -1 -5 hhcurveto
          -57 908 62 hlineto
          5 6 -1 6 hhcurveto
          18 3 17 16 -4 hvcurveto
          -142 -940 rmoveto
          -78 908 78 -879 hlineto
          endchar
        </CharString>
        <CharString name="dblbracketright">
          458 -249 46 908 46 hstem
          144 46 78 46 vstem
          314 -227 rmoveto
          915 vlineto
          49 vlineto
          9 -13 5 -8 vhcurveto
          -228 hlineto
          -17 -2 -17 -15 4 hvcurveto
          -8 2 8 -7 13 5 5 1 5 hhcurveto
          56 -908 -61 hlineto
          -5 -6 1 -6 hhcurveto
          -18 -3 -17 -16 4 hvcurveto
          -9 3 9 -5 10 hhcurveto
          229 hlineto
          14 0 10 12 hvcurveto
          -46 24 rmoveto
          -78 908 78 -854 hlineto
          endchar
        </CharString>
        <CharString name="dblgrave.ts1">
          556 524 -21 194 -20 hstem
          239 523 rmoveto
          -3 7 -7 186 callgsubr
          -4 -2 0 -1 -2 72 callgsubr
          166 hmoveto
          -2 7 -8 186 callgsubr
          -3 -2 0 -1 -3 72 callgsubr
          endchar
        </CharString>
        <CharString name="dblverticalbar">
          439 126 46 94 46 vstem
          172 -214 rmoveto
          62 callsubr
          24 -1 22 14 vhcurveto
          140 hmoveto
          62 callsubr
          23 0 22 14 vhcurveto
          endchar
        </CharString>
        <CharString name="dcaron">
          -24 callsubr
          45 -21 146 83 -44 45 hstemhm
          352 70 hintmask 11001100
          -69 callgsubr
          197 343 rmoveto
          hintmask 00110000
          -99 callsubr
        </CharString>
        <CharString name="dcroat">
          -24 callsubr
          90 32 87 45 hstem
          351 73 vstem
          18 callgsubr
          -2 11 12 vvcurveto
          440 51 vlineto
          9 8 7 9 -1 hvcurveto
          8 -7 8 -9 vhcurveto
          -51 hlineto
          -1 102 rlineto
          142 callgsubr
          -4 15 -15 -37 callgsubr
          4 -18 rrcurveto
          -11 callgsubr
          14 hhcurveto
          49 1 -6 -9 3 112 callsubr
          -50 -130 vlineto
          -8 -8 -8 -8 -9 8 -7 8 hvcurveto
          130 -146 hlineto
          35 -30 -35 21 -42 hhcurveto
          -120 -85 -148 -143 36 hvcurveto
          -96 25 74 -64 76 hhcurveto
          59 39 44 24 15 hvcurveto
          -37 19 41 -31 48 hhcurveto
          37 19 22 31 9 hvcurveto
          11 40 -2 60 0 vvcurveto
          -194 -10 61 callsubr
          endchar
        </CharString>
        <CharString name="ddotbelow">
          111 callgsubr
          209 45 hstemhm
          352 70 hintmask 01111000
          -69 callgsubr
          hintmask 10000000
          -19 -439 rmoveto
          86 callsubr
        </CharString>
        <CharString name="degree">
          417 409 46 182 46 hstem
          69 46 182 46 vstem
          343 546 rmoveto
          76 -61 61 -76 -76 -61 -61 -76 -76 61 -61 76 76 61 61 76 vhcurveto
          -46 hmoveto
          50 -41 41 -50 -50 -41 -41 -50 -50 41 -41 50 50 41 41 50 vhcurveto
          endchar
        </CharString>
        <CharString name="diameter">
          833 -58 46 524 46 hstem
          104 46 532 46 vstem
          748 556 rmoveto
          13 1 -11 10 -13 hhcurveto
          -6 -6 -3 -4 -4 hvcurveto
          -89 -88 rlineto
          46 -55 -71 28 -77 hhcurveto
          -173 -140 -138 -170 -77 29 -70 47 -54 hvcurveto
          -91 -89 rlineto
          -4 -4 -2 -6 -6 vvcurveto
          -13 -1 11 -10 13 hhcurveto
          6 6 3 4 5 hvcurveto
          89 89 rlineto
          -47 55 72 -28 78 hhcurveto
          172 139 138 170 77 -29 70 -47 54 hvcurveto
          90 89 4 4 3 6 -1 6 rlinecurve
          -66 -306 rmoveto
          -145 -119 -117 -147 -65 -59 23 38 -46 vhcurveto
          373 370 rlineto
          39 -46 24 -59 -64 vvcurveto
          -95 201 rmoveto
          -375 -369 rlineto
          -38 45 -24 59 64 vvcurveto
          145 119 117 147 65 60 -23 -38 46 vhcurveto
          endchar
        </CharString>
        <CharString name="died">
          556 -4 -21 368 39 221 -20 hstem
          511 372 rmoveto
          9 -2 -8 6 -10 hhcurveto
          -12 -12 -1 -1 -12 hvcurveto
          -3 -50 -51 0 -52 hhcurveto
          6 160 3 36 1 3 0 4 -1 4 rlinecurve
          11 -3 -10 3 -8 hhcurveto
          -34 hlineto
          -27 15 -59 -26 2 hvcurveto
          2 -30 0 -29 2 -30 rrcurveto
          -16 -1 -15 2 -16 vhcurveto
          -56 -57 5 -56 hhcurveto
          -4 hlineto
          -13 -2 2 -24 2 -8 rrcurveto
          -12 3 10 -3 8 5 4 1 5 hhcurveto
          16 hlineto
          4 29 33 0 31 hhcurveto
          37 hlineto
          -1 -10 1 -11 -1 -11 1 -103 -5 -104 -4 -103 rrcurveto
          -4 0 -4 1 -4 vhcurveto
          -12 3 11 -2 12 hhcurveto
          28 hlineto
          14 3 6 15 -1 hvcurveto
          -1 24 -8 242 rlineto
          27 1 27 -2 27 vhcurveto
          134 -2 rlineto
          -1 21 20 -2 21 hhcurveto
          4 hlineto
          12 2 0 22 -3 10 rrcurveto
          endchar
        </CharString>
        <CharString name="dieresis">
          556 549 100 hstem
          -41 callgsubr
          endchar
        </CharString>
        <CharString name="dieresis.cap">
          556 481 100 hstem
          4 callsubr
          endchar
        </CharString>
</ttFont>
